<?xml version="1.0" encoding="UTF-8"?>
<svg id="Layer_1" xmlns="http://www.w3.org/2000/svg" version="1.1" viewBox="0 0 250 250">
  <!-- Generator: Adobe Illustrator 30.3.0, SVG Export Plug-In . SVG Version: 2.1.3 Build 182)  -->
  <defs>
    <style>
      .st0 {
        fill: #6c1d45;
      }
    </style>
  </defs>
  <path class="st0" d="M176.7,114.6l9.9-5,.9,63.9h0c-.1,3.7-1.1,6.5-2.8,8.4-1.7,1.8-4.6,2.9-8.6,3.1-1.7.1-14.1.2-37.2.2h-34.7v2.7c-.6,10-4,19-10.5,27.1-2.5,3.1-5.4,5.9-8.7,8.5-8.2,6.3-17.4,9.6-27.6,9.9-11.6.4-22-2.6-31.1-8.9-7.8-5.4-13-11.9-15.6-19.5-1.4-4-1.9-8.4-1.8-13.3.4-12.5,4.3-21.1,11.6-25.8,1.8-1.2,2.8-1.7,2.9-1.5,1.4,10.3,3,20.1,4.9,29.5,2.4,5.7,6.8,9.9,13.1,12.5,7.7,2.7,14.9,2.4,21.7-.9,6.1-2.9,9.9-7.3,11.5-13.2l.4-1.8.2-19.1c0-12.7.2-19.6.4-20.7,1.2-5.1,3.7-8.8,7.3-11.2l19-9.3c1.2-.6,1.9-.9,1.9-.9v27.9h17.9v-11.3c0-7.6.3-11.9.6-12.9.6-1.9,1.6-3.4,3.2-4.7,7-3.8,13.6-7.2,19.8-10.3,0,0,0,6.6,0,19.7v19.6h17.4v-14.8c0-9.8,0-15.2.2-16.3.3-2.5,1.2-4.4,2.7-5.8.7-.6,4.3-2.6,10.9-5.9Z"/>
  <path class="st0" d="M200,81.2c0,.2,0,.3,0,.5v97.5c0,0,11.8,0,11.8,0h12c0,0,0,0,0-41.5V59.8c-4.7,7.7-12,16.1-23.9,21.3Z"/>
  <path class="st0" d="M142.4,81.9s3.5-30.1,25-38.3c0,0,7-2,17.7-3.3,10.6-1.4,16.4-2.9,20-6.6,3.6-3.7,9.5-5.9,6,4.6,0,0-2.1,9.2-15.4,12.3-8.3,2.1-24.2,2.3-15.3,8,0,0,10.4,3.8,21-3.1,10.6-6.9,18-17.1,24.3-26.2,6.3-9.1,9.6-10.4,10.7-11.5,1.1-1.1,7.9-3.4,2.8,5.6,0,0-7.1,10.2-12,21.7-4.9,11.5-15,31-43,35.8-19.7,2.7-28.4,5.3-33.3,13.1,0,0-7,9.6,3.5,24.4,0,0-13.7-8-12-36.5Z"/>
</svg>