<?xml version="1.0" encoding="UTF-8"?>
<svg id="Layer_1" xmlns="http://www.w3.org/2000/svg" version="1.1" xmlns:xlink="http://www.w3.org/1999/xlink" viewBox="0 0 250 250">
  <!-- Generator: Adobe Illustrator 30.3.0, SVG Export Plug-In . SVG Version: 2.1.3 Build 182)  -->
  <defs>
    <style>
      .st0 {
        fill: url(#linear-gradient1);
        opacity: .6;
      }

      .st1 {
        fill: #041e42;
      }

      .st2 {
        fill: url(#linear-gradient);
      }
    </style>
    <linearGradient id="linear-gradient" x1="125" y1="-13.6" x2="125" y2="335" gradientUnits="userSpaceOnUse">
      <stop offset="0" stop-color="#ffffc4"/>
      <stop offset="0" stop-color="#f5d286"/>
      <stop offset="0" stop-color="#f8df92"/>
      <stop offset="0" stop-color="#fdefa0"/>
      <stop offset="0" stop-color="#fff5a5"/>
      <stop offset="0" stop-color="#feea9a"/>
      <stop offset="0" stop-color="#fddf8e"/>
      <stop offset="0" stop-color="#fdd887"/>
      <stop offset=".2" stop-color="#fdd786"/>
      <stop offset=".4" stop-color="#fdd98a"/>
      <stop offset=".6" stop-color="#fedf98"/>
      <stop offset=".8" stop-color="#ffe7a7"/>
      <stop offset=".8" stop-color="#926600"/>
      <stop offset=".8" stop-color="#966c08"/>
      <stop offset=".8" stop-color="#a27c1d"/>
      <stop offset=".9" stop-color="#b59741"/>
      <stop offset=".9" stop-color="#d0bd73"/>
      <stop offset="1" stop-color="#f2ecb2"/>
      <stop offset="1" stop-color="#ffffcb"/>
    </linearGradient>
    <linearGradient id="linear-gradient1" x1="123.8" y1="30.3" x2="123.8" y2="147.6" gradientUnits="userSpaceOnUse">
      <stop offset="0" stop-color="#926600"/>
      <stop offset=".1" stop-color="#956904"/>
      <stop offset=".2" stop-color="#9f7410"/>
      <stop offset=".4" stop-color="#b08626"/>
      <stop offset=".5" stop-color="#c79f43"/>
      <stop offset=".6" stop-color="#e6be69"/>
      <stop offset=".7" stop-color="#fdd786"/>
      <stop offset=".9" stop-color="#f7d386"/>
      <stop offset="1" stop-color="#f5d286"/>
      <stop offset="1" stop-color="#ffffc4"/>
    </linearGradient>
  </defs>
  <path class="st1" d="M126.3,10.7l-.7-.2h-1.4L36.6,42.7v115.2c0,7.9,2.1,15.6,6,22.4,9.1,15.7,30.4,38.5,80,58.2l1,.4,1.4.6,1.4-.6.5-.2c49.9-19.8,71.3-42.7,80.5-58.4,3.9-6.7,6-14.5,6-22.4V42.7L126.3,10.7ZM205.9,157.9c0,6.6-1.7,13-5,18.6-8.5,14.6-28.6,36-75.9,54.9-47.4-18.9-67.4-40.3-75.9-54.9-3.3-5.6-5-12-5-18.6V48l80.9-29.7,80.9,29.7v110Z"/>
  <path class="st1" d="M125.5,224.6h0c-44.9-18.5-62.8-37.5-70-50.3-3-5.3-4.6-11.4-4.6-17.7l.4-104.3,74.3-27,73.1,27,.6,103.2c0,6.2-1.6,12.4-4.6,17.7-7.7,13.6-25.9,33.6-69,51.3h0ZM51.7,52.7l-.4,103.9c0,6.2,1.6,12.2,4.5,17.5,7.1,12.6,25,31.6,69.7,50,43-17.7,61.1-37.6,68.7-51.1,3-5.2,4.5-11.3,4.5-17.4l-.6-102.8-72.6-26.8-73.8,26.8Z"/>
  <path class="st2" d="M125.5,218.7c-41.3-17.3-58.6-35.1-65.3-47-2.5-4.5-3.9-9.7-3.9-15l.4-100.4,68.8-25,67.6,25,.6,99.3c0,5.3-1.3,10.4-3.9,14.9-5.8,10.2-21.2,30-64.3,48.1Z"/>
  <path class="st0" d="M187.7,122.4l-30.4-7.6c0,0-.1,0,0-.1,0,0,0,0,.2,0h12.7c.1,0,.2-.2.2-.3,0,0,0,0,0,0-2.7-.9-5.7-1.9-8.8-2.9-.4-.1-.4-.3,0-.3,9.5-1.8,18.8-3.6,27.9-5.5,0,0,0,0,0,0h0s0,0,0,0c-10.6.2-21,.4-31.2.6-.7,0-.7,0,0-.3,3.8-1.1,7.8-2.2,12-3.4,0,0,0,0,.1,0,0,0,0-.2,0-.2l-9.2-.6c-.5,0-.5-.2,0-.4,8.5-4.1,16.9-8.3,25.4-12.4.5-.2.5-.3,0-.1l-30,8.6c-.5.1-.5,0,0-.2l10.7-6.4c.4-.3.4-.3,0-.2-3,.5-5.9,1.1-8.9,1.8-.5.1-.6,0-.2-.3,6.4-5.6,12.6-11,18.6-16.3,1-.9,2-1.7,3.1-2.5,0,0,0,0,0,0h0c0-.1,0-.1-.1,0-9.1,5.5-18.3,11-27.4,16.5,0,0,0,0,0,0,0,0,0,0,0-.1.5-.4,1.1-1,1.8-1.8,2.4-2.5,4.8-4.9,7.1-7.4,0,0,.1-.1.1-.2,0-.1,0-.2-.2-.2l-8.7,4.3c0-.1,0-.2,0-.2,5.4-8,10.7-15.9,15.9-23.7.3-.5.3-.5-.2-.2,0,0-.1.1-.3.3-7.4,7.7-14.5,15.1-21.3,22.2-.4.4-.4.3-.2-.1,1.6-2.8,3.3-5.8,5-8.8.5-.9.9-1.7,1.3-2.5,0-.1,0-.2,0,0l-7.4,6.5c-.1.1-.2,0-.1,0,3.1-9.1,6.3-18.3,9.4-27.4,0,0,0,0,0-.1h0s0,0-.1,0c-5,9.1-10.1,18.3-15.2,27.6-.3.6-.4.6-.2,0l3-11.7c.2-.8,0-.8-.4-.2l-5.1,7.7c-.1.2-.2.1-.1,0l1.9-28.4s0,0,0,0h0s0,0,0,0l-7.5,30.1c-.1.6-.2.6-.2,0l-.2-12.7c0-.1,0-.1-.1-.1,0,0-1.7,4.8-3.2,9.2,0,.3-.2.3-.2,0-1.8-9.1-3.5-18.2-5.4-27.3-.3-1.4-.4-1.4-.3,0,0,1.4.1,3.2.2,5.3.1,9,.2,17.4.4,25.1,0,.7,0,.7-.3,0l-3.4-12c-.1-.5-.2-.5-.3,0l-.6,9.4c0,.3,0,.3-.2,0-4.2-8.6-8.4-17.1-12.6-25.8,0,0,0,0-.1,0h0c0,0,0,0,0,.1,2.8,9.9,5.8,20,8.8,30.5,0,.3,0,.3-.1,0l-6.5-10.9c-.3-.6-.4-.5-.3.1l1.8,9c0,.4,0,.4-.2.1-6.5-7.5-12.8-14.7-18.8-21.6,0,0,0,0-.1,0h0s0,0,0,.1c5.8,9.5,11.2,18.6,16.4,27.1,0,0,0,.1,0,.2,0,0,0,0,0,0-3.1-3.1-6.1-6.1-9.1-8.9-.5-.5-.6-.4-.3.2l4.1,8.2c.1.2,0,.3-.2.1-7.6-5.1-15.6-10.5-24-16.1,0,0,0,0,0,0h0c0,0,0,0,0,.1,6.1,5.8,12.1,11.6,18.2,17.5.3,0,.5,0,.6.2,0,0,0,0,.1.1,0,0,0,0,0,0,0,0,.1,0,.2,0,0,0,0,0,.1,0,0,0,0,0,0,0,0,0,0,0,0,0,0,0,0,0,0-.1,0,0,0,0,0,0,0,0,0,0,0,0,0,0-.2,0-.2,0,0,0,0,0,0,0,0,0,0,0,0,0-.1-.1-.3-.2-.6-.2l4.9,4.6s0,0,0,0c0,0,0,0-.1,0,0,0,0,0,0,0-3.1-1.7-6.2-3.4-9.1-5.1-.8-.5-1.6-.8-2.2-1.1-.2,0-.2,0,0,.1l6.3,7.1c.2.3.2.4-.2.2-9.4-3.3-18.2-6.3-26.6-9.1-.9-.3-.9-.2,0,.2l26.9,14.8c.6.3.5.4,0,.2l-12.1-3c-.5-.1-.6,0-.1.3l8,5.3s0,0,0,0c0,0,0,.1-.2,0-9.4-.7-18.6-1.3-27.6-1.9-1,0-1,0,0,.3,9.7,2.4,19.5,4.9,29.5,7.3.6.2.6.2,0,.3l-12.2.2c-.8,0-.8.1,0,.4,2.7.9,5.5,1.8,8.4,2.8.4.1.5.3.2.4,0,0,0,0,0,0,0,0,0,0,0,0-.2,0-.4,0-.6,0-8.1,1.6-16.3,3.2-24.6,4.8-.9.2-1.8.3-2.7.4,0,0,0,0,0,0h0c0,0,0,0,0,0,2.8,0,5.5,0,8.4,0,7.5-.2,15.1-.3,22.9-.4.5,0,.5,0,0,.2-4,1.2-8,2.3-12,3.5-.1,0-.3.1-.4.2,0,0,0,0,0,0l9.6.6c.3,0,.3,0,0,.2l-25.6,12.6c-.4.2-.4.2,0,.1,9.4-2.7,18.9-5.4,28.3-8.1.4-.1.9-.3,1.2-.6,4.9-3.7,10-7.1,15.6-9.7,0,0,0,0,0,0,3.7-1.7,7.4-2.9,11-3.5,5.3-1,10.8-.8,16.4.5,3.4.8,6.6,2.1,9.6,3.9,2.3,1.4,4.5,2.8,6.6,4.4,1.7,1.3,3.4,2.6,5,3.9.6.5,1.4.8,2.4.8,10.2.7,20.2,1.4,30.2,2,.6,0,.6,0,0-.2ZM86.3,106.9c0,0,0,0,0,.1,0,0,0,0,0-.1,0,0,0-.1.1-.2s0-.1,0-.2c0,0,0,0,0,.2s0,.2-.1.2ZM86.9,107.7c-.3,0-.5-.3-.5-.6,0,0,0,0,0-.1,0,0,0,0,0,.1,0,.3.2.6.5.6h0Z"/>
  <g>
    <g>
      <path class="st1" d="M139.1,192.3c.7,1.5,1.8,2.5,3.4,2.9,1.4.5,2.9.4,4.4.1.4,0,.5-.2.2-.6-1.6-2.2-5-3.3-7.7-2.6,0,0-.1,0-.3.2Z"/>
      <path class="st1" d="M167.2,181.8c-1.9-1.5-7.3-.5-8.8,1.6,1.6,1.9,7.2.9,8.8-1.6Z"/>
      <path class="st1" d="M181.1,164.2c-2-1-7.6,1.9-8.1,4.2,2.7.7,6.1-.7,8.1-4.2Z"/>
      <path class="st1" d="M163.5,178.5c2.1,1.8,7.8.5,8.9-1.9-2.9-1.2-6.7-.4-8.9,1.9Z"/>
      <path class="st1" d="M161,187.2c-.6-.2-1.1-.5-1.7-.7-2.3-.8-4.6-.5-6.7.7-.6.3-.6.4,0,.8,1.9,1.4,4,1.4,6.2.6.8-.3,1.5-.7,2.3-1.1,0,0,0-.2,0-.3Z"/>
      <path class="st1" d="M177.5,170.7c-2.7-.8-6.8.5-8.6,3.1,1.8,1.6,7-.3,8.6-3.1Z"/>
      <path class="st1" d="M176.8,162.3c3.9.3,6.9-3.3,7.3-5.6-3.3.3-6.6,2.8-7.3,5.6Z"/>
      <path class="st1" d="M154.7,191.5c-1.4-1.2-2.9-1.8-4.5-1.9-1.3-.1-2.6,0-3.9.6-.6.2-.6.4-.2.8,2.2,2.1,4.8,2,7.4,1.1.3-.1.6-.3,1.1-.5Z"/>
      <path class="st1" d="M179.2,155.9c2.7.2,5.8-2.5,6.5-6.1-2.3,0-6.1,3-6.5,6.1Z"/>
      <path class="st1" d="M167.3,173.4c1-1,1.5-2.1,1.6-3.2.2-1.7-.3-3.3-1.2-4.7-.2-.3-.4-.5-.7,0-1,1.9-1.4,3.9-.7,6,.2.6.6,1.2,1,2Z"/>
      <path class="st1" d="M174.9,162.1c1.5-2.4.5-6.1-2.2-7.7-1.2,2.2-.3,6.6,2.2,7.7Z"/>
      <path class="st1" d="M143.9,184c-2.6.9-5,4.2-5,7,2.7-.1,5.3-3.9,5-7Z"/>
      <path class="st1" d="M149.4,181.7c-2.4,1.2-4.6,4.6-4.1,7.5,2.3,0,5.2-5.2,4.1-7.5Z"/>
      <path class="st1" d="M157.1,182.6c2.4-1.1,3.7-6.1,2-8.1-2,1.7-3.3,5.4-2,8.1Z"/>
      <path class="st1" d="M174.1,148.6c-.3,1.1-.2,2.1,0,3,.3,1.8,1.3,3.2,2.8,4.2.5.3.6.1.7-.3.6-2.4-.3-4.7-2.5-6.2-.3-.2-.6-.4-1.1-.7Z"/>
      <path class="st1" d="M162.4,177.7c2.6-2.1,2.9-5.3,1.8-7.9-.2-.4-.4-.3-.6,0-1.6,2.2-2.4,4.6-1.5,7.3,0,.2.2.4.3.7Z"/>
      <path class="st1" d="M151.3,186.3c3-1.5,3.9-5.5,2.9-8-2.2,1.4-3.9,5.2-2.9,8Z"/>
      <path class="st1" d="M171.8,161.2c-.2-.2-.5-.6-.8-1-.2-.3-.4-.3-.6,0-1,2.6-1,5,.8,7.3.3.4.5.4.8,0,1.2-2.1,1.1-4.2-.2-6.4Z"/>
      <path class="st1" d="M186.2,134c-2.4.5-5.1,5.2-4.5,7.7,2.4,0,5.3-4.9,4.5-7.7Z"/>
      <path class="st1" d="M181.2,134.5c2.7-.1,6.1-5,5.2-7.4-3,1.1-5.1,4.3-5.2,7.4Z"/>
      <path class="st1" d="M186.2,142.2c-.6.3-1.1.5-1.7.8-2.1,1.3-3.3,3.1-3.9,5.5-.2.7,0,.8.6.6,2.3-.6,3.7-2.2,4.5-4.3.3-.8.4-1.6.7-2.4,0,0-.1-.1-.2-.2Z"/>
      <path class="st1" d="M180.2,142.2c.8-2.5-2.2-6.7-4.8-6.8,0,2.6,2,6,4.8,6.8Z"/>
      <path class="st1" d="M179.8,134.7c.5-3.3-1.5-5.9-4.1-7-.4-.2-.5,0-.5.4.3,2.7,1.4,4.9,3.9,6.3.2.1.4.2.7.3Z"/>
      <path class="st1" d="M178.7,120.1c-1.1,3,.1,6.8,2.3,7.8,1.5-2.4.3-6.4-2.3-7.8Z"/>
      <path class="st1" d="M179.2,148.9c.8-3.3-1.7-6.6-4.2-7.4-.3,2.6,1.4,6.3,4.2,7.4Z"/>
    </g>
    <g>
      <path class="st1" d="M110.9,192.3c-.7,1.5-1.8,2.5-3.4,2.9-1.4.5-2.9.4-4.4.1-.4,0-.5-.2-.2-.6,1.6-2.2,5-3.3,7.7-2.6,0,0,.1,0,.3.2Z"/>
      <path class="st1" d="M82.8,181.8c1.9-1.5,7.3-.5,8.8,1.6-1.6,1.9-7.2.9-8.8-1.6Z"/>
      <path class="st1" d="M68.9,164.2c2-1,7.6,1.9,8.1,4.2-2.7.7-6.1-.7-8.1-4.2Z"/>
      <path class="st1" d="M86.5,178.5c-2.1,1.8-7.8.5-8.9-1.9,2.9-1.2,6.7-.4,8.9,1.9Z"/>
      <path class="st1" d="M89,187.2c.6-.2,1.1-.5,1.7-.7,2.3-.8,4.6-.5,6.7.7.6.3.6.4,0,.8-1.9,1.4-4,1.4-6.2.6-.8-.3-1.5-.7-2.3-1.1,0,0,0-.2,0-.3Z"/>
      <path class="st1" d="M72.5,170.7c2.7-.8,6.8.5,8.6,3.1-1.8,1.6-7-.3-8.6-3.1Z"/>
      <path class="st1" d="M73.2,162.3c-3.9.3-6.9-3.3-7.3-5.6,3.3.3,6.6,2.8,7.3,5.6Z"/>
      <path class="st1" d="M95.3,191.5c1.4-1.2,2.9-1.8,4.5-1.9,1.3-.1,2.6,0,3.9.6.6.2.6.4.2.8-2.2,2.1-4.8,2-7.4,1.1-.3-.1-.6-.3-1.1-.5Z"/>
      <path class="st1" d="M70.8,155.9c-2.7.2-5.8-2.5-6.5-6.1,2.3,0,6.1,3,6.5,6.1Z"/>
      <path class="st1" d="M82.7,173.4c-1-1-1.5-2.1-1.6-3.2-.2-1.7.3-3.3,1.2-4.7.2-.3.4-.5.7,0,1,1.9,1.4,3.9.7,6-.2.6-.6,1.2-1,2Z"/>
      <path class="st1" d="M75.1,162.1c-1.5-2.4-.5-6.1,2.2-7.7,1.2,2.2.3,6.6-2.2,7.7Z"/>
      <path class="st1" d="M106.1,184c2.6.9,5,4.2,5,7-2.7-.1-5.3-3.9-5-7Z"/>
      <path class="st1" d="M100.6,181.7c2.4,1.2,4.6,4.6,4.1,7.5-2.3,0-5.2-5.2-4.1-7.5Z"/>
      <path class="st1" d="M92.9,182.6c-2.4-1.1-3.7-6.1-2-8.1,2,1.7,3.3,5.4,2,8.1Z"/>
      <path class="st1" d="M75.9,148.6c.3,1.1.2,2.1,0,3-.3,1.8-1.3,3.2-2.8,4.2-.5.3-.6.1-.7-.3-.6-2.4.3-4.7,2.5-6.2.3-.2.6-.4,1.1-.7Z"/>
      <path class="st1" d="M87.6,177.7c-2.6-2.1-2.9-5.3-1.8-7.9.2-.4.4-.3.6,0,1.6,2.2,2.4,4.6,1.5,7.3,0,.2-.2.4-.3.7Z"/>
      <path class="st1" d="M98.7,186.3c-3-1.5-3.9-5.5-2.9-8,2.2,1.4,3.9,5.2,2.9,8Z"/>
      <path class="st1" d="M78.2,161.2c.2-.2.5-.6.8-1,.2-.3.4-.3.6,0,1,2.6,1,5-.8,7.3-.3.4-.5.4-.8,0-1.2-2.1-1.1-4.2.2-6.4Z"/>
      <path class="st1" d="M63.8,134c2.4.5,5.1,5.2,4.5,7.7-2.4,0-5.3-4.9-4.5-7.7Z"/>
      <path class="st1" d="M68.8,134.5c-2.7-.1-6.1-5-5.2-7.4,3,1.1,5.1,4.3,5.2,7.4Z"/>
      <path class="st1" d="M63.8,142.2c.6.3,1.1.5,1.7.8,2.1,1.3,3.3,3.1,3.9,5.5.2.7,0,.8-.6.6-2.3-.6-3.7-2.2-4.5-4.3-.3-.8-.4-1.6-.7-2.4,0,0,.1-.1.2-.2Z"/>
      <path class="st1" d="M69.8,142.2c-.8-2.5,2.2-6.7,4.8-6.8,0,2.6-2,6-4.8,6.8Z"/>
      <path class="st1" d="M70.2,134.7c-.5-3.3,1.5-5.9,4.1-7,.4-.2.5,0,.5.4-.3,2.7-1.4,4.9-3.9,6.3-.2.1-.4.2-.7.3Z"/>
      <path class="st1" d="M71.3,120.1c1.1,3-.1,6.8-2.3,7.8-1.5-2.4-.3-6.4,2.3-7.8Z"/>
      <path class="st1" d="M70.8,148.9c-.8-3.3,1.7-6.6,4.2-7.4.3,2.6-1.4,6.3-4.2,7.4Z"/>
    </g>
    <g>
      <path class="st1" d="M149.8,159.7c-4,14.8-15.3,13-22.6,24,2.6-11.3,14.5-14.4,17.5-25.9-8.4,10-23.6,15.2-20.6,31.3-10.9-25.7,23.2-32.1,24-53.9,2.6,7.4,3.9,16.5,1.8,24.5Z"/>
      <path class="st1" d="M123.2,180c0-2.9.5-5.7,1.8-8.4,2.3-4.8,6.3-8.8,10.6-13.1,5.3-5.3,10.7-10.7,12.8-17.8,1.2,5.1,2.1,12,.3,18.7-2.2,8.2-6.5,10.9-11.6,14-1.7,1.1-3.4,2.1-5.1,3.5,1.4-1.8,3.1-3.5,4.8-5.2,3.8-3.7,7.6-7.5,9.2-13.6l-2.1-1.1c-2.3,2.8-5.3,5.2-8.1,7.6-5.2,4.4-10.6,8.8-12.5,15.5Z"/>
      <path class="st1" d="M113.2,105.3c2.8,4.4,5,10.1,4.8,15.7-.4,10.3-8,10.7-11.2,19,0-7.7,7.3-11.5,7.5-19.5-4,7.8-13.1,13.4-8.8,23.5-10.9-15.1,10.3-24.3,7.6-38.7Z"/>
      <path class="st1" d="M103.7,135.4c0-.9,0-1.9.3-2.9.8-3.4,2.8-6.6,4.9-10,2.4-3.8,4.9-7.8,5.6-12.2,1.3,3,2.4,6.7,2.3,10.6-.2,5.5-2.6,7.8-5.4,10.6-.2.2-.3.3-.5.5.2-.4.4-.7.7-1.1,1.9-3,3.9-6.1,4-10.5l-2.3-.6c-1.1,2.1-2.6,4.1-4.1,6.1-2.2,2.9-4.5,5.9-5.5,9.4Z"/>
      <path class="st1" d="M129.7,146.8c13.7-8.3,10.1-26.2,10.1-26.2,0,0,9.8,17.5-8.4,30.5-18.2,13-14,25.1-14,25.1-8.4-7.2-1.4-21.2,12.3-29.4Z"/>
      <path class="st1" d="M115.7,172.1c-.6-1.4-.9-2.9-.7-4.7.3-3.2,1.8-6.7,4.5-10.1,2.7-3.6,6.5-6.8,10.8-9.5,5.9-3.6,9.6-9.5,10.8-17.1,0-.2,0-.3,0-.5,0,.3,0,.5,0,.8,0,3.3-.6,6.4-2,9.3-1.7,3.6-4.6,6.9-8.6,9.7-9.7,6.9-13.1,13.7-14.3,18.2-.4,1.4-.5,2.7-.6,3.8Z"/>
      <path class="st1" d="M130.4,102.8c-21.1-20.1-16.6-33.7-16.6-33.7,0,0,2.5,18.3,20.8,31.9,18.3,13.6,15.8,30.7,8.6,38.5,0,0,8.4-16.6-12.8-36.6Z"/>
      <path class="st1" d="M145.9,132.6c0-1.2,0-2.5,0-4-.5-6.3-3.5-16-14.7-26.6-9.9-9.4-13.9-17.3-15.5-22.5.2.4.3.7.5,1.1,2.7,5.9,8,14.3,17.6,21.5,10.2,7.6,12.9,15.6,13.4,21,.3,3.3-.2,6.6-1.3,9.5Z"/>
      <path class="st1" d="M105,159.2s-5.4-12.9,14.7-25.8c20.1-12.9,9-28.2,9-28.2,0,0,19.5,17.3-.7,36.3-20.2,19-19.4,19.8-16.8,30.8,0,0-15-8.9-10.3-26.4,0,0-1.1,9.8,4,13.2Z"/>
      <path class="st1" d="M109.3,169.4c-1.2-1.1-2.7-2.5-4-4.4-1.6-2.2-2.7-4.7-3.4-7.2.6,1,1.4,1.8,2.4,2.5l3.4,2.3-1.6-3.8s-1.2-3,0-7.5c1.5-5.9,6.5-11.7,14.3-16.8,7-4.5,11.2-9.8,12.3-15.8.4-2.3.4-4.4,0-6.3,1.7,2.9,3.2,6.6,3.2,10.8,0,6.1-2.9,12-8.8,17.6-9.8,9.2-14.9,14.4-17.1,18.4-1.9,3.6-1.7,6.4-.9,10.3Z"/>
      <path class="st1" d="M123.2,103.3c14.1,18.1-5.2,25.5-5.2,25.5,0,0,6.9-11.2-2.3-26.5-9.2-15.3-4-26.5-4-26.5,0,0-2.6,9.5,11.5,27.6Z"/>
      <path class="st1" d="M120.5,126c.4-1.2.8-2.8,1-4.7.5-4.5.2-11.6-4.8-19.8-4-6.7-5.1-12.6-5.3-16.7,1.4,4.7,4.5,11.1,10.8,19.2,4.2,5.3,5.7,10.2,4.5,14.3-1,3.7-4,6.2-6.3,7.7Z"/>
    </g>
  </g>
</svg>