<?xml version="1.0" encoding="UTF-8"?>
<svg id="Layer_1" xmlns="http://www.w3.org/2000/svg" version="1.1" viewBox="0 0 250 250">
  <!-- Generator: Adobe Illustrator 30.3.0, SVG Export Plug-In . SVG Version: 2.1.3 Build 182)  -->
  <defs>
    <style>
      .st0 {
        fill: #f5e1a4;
      }

      .st1 {
        fill: #009a44;
      }

      .st2 {
        fill: #fceb05;
      }
    </style>
  </defs>
  <path class="st2" d="M97.7,208.1c-.3-.1-.5-.2-.8-.4-.1,0-.2-.1-.3-.2.4.2.7.3.7.3l.5.2Z"/>
  <path class="st2" d="M53.8,186.8h0,0Z"/>
  <path class="st2" d="M97.2,207.8s-.3-.1-.7-.3c.1,0,.2.1.3.2.3.1.5.3.8.4l-.5-.2Z"/>
  <path class="st2" d="M53.8,186.8h0s0,0,0,0h0ZM61.4,189.6s0,0,0,0c0,.1.1.2.2.3,0-.1-.1-.2-.2-.3Z"/>
  <path class="st2" d="M61.6,189.9c0-.1-.1-.2-.2-.3,0,0,0,0,0,0,0,.1.1.2.2.3Z"/>
  <path class="st1" d="M227.8,121.7c-.6-4.7-1.6-9.3-2.8-13.8-.3.2-.7.4-1,.5,1.2,4.4,2.1,8.9,2.7,13.5.6,4.5.9,9,.9,13.6,0,22.9-7.6,44.1-20.3,61.2h0c-2.3,3.1-4.8,6.1-7.5,8.9-18.7,19.9-45.3,32.4-74.8,32.4s-70.2-20.1-88.1-50.1c-9.2-15.4-14.5-33.3-14.5-52.5s1.5-20,4.3-29.5c-.3-.3-.6-.5-.9-.8-2.2,7.3-3.6,14.8-4.2,22.5,0,.6,0,1.3-.1,1.9,0,.9,0,1.7-.1,2.6,0,.4,0,.9,0,1.3,0,.6,0,1.2,0,1.8v.3c0,.7,0,1.4,0,2,0,.4,0,.7,0,1,0,.6,0,1.1,0,1.7,0,.4,0,.8,0,1.2,0,.4,0,.7,0,1.1,0,.4,0,.8,0,1.1,0,1.1.2,2.2.3,3.3,0,.5.1,1.1.2,1.6,0,.5.1,1,.2,1.5,0,.4.1.8.2,1.2,0,.5.1.9.2,1.4.2,1.4.5,2.7.8,4,.2.9.4,1.8.6,2.7.2.8.4,1.5.6,2.3,0,.3.2.7.3,1,.2.6.4,1.3.5,1.9,0,0,0,.1,0,.1.2.7.4,1.4.6,2.1.1.5.3.9.5,1.4,0,.2.1.5.2.7.2.5.4,1,.5,1.5.2.5.4,1.1.6,1.6,0,.2.1.4.2.6.2.5.4,1.1.6,1.6.2.4.3.9.5,1.3,0,.2.1.4.2.5.3.7.6,1.3.9,2,0,0,0,0,0,0,.3.8.7,1.5,1.1,2.3.4.8.7,1.5,1.1,2.3.3.6.6,1.1.9,1.7.9,1.7,1.8,3.3,2.8,4.9,18.2,29.9,51.2,50,88.7,50s58.8-13.6,77.9-35.3c1.5-1.6,2.8-3.3,4.2-5,13.6-17.5,21.7-39.6,21.7-63.4s-.3-9.3-.9-13.8ZM85.2,39.6c-9.4,3.9-18.1,9.1-26,15.6-10.2,8.4-18.6,18.4-24.8,29.6.9-.8,1.8-1.5,2.7-2.3,6-9.9,13.7-18.9,22.9-26.4,7.3-6,15.3-10.9,23.8-14.6.9-.8,1.8-1.5,2.6-2.3-.4.1-.8.3-1.2.5Z"/>
  <g>
    <path class="st1" d="M225.4,98.1c-.6,1.2-1.5,2.2-2.5,3-.3.3-.6.5-1,.7-2.2,1.4-5,1.8-7.9,1.2-4.2-.9-7.9-2.9-11.1-5.8-23.8-21.3-47.6-42.7-71.4-64.1-.3-.2-.5-.5-.8-.7-.2-.2-.4-.3-.6-.5-.4-.3-.7-.6-1.2-1-.4.3-.8.6-1.1,1-.4.4-.9.7-1.3,1.1t0,0c-25.7,21.7-51.4,43.5-77.1,65.2-1.2,1-2.5,2-3.8,2.9-6.5,4.1-11.1,3.6-16.2-1.9l-.4-.3.3-.2h0s0,0,0,0c.1-.1.3-.2.4-.4h0c6.3-5.5,12.6-11,18.9-16.5,17.3-15.2,34.6-30.5,51.9-45.7.6-.5,1.2-1.1,1.8-1.6,8.3-7.3,16.7-14.7,25-22,.5-.5,1.1-.9,1.7-1.4,9.7,8.8,19.4,17.6,29.2,26.4.7.7,1.5,1.3,2.2,2,5.3,4.8,10.6,9.6,15.9,14.4,8.7,7.9,17.3,15.7,26,23.6h0c5.1,4.6,10.1,9.2,15.2,13.8.7.6,1.5,1.3,2.2,2,1.9,1.8,3.9,3.5,5.8,5.3Z"/>
    <path class="st1" d="M195.3,103.1c-18.4-16.3-36.7-32.6-55-48.9-4-3.5-7.9-7-11.9-10.6-.4.3-.7.5-1,.8-23.5,19.7-46.9,39.3-70.3,59-.6.5-1.1,1.7-1.1,2.6,0,9.9,0,19.8,0,29.7,12.8,15.4,30.8,32.1,53.6,40.3,0-10.7,0-21.4.1-32.1,0-4.2,1.7-6.3,5.6-6.4,7-.2,14.1-.2,21.1,0,4.9.2,6.8,2.5,6.8,7.4,0,12,0,24.1,0,36.1.6,0,1.3,0,1.9-.1,1.1,0,2.1-.2,3.2-.2,4.1-.4,8.2-.9,12.2-1.6,2.4-1.8,4.6-3.9,6.4-6.3,2.2-2.9,3.9-6.1,5-9.5.2-.6.4-1.2.5-1.9.5-1.8,1.8-3.3,3.6-3.9,0,0,0,0,0,0h0c.7-.3,1.4-.4,2.1-.4,1.2,0,2.4.4,3.4,1.1,2.4,1.8,6.4,5.9,6.5,13.5.4-.1.7-.3,1.1-.4,2.3-.9,4.5-1.9,6.7-2.9.3-.2.7-.3,1-.4,0-20.6,0-41.2,0-61.8,0-1.3-.4-2.2-1.4-3.1ZM122.5,71.6c.5-.2,1,0,1.5.3.7.6,1.4,1.3,2.1,2,.3.3.6.6.9.9.3.3.7.6,1.2.6.6,0,1-.2,1.4-.6.8-.8,1.6-1.5,2.4-2.3.3-.3.6-.6,1-.9.4-.3.9-.4,1.3-.2.7.2,1.2,1,1.1,1.6,0,.4-.3.7-.5,1-.8.8-1.7,1.6-2.5,2.4-.4.4-.9.8-1.3,1.2-.5.5-1.2.8-1.9.8-.3,0-.6,0-.8,0-1.5,0-2.7-.5-3.7-1.5-.9-1-1.8-1.9-2.8-2.9,0,0,0,0,0,0-.8-.9-.5-2.2.7-2.6ZM114.1,86c-.3.2-.6.4-1,.6-.9.5-1.7.3-2.3-.6-.5-.8-.8-1.7-1.1-2.7,0-.4-.1-.8-.1-1.2,0-.6,0-1.4.1-2.1,0-.1,0-.3.1-.4.4-1.1,1.4-1.4,2.4-.8.4.2.7.6,1.1.9.5.5,1,1,1.5,1.6.4.6.8,1.2.9,1.9,0,.6,0,1.2-.4,1.7-.3.5-.8.9-1.2,1.3ZM117.5,92c-.3.1-.5.2-.8.2-1.2,0-2-1.3-1.5-2.4.2-.3.4-.6.7-.9,1.3-1.3,2.6-2.6,3.9-3.9.2-.2.4-.5.6-.7.3-.5.3-1.1,0-1.6-.2-.3-.4-.6-.7-.8-1.9-1.9-3.7-3.7-5.6-5.6-.3-.3-.5-.6-.6-.9-.4-.9.2-2.2,1.2-2.3.4,0,.7,0,1,.3.5.3.9.7,1.3,1.1,2.1,2,4.1,4,6.1,6.2.5.5.7,1.2.9,1.9.3,1.4,0,2.6-.8,3.8-.3.5-.9.9-1.3,1.4-1.2,1.2-2.4,2.4-3.6,3.6-.3.2-.5.5-.8.7ZM131.9,100.8c-.6.8-1.4,1.5-2.1,2.1-.4.4-.8.6-1.4.7-.2,0-.3,0-.4,0-1.3-.7-2.3-1.7-3.1-2.9-.1-.2-.2-.3-.3-.5-.1-.2-.2-.4-.2-.7,0-.1,0-.3.2-.5,0-.2.2-.4.4-.5.8-.8,1.5-1.5,2.3-2.3.9-.7,1.4-.8,2.3,0,.8.7,1.6,1.5,2.4,2.4.7.8.7,1.3,0,2.1ZM134.8,96.5c-.4-.2-.7-.6-1.1-.9-1.3-1.2-2.5-2.5-3.8-3.7-.2-.2-.5-.5-.8-.6-.5-.3-1-.2-1.5,0-.3.2-.6.5-.9.7-.9.9-1.9,1.8-2.8,2.7-.6.6-1.3,1.2-2.1,1.6-.3.1-.6.3-.9.2-.6-.1-1-.6-1.2-1.1-.2-.5,0-1,.4-1.4.8-.8,1.6-1.6,2.4-2.4,1-1,2-1.9,3-2.9.6-.6,1.4-.9,2.4-.9.4,0,.9,0,1.4,0,1,.2,1.8.7,2.5,1.4,1.5,1.5,3,3,4.5,4.5.4.4.7.8.7,1.4,0,1.1-1.3,1.9-2.3,1.4ZM141.8,91.1c-.2.4-.5.8-1,1-.2,0-.4.1-.5.1-.5,0-.8-.2-1.1-.5-.9-.9-1.8-1.8-2.8-2.6-.9-.8-1.7-1.7-2.5-2.6-.6-.7-1-1.6-1-2.6-.1-1.5.4-2.7,1.4-3.7,1.4-1.4,2.8-2.8,4.2-4.3.7-.7,1.5-1.5,2.2-2.2.2-.2.5-.4.8-.5,1.1-.5,1.9.4,2.1,1.2,0,.4,0,.9-.2,1.2-.2.3-.4.6-.7.9-1.6,1.6-3.2,3.2-4.7,4.8-.4.4-.7.8-1,1.2-.6.9-.5,1.7.2,2.6.5.6,1.1,1.1,1.7,1.6,1,.8,1.8,1.7,2.7,2.6.2.2.3.4.4.6.2.4.2.8,0,1.2ZM146,86.2c-.6.9-1.6.9-2.4.2-.5-.5-1.1-.9-1.6-1.3-.3-.2-.6-.5-.8-.8-.3-.5-.4-1-.2-1.5.3-1,1-1.8,1.8-2.5.7-.6,1.4-1.1,2.2-1.6.2-.1.4-.2.6-.2.5,0,.9.2,1,.7.2.7.4,1.5.5,2.2,0,.4,0,.8.1,1.3-.1,1.3-.5,2.5-1.3,3.6Z"/>
    <path class="st1" d="M202.2,30.7v39.6c-4.4-3.7-8.6-7.3-12.8-10.8-.2-.2-.4-.3-.6-.5-1.9-1.7-4.5-3-5.5-5.1-.4-.9-.5-2-.5-3.1s0-.3,0-.4c0-.3,0-.6,0-.9,0-1,.2-2.1.2-3.1,0-5.1,0-10.3,0-15.6h19.2Z"/>
  </g>
  <path class="st0" d="M207.5,192.1c0,1.2,0,2.4-.1,3.5,0,.4,0,.8,0,1.1h0c0,.7-.1,1.5-.2,2.2-1.3,1.7-2.7,3.4-4.2,5-1,.6-2,1.2-3.1,1.7-4.1,2.2-8.4,4.1-12.9,5.8-.4.1-.8.3-1.1.4-.4.1-.8.3-1.3.4-3.2,1.1-6.6,2.1-10,3-5.6,1.4-11.4,2.4-17.4,2.9-4.5.4-9.1.6-13.8.5-1.3,0-2.6,0-4-.1,0,0,0,0,0,0h0c0,0-.1,0-.2,0-14.9-.7-28.9-4.1-41.4-9.4l-.5-.2s-.3-.1-.7-.3c0,0-.1,0-.2-.1,0,0-.2,0-.3-.1-.3-.1-.6-.3-.9-.4-.1,0-.2-.1-.4-.2-.3-.1-.7-.3-1-.5-.1,0-.3-.1-.4-.2s-.1,0-.2-.1c-1.4-.7-2.7-1.4-4.1-2.1-2.5-1.3-4.8-2.8-7.1-4.3,0,0,0,0,0,0-.7-.5-1.3-1.1-1.7-1.6-.1-.5-.3-1.1-.5-1.6,0,0,0-.2,0-.2-.1-.5-.3-1-.4-1.5-.1-.6-.3-1.1-.4-1.7-.1-.6-.2-1.2-.3-1.8-.4-1.9-.6-3.9-.9-5.8-.3-2.8-.4-5.6-.4-8.4s0-1.3,0-2c-2.3-1.1-4.6-2.2-6.7-3.4-.1,1.8-.2,3.6-.2,5.4s0,3.4.2,5c.1,1.9.3,3.9.6,5.8.2,1.5.4,3,.7,4.5-.5-.4-1-.9-1.5-1.3h-.1c-1-1-2-1.9-2.9-2.9-1.8-1.8-3.5-3.6-5.1-5.5-3.1-3.7-5.9-7.6-8.2-11.7-.7-1.2-1.3-2.3-1.9-3.5,0-.2-.1-.3-.2-.5,0-.1-.1-.2-.1-.3l-.2-.4c-.4.4-.9.9-1.3,1.3-.7.7-1.3,1.4-1.9,2.1-.2.2-.4.5-.6.7-.8,1-1.6,2-2.4,3-.4.5-.9,1.2-1.4,1.8-.4.5-.7,1-1.1,1.5-.3.5-.6.9-.9,1.3-.9,1.3-1.7,2.6-2.5,4-1,1.7-2,3.5-2.8,5.3-.2.4-.4.8-.6,1.2,0,0,0,0,0,0-1-1.6-1.9-3.3-2.8-4.9-.3-.6-.6-1.1-.9-1.7-.4-.7-.8-1.5-1.1-2.3-.4-.8-.7-1.5-1.1-2.3,0,0,0,0,0,0-.3-.6-.6-1.3-.9-2,0-.2-.2-.4-.2-.5-.2-.4-.4-.8-.5-1.3-.2-.5-.4-1.1-.6-1.6,0-.2-.2-.4-.2-.6-.2-.5-.4-1.1-.6-1.6-.2-.5-.4-1-.5-1.5,0-.2-.2-.5-.2-.7-.2-.5-.3-.9-.5-1.4-.2-.7-.4-1.4-.6-2.1,0,0,0,0,0-.1-.2-.6-.4-1.3-.5-1.9-.1-.3-.2-.6-.3-1-.2-.8-.4-1.5-.6-2.3-.2-.9-.4-1.8-.6-2.7-.3-1.3-.5-2.7-.8-4,0-.5-.2-.9-.2-1.4-.1-.9-.3-1.8-.4-2.7,0-.5-.1-1.1-.2-1.6-.1-1.1-.2-2.2-.3-3.3,0-.4,0-.7,0-1.1,0-.4,0-.7,0-1.1,0-.4,0-.8,0-1.2,0-.6,0-1.1,0-1.7,0-.4,0-.7,0-1,0-.7,0-1.4,0-2v-.3c0-.6,0-1.2,0-1.8,0-.4,0-.9,0-1.3,0-.9,0-1.7.1-2.6,0-.6,0-1.3.1-1.9.6-8.8,2.4-17.4,5.1-25.4h0s0,0,0,0c0,0,0,0,0,.1,1,2.7,2.4,5.5,3.9,8.4.9,1.6,1.9,3.3,3,5h0c.5.8,1,1.6,1.6,2.4.5.7,1,1.4,1.5,2.2.3.5.7.9,1.1,1.4.1.2.3.4.4.6,0,0,0,0,0,0,16.5,24.9,50.2,64.1,98.6,65.3.7,0,1.4,0,2.1,0h.2c.4,0,.8,0,1.1,0,1.9,0,3.7-.1,5.6-.3,1.1,0,2.2-.2,3.3-.3,4.8-.4,9.5-1,14.1-1.8h0c3.4-2.3,6.3-5.1,8.8-8.3,2.6-3.4,4.6-7.2,5.9-11.3.2-.7.5-1.5.6-2.3q0,0,.1,0c1.9,1.4,4.4,4.3,4.2,9.6-.5.9-1,1.7-1.6,2.6-1.7,2.5-3.7,4.7-5.9,6.7-.2.2-.4.4-.6.5.3,0,.5-.1.8-.2,5.7-1.5,11.1-3.3,16.3-5.4,2.4-1,4.8-2,7-3,.3.3.5.5.7.8,1.1,1.1,2,2.3,3,3.6h0c-.1.3-5.3,3.3-7.8,4.4-3.4,1.5-6.8,3-10.4,4.3-1.1.4-2.3.8-3.5,1.2-1,.3-1.5,1.4-1.1,2.4.1.3.2.5.4.8,0,.2.2.4.3.6.4.9,1.3,1.3,2.2,1,1.9-.7,3.8-1.4,5.7-2.1,2.9-1.2,5.8-2.4,8.6-3.8,2.9-1.4,5.7-2.9,8.4-4.4.7,1.4,1.3,2.8,1.9,4.3,0,.1,0,.2-.1.3-2.2,1.4-4.5,2.7-6.9,3.9-3.4,1.8-11.1,5.1-11.2,5.2-1.5.6-3,1.3-4.6,1.8-.9.3-1.4,1.3-1.1,2.2,0,0,0,0,0,0,.3.6.7,1.4,2.3,1.2,3-1.1,5.9-2.3,8.8-3.5,1.5-.7,3-1.4,4.5-2.1,1.5-.7,2.9-1.4,4.3-2.2,1.4-.7,2.7-1.5,4-2.2Z"/>
  <path class="st1" d="M199.8,205.6c-4.1,2.2-8.4,4.1-12.9,5.8,0,0-1.1.6-1.1.4-.4.1-.8.3-1.3.4-3.2,1.1-6.6,2.1-10,3-5.6,1.4-11.4,2.4-17.4,2.9-4.5.4-9.1.6-13.8.5-1.3,0-2.6,0-4-.1,0,0-.1,0-.2,0-14.9-.7-28.9-4.1-41.4-9.4-.3-.1-.5-.2-.8-.4-1-.5-2.1-.9-3.1-1.4-.1,0-.3-.1-.4-.2s-.1,0-.2-.1c-1.4-.7-2.7-1.4-4.1-2.1-2.5-1.3-4.8-2.8-7.1-4.3,0,0,0,0,0,0-.7-.5-1.3-1.1-1.7-1.6-.1-.5-.3-1.1-.5-1.6,0,0,0-.2,0-.2-.1-.5-.3-1-.4-1.5-.1-.6-.3-1.1-.4-1.7-.1-.6-.2-1.2-.3-1.8-.4-1.9-.6-3.9-.9-5.8-.3-2.8-.4-5.6-.4-8.4s0-1.3,0-2c-2.3-1.1-4.6-2.2-6.7-3.4-.1,1.8-.2,3.6-.2,5.4s0,3.4.2,5c.1,1.9.3,3.9.6,5.8.2,1.5.4,3,.7,4.5,0,0,0,0,0,.1-.5-.5-1-1-1.5-1.5h0s-.1-.1-.1-.1c-1-.9-2-1.8-2.9-2.8-1.8-1.8-3.5-3.6-5.1-5.5-3.1-3.7-5.9-7.6-8.2-11.7-.7-1.2-1.3-2.3-1.9-3.5,0-.2-.1-.3-.2-.5,0-.1-.1-.2-.1-.3l-.2-.4c-.4.4-.9.9-1.3,1.3-.7.7-1.3,1.4-1.9,2.1.4,1,.9,1.9,1.4,2.9,2.5,4.9,5.4,9.5,8.8,13.9h0s0,0,0,0c0,0,0,0,.1.1.4.5,1.3,1.6,2.2,3.1,0,0,0,0,0,0,0,.1.1.2.2.3,0,.1.1.2.2.4.3.6.6,1.2.8,1.8h0c.1.3.3.6.4,1,.5,1.2,0,2.4-1.2,2.6,0,0,0,0-.1,0h0c-.2,0-.5,0-.8-.2,0,0,0,0,0,0-1-.6-2.1-1.9-2.2-2.1,0,0,0,0,0,0h0c-1.7-2.1-4-5.4-4.6-6.2,0,0,0-.1-.1-.2h0c-1.6-2.3-3.1-4.7-4.5-7.2h0c0-.1-2.6-5-2.6-5l-.7-1.3c-.4.5-.9,1.2-1.4,1.8-.4.5-.7,1-1.1,1.5-.3.5-.6.9-.9,1.3,2.7,5.2,5.9,10.1,9.5,14.7.2.2.6.7,1.1,1.4.3.4.7.8,1,1.2,0,0,0,0,0,.1,1.4,1.8,3,3.8,3.2,4.5h0c0,0,.1.2.2.3.8,1.4-.7,3.1-2.2,2.4-.1,0-.3-.1-.4-.2,0,0-.2-.1-.2-.2-1.8-1.3-4.5-4.7-7.1-8.5-2.8-3.7-5.4-7.6-7.6-11.7-1,1.7-2,3.5-2.8,5.3-.2.4-.4.8-.6,1.2,18.2,29.9,51.2,50,88.7,50s58.8-13.6,77.9-35.3c-1,.6-2,1.2-3.1,1.7ZM60.5,205.9s0,0,0,0c0,0,0,0-.1-.1,0,0,0,0,0,0,0,0,.1,0,.2.1Z"/>
</svg>