<?xml version="1.0" encoding="UTF-8"?>
<svg id="Layer_1" xmlns="http://www.w3.org/2000/svg" version="1.1" viewBox="0 0 250 250">
  <!-- Generator: Adobe Illustrator 30.3.0, SVG Export Plug-In . SVG Version: 2.1.3 Build 182)  -->
  <defs>
    <style>
      .st0 {
        fill: #e4002b;
      }
    </style>
  </defs>
  <path class="st0" d="M158.5,200.8c-12.1,1-23.7-.8-34.8-4.4-8.2-2.7-15.5-6.2-23-9.6-5.5-2.5-11.1-4.9-17.3-6.8-8.3-2.5-16.5-3.1-24.4-1.9-.4,0-.8.1-1.1.2,1.1,1.7,2.2,3.4,3.3,5,.6,0,1.1-.1,1.7-.2,5-.4,10,.1,15,1.2,8.3,1.8,14.9,5.1,21.2,8.8,5.2,3,10.3,6.1,15.7,9,5.1,2.7,11.1,4.4,17.9,5-3.7.9-7.4,1.1-11.3.8-9.6-.7-17.5-3.6-24.9-7.1-5.2-2.5-10.3-5.1-15.6-7.6-4.1-1.9-8.6-3.5-13.5-4.3-.9-.2-1.8-.3-2.8-.4,14.9,20.3,34.1,37.6,57.9,51.4.7.4,1.4.8,2.1,1.2,0,0,.2.1.3.2.3-.1.5-.3.8-.4.2,0,.4-.2.5-.3,0,0,0,0,.1,0,20.8-12,38.2-26.6,52.2-43.5-3.9,1.3-8,2.3-12.4,3.1-2.6.4-5.2.8-7.7,1Z"/>
  <path class="st0" d="M132.4,175.4c18.5,1.1,37.3-.7,54.5-7.5,5.3-2.1,10.3-4.6,15.1-7.5,5.1-10.5,9.4-21.5,12.7-33.1,0-.1,0-.3.1-.4,7.1-24.8,10.1-52.1,9.2-81.3-.5-.3-1-.3-1.5-.3-1.6-.1-3.3-.2-4.9-.3-6.3-.4-12.6-1.2-18.9-2.3-10.5-1.9-20.7-4.7-30.6-8.5-15.4-6-29.7-14-42.3-24.7-.3-.2-.5-.4-.8-.6-.4.3-.8.6-1.2.9-3.8,3.2-7.8,6.2-12,9-13.3,8.8-27.7,15.4-43,19.8-9.4,2.7-18.9,4.6-28.6,5.8-4.2.5-8.4.9-12.6,1-.6,0-1.2,0-1.7.3-.9,30.4,2.4,58.7,10.1,84.4,0,.2,0,.3.2.5,4.3,14.2,10,27.7,17.1,40.2.1,0,.3-.1.4-.2,1.3-.4,2.6-.8,4-1.2,10.9-3,22.2-2.8,33.4-.6,10.1,1.9,18.9,5.3,27.6,8.8,6.3,2.6,12.6,5.1,19.1,7.4,10.7,3.7,22,4.1,33.5,1.9.6-.1,1.2-.2,1.8-.4,6.3-1.3,12-3.3,17.2-5.7,2.1-3.1,4-6.3,5.9-9.6-19.2,10.8-43.6,12.9-63.9,4.2ZM135.4,161.5c-.2.3-.4.6-.8.8-.1,0-.3.1-.4.1-.4,0-.6-.2-.9-.4-.7-.7-1.4-1.4-2.2-2.1-.7-.7-1.4-1.3-2-2.1-.5-.6-.8-1.2-.8-2,0-1.1.3-2.1,1.1-2.9,1.1-1.1,2.2-2.2,3.3-3.3.6-.6,1.2-1.1,1.7-1.7.2-.2.4-.3.6-.4.8-.4,1.5.3,1.6.9,0,.4,0,.7-.2,1-.2.3-.3.5-.6.7-1.2,1.3-2.5,2.5-3.7,3.8-.3.3-.6.6-.8,1-.5.7-.4,1.3.1,2,.4.5.9.8,1.3,1.2.8.6,1.4,1.3,2.1,2.1.1.1.2.3.3.5.1.3.2.6,0,.9ZM128.1,150.2c-.3.3-.7.6-1,1-.4.4-.9.6-1.5.7-.2,0-.5,0-.6,0-1.2,0-2.1-.4-2.9-1.2-.7-.8-1.4-1.5-2.2-2.3,0,0,0,0,0,0-.6-.7-.4-1.7.5-2,.4-.2.8,0,1.1.2.6.5,1.1,1,1.6,1.6.2.2.4.5.7.7.3.2.5.5.9.5.4,0,.8-.2,1.1-.5.6-.6,1.3-1.2,1.9-1.8.3-.2.5-.5.8-.7.3-.2.7-.3,1-.2.5.2.9.8.9,1.3,0,.3-.2.6-.4.8-.6.6-1.3,1.3-2,1.9ZM138.7,157.7c-.5.7-1.2.7-1.8.1-.4-.4-.8-.7-1.2-1-.2-.2-.5-.4-.6-.7-.3-.4-.3-.7-.2-1.2.3-.8.8-1.4,1.4-2,.5-.5,1.1-.9,1.7-1.3.1,0,.3-.2.5-.2.4,0,.7.1.8.6.2.6.3,1.2.4,1.7,0,.3,0,.6.1,1,0,1-.4,2-1,2.8ZM99.8,154.6l-3.9-12.2,15.4-25.1-18.2,25.1,4.4,11.7c-1.1-.3-2.2-.5-3.4-.7-6.6-1.3-13.1-1.9-19.2-1.9s-6.9.2-10.3.6l35.5-61.7-42.8,57.7v5.2c-1.3.3-2.6.6-3.9,1-.4.1-.7.2-1.1.3l.2-15.8,4.7-2.2v5.7c35.7-39.7,66-107,66-107l-4-8.3,3.3-1.7,2.4,5.2,2.4-5.2,3.3,1.7-4,8.3s30.3,67.2,66,107v-5.7l4.7,2.2v6.3c-1.6,1.1-3.2,2.1-4.8,3l-42.7-57.6,35.4,61.4c-1.3.6-2.6,1.1-3.9,1.7-9.2,3.6-19.6,5.7-30.9,6.4l6.6-17.5-18.2-25.1,15.4,25.1-5.6,17.5c0,0-.1,0-.2,0l-23.3-60-21.6,55.6c-1.2-.3-2.4-.6-3.6-.9ZM113.8,157.6c-.2.2-.5.3-.8.5-.7.4-1.4.2-1.8-.5-.4-.6-.7-1.4-.8-2.1,0-.3,0-.6-.1-1,0-.5,0-1.1,0-1.6,0-.1,0-.2,0-.3.3-.8,1.1-1.1,1.9-.7.3.2.6.4.8.7.4.4.8.8,1.1,1.2.3.4.6.9.7,1.5,0,.5,0,.9-.3,1.3-.2.4-.6.7-1,1ZM116.4,162.2c-.2.1-.4.2-.6.2-.9,0-1.6-1.1-1.1-1.9.1-.3.4-.5.6-.7,1-1,2-2.1,3.1-3,.2-.2.3-.4.5-.6.2-.4.2-.8,0-1.3-.1-.2-.3-.4-.5-.6-1.5-1.5-2.9-2.9-4.4-4.4-.2-.2-.4-.4-.5-.7-.3-.7.2-1.7,1-1.8.3,0,.5,0,.8.2.4.2.7.6,1,.9,1.7,1.5,3.2,3.2,4.8,4.8.4.4.5.9.7,1.5.2,1.1,0,2.1-.6,3-.3.4-.7.7-1,1.1-.9.9-1.9,1.9-2.9,2.8-.2.2-.4.4-.6.5ZM127.7,169.1c-.5.6-1.1,1.1-1.6,1.7-.3.3-.7.5-1.1.6-.1,0-.2,0-.3,0-1-.6-1.8-1.3-2.4-2.2,0-.1-.2-.3-.3-.4,0-.2-.1-.3-.1-.5,0-.1,0-.3.1-.4,0-.1.2-.3.3-.4.6-.6,1.2-1.2,1.8-1.8.7-.6,1.1-.6,1.8,0,.7.6,1.3,1.2,1.8,1.9.5.6.5,1.1,0,1.7ZM130,165.7c-.3-.2-.6-.4-.8-.7-1-1-2-2-2.9-2.9-.2-.2-.4-.4-.6-.5-.4-.2-.8-.2-1.2,0-.3.1-.5.4-.7.6-.7.7-1.5,1.4-2.2,2.1-.5.5-1,.9-1.6,1.2-.2.1-.5.2-.7.2-.5,0-.8-.4-.9-.9-.2-.4,0-.8.3-1.1.6-.6,1.3-1.3,1.9-1.9.8-.8,1.6-1.5,2.3-2.3.5-.5,1.1-.7,1.9-.7.3,0,.7,0,1.1,0,.8.1,1.4.5,1.9,1.1,1.2,1.2,2.4,2.3,3.5,3.5.3.3.6.6.6,1.1,0,.9-1,1.5-1.8,1.1Z"/>
  <path class="st0" d="M28.7,191.1c.4-.3.9-.6,1.3-.8,5.3-3.5,11-6.7,17.6-9.2,3.4-1.3,6.8-2.2,10.2-2.8-1.6-2.5-3.1-5-4.6-7.6-12.8,4.5-19.9,11.9-24.6,20.4Z"/>
  <path class="st0" d="M198.4,186.5c6.7-5.1,11.4-10.9,15.4-16.9.5-.8,2-3.3,2-3.3l-.6.3-1,.6h0c0,0,0,0-.1.1-.4.2-.7.4-1.1.7h0c-4.2,2.6-8.4,5.3-12.8,7.8-3.1,1.8-6.3,3.5-9.7,5-3.6,5.5-7.6,10.8-11.8,16,7.6-2.5,14.2-6,19.8-10.2Z"/>
  <path class="st0" d="M55.3,184.4c-4.4,1.2-7.6,3.3-8.8,6.2-.5,1.2-.4,2.4,1,3.5.5-2.8,2.3-4.3,6.5-5.4,3.2-.8,6.5-.8,9.8-.5.3,0,.6,0,.9.1-1.2-1.7-2.4-3.4-3.6-5.1-2,.2-3.9.6-5.9,1.1Z"/>
  <path class="st0" d="M204.8,165.6c6.7-5.3,12.4-11.7,16.4-19-6.2,5.2-12.5,9.9-19.2,13.9-1.8,3.6-3.7,7.2-5.7,10.7,3-1.7,5.8-3.5,8.5-5.6Z"/>
</svg>