<?xml version="1.0" encoding="UTF-8"?>
<svg id="Layer_1" xmlns="http://www.w3.org/2000/svg" version="1.1" viewBox="0 0 250 250">
  <!-- Generator: Adobe Illustrator 30.3.0, SVG Export Plug-In . SVG Version: 2.1.3 Build 182)  -->
  <defs>
    <style>
      .st0 {
        fill: #016fb6;
      }

      .st1 {
        fill: #1bb9ad;
      }
    </style>
  </defs>
  <g>
    <path class="st0" d="M87.1,145.9c-.7,1.1-1.7,1.9-2.9,2.6-1.3.7-2.8,1-4.6,1h-4l-1.6,9.6h-3.6l3.9-23.7h7.6c2.2,0,3.9.5,5,1.6,1.1,1.1,1.7,2.4,1.7,4.1s0,.7-.1,1.3c-.2,1.2-.6,2.3-1.3,3.4ZM83.3,145.4c.8-.7,1.3-1.7,1.5-2.9,0-.3,0-.7,0-1,0-1-.3-1.7-.9-2.2-.6-.5-1.5-.8-2.6-.8h-4l-1.3,8h4c1.4,0,2.4-.4,3.2-1.1Z"/>
    <path class="st0" d="M97.8,141c1-.6,2.1-1,3.3-1l-.7,4h-.9c-1.4,0-2.5.4-3.3,1.1-.8.7-1.4,2-1.8,3.9l-1.6,10.1h-3.6l3.1-18.8h3.6l-.5,3.3c.7-1.1,1.6-2,2.5-2.7Z"/>
    <path class="st0" d="M105,158.4c-1.1-.7-2-1.6-2.6-2.8-.6-1.2-.9-2.6-.9-4.1s.5-4,1.4-5.8c.9-1.7,2.2-3.1,3.8-4.2,1.6-1,3.4-1.5,5.4-1.5s2.8.3,3.9,1c1.1.7,2,1.6,2.7,2.8.6,1.2,1,2.6,1,4.1s-.5,4-1.4,5.8c-.9,1.7-2.2,3.1-3.8,4.1-1.6,1-3.4,1.5-5.4,1.5s-2.8-.3-3.9-1ZM112.6,155c1-.7,1.8-1.7,2.3-2.9.6-1.2.9-2.5.9-3.9s-.4-2.8-1.2-3.6c-.8-.9-1.9-1.3-3.1-1.3s-2.3.4-3.3,1.1c-1,.7-1.7,1.7-2.2,3-.5,1.2-.8,2.6-.8,4s.4,2.7,1.2,3.5c.8.8,1.8,1.3,3,1.3s2.3-.4,3.3-1.1Z"/>
    <path class="st0" d="M124.4,162.8c-.3,1.8-.9,3.2-1.9,4-1,.8-2.3,1.2-3.9,1.2h-1.9l.5-3.3h1.2c.7,0,1.3-.2,1.6-.5.4-.3.6-.8.7-1.5l3.7-22.5h3.6l-3.7,22.5ZM125.3,137.3c-.4-.4-.5-.9-.5-1.5s.3-1.5.8-2.1c.6-.6,1.2-.9,1.9-.9s1,.2,1.4.6c.3.4.5.9.5,1.5s-.3,1.5-.8,2.1-1.2.9-1.9.9-1-.2-1.4-.6Z"/>
    <path class="st0" d="M145.5,142c1.3,1.3,1.9,3.1,1.9,5.3s0,1.1-.2,1.9c0,.5-.2,1.1-.4,1.8h-13.3c0,.2,0,.4,0,.7,0,1.3.4,2.4,1.2,3.2.8.8,1.8,1.2,3,1.2,2,0,3.5-.9,4.5-2.6h3.9c-.8,1.7-2,3.1-3.5,4.2-1.6,1.1-3.4,1.7-5.4,1.7s-2.7-.3-3.8-.9c-1.1-.6-1.9-1.5-2.6-2.6-.6-1.1-.9-2.5-.9-4s0-1.4.2-2.1c.3-1.9,1-3.6,1.9-5.1,1-1.5,2.2-2.6,3.6-3.4,1.4-.8,3-1.2,4.7-1.2s3.9.7,5.2,2ZM143.8,147.3c0-1.2-.4-2.2-1.2-3-.8-.7-1.8-1.1-3-1.1s-2.4.4-3.5,1.3c-1,.9-1.7,2.1-2.1,3.6h9.7c0-.4,0-.7,0-.9Z"/>
    <path class="st0" d="M151.4,144.6c1-1.5,2.1-2.6,3.6-3.4,1.4-.8,3-1.2,4.6-1.2s3.8.5,5,1.6c1.2,1.1,1.9,2.6,2.1,4.6h-3.9c-.2-.9-.6-1.7-1.2-2.2-.6-.5-1.4-.8-2.5-.8s-2.7.6-3.8,1.7c-1.1,1.1-1.7,2.7-2.1,4.7-.1.7-.2,1.3-.2,1.8,0,1.5.3,2.7,1,3.5.7.8,1.7,1.2,2.9,1.2,2.1,0,3.6-1,4.6-3h3.9c-.8,1.9-2,3.4-3.6,4.5-1.6,1.1-3.4,1.7-5.4,1.7s-3.9-.7-5.2-2c-1.3-1.4-1.9-3.2-1.9-5.5s0-1.4.2-2.2c.3-1.9,1-3.6,1.9-5.1Z"/>
    <path class="st0" d="M173.2,153.9c0,.3,0,.5,0,.6,0,.5.1.8.4,1,.3.2.7.3,1.4.3h2.2l-.5,3.2h-2.8c-1.4,0-2.5-.3-3.2-.9-.7-.6-1.1-1.6-1.1-2.9s0-1,.1-1.4l1.7-10.4h-2.1l.5-3.2h2.1l.8-4.7h3.6l-.8,4.7h4.2l-.5,3.2h-4.2l-1.7,10.4Z"/>
  </g>
  <path class="st0" d="M45.3,84.5v41.4h-10.1v-17.1h-15.7v17.1h-10.1v-41.4h10.1v16.2h15.7v-16.2h10.1Z"/>
  <path class="st0" d="M127.4,118.6h-15.5l-2.5,7.3h-10.6l15-41.4h11.7l15,41.4h-10.7l-2.5-7.3ZM124.8,110.9l-5.1-15.2-5.1,15.2h10.2Z"/>
  <path class="st0" d="M155.1,118.2h13.2v7.8h-23.3v-41.4h10.1v33.6Z"/>
  <path class="st0" d="M240.6,84.5v41.4h-10.1v-17.1h-15.7v17.1h-10.1v-41.4h10.1v16.2h15.7v-16.2h10.1Z"/>
  <path class="st0" d="M199,84.5v8.1h-11v33.3h-10.1v-33.3h-11v-8.1h32Z"/>
  <g>
    <g>
      <path class="st1" d="M66.5,91s0,0,0,0c0,.1-.2.2-.3.3-.1.1-.3.3-.4.4-.4.5-.9.9-1.3,1.4-.1.1-.3.3-.4.5-.2.3-.2.6,0,.9.2.2.4.4.6.6,0,0,.1.1.2.2.3.2.5.5.7.7,0,0,0,0,0,0,0,0,.1.1.1.2,0,.1,0,.3,0,.4,0,.2-.2.3-.4.4,0,0-.1,0-.2,0-.1,0-.2,0-.3-.1,0,0,0,0,0,0-.2-.2-.4-.4-.7-.6-.1-.1-.2-.2-.4-.3-.3-.3-.6-.6-.9-1-.2-.3-.4-.6-.4-.9,0-.5.1-1,.5-1.4.5-.5,1-1,1.5-1.6.1-.1.3-.3.4-.4.1-.1.3-.3.4-.4,0,0,.2-.1.3-.2,0,0,0,0,0,0,.4-.1.6.2.7.5,0,.1,0,.3,0,.4Z"/>
      <path class="st1" d="M59.1,95c-.1.2-.3.3-.5.5-.3.3-.6.6-.9.9-.1.1-.3.3-.4.4,0,0-.2.2-.3.2,0,0,0,0,0,0,0,0-.2,0-.3,0-.4,0-.7-.5-.5-.9,0,0,0-.1.1-.2,0,0,0-.1.1-.2.2-.2.4-.4.6-.6.3-.3.6-.6.9-.8,0,0,.2-.2.2-.3.1-.2.1-.4,0-.6,0-.1-.2-.2-.2-.3-.5-.5-1.1-1.1-1.6-1.6-.2-.2-.3-.3-.5-.5,0,0-.2-.2-.2-.3,0,0,0,0,0,0-.1-.3.1-.8.5-.8,0,0,.1,0,.2,0,0,0,.1,0,.2,0,.2.1.3.3.5.4,0,0,0,0,.1.1.7.7,1.4,1.4,2.1,2.1.2.2.3.4.3.7.1.5,0,1-.3,1.4Z"/>
      <path class="st1" d="M64.2,98.2c0,.3-.3.6-.6.6,0,0-.2,0-.3,0-.2,0-.3-.2-.4-.3,0,0-.1-.1-.2-.2-.4-.4-.8-.8-1.2-1.2,0,0-.2-.2-.3-.2-.2,0-.4,0-.6,0-.1,0-.2.2-.3.3-.3.3-.7.7-1,1,0,0-.1.1-.2.2-.2.2-.4.3-.6.4,0,0-.2,0-.3,0s0,0,0,0c-.2,0-.4-.2-.4-.4,0,0,0-.1,0-.2,0-.1,0-.2.2-.3.2-.2.3-.3.5-.5.1-.1.3-.3.4-.4.4-.4.7-.7,1.1-1.1.2-.2.5-.3.9-.3.2,0,.3,0,.5,0,.4,0,.7.2.9.5.4.4.8.8,1.3,1.2.1.1.3.3.4.4.1.1.2.3.3.4,0,0,0,0,0,0Z"/>
      <path class="st1" d="M63.6,90.2s0,0,0,.1c0,.1,0,.2-.2.3-.3.3-.6.6-.9.9-.2.2-.3.3-.5.4-.2.2-.4.3-.7.3-.1,0-.2,0-.3,0-.6,0-1-.2-1.3-.6-.3-.4-.7-.7-1-1.1,0,0,0,0,0,0,0,0-.1-.2-.1-.3,0-.3,0-.6.4-.7.2,0,.4,0,.5.1.3.2.5.5.8.7.1.1.2.2.3.3.1.1.3.2.4.2.2,0,.4,0,.5-.2.3-.3.6-.6.9-.8.1-.1.2-.2.4-.3.2,0,.3-.1.5,0,.3,0,.4.4.4.6Z"/>
      <path class="st1" d="M62.5,100c0,.1,0,.2-.2.4-.2.2-.3.3-.5.5,0,0-.2.2-.3.3-.1.1-.3.2-.5.3,0,0-.1,0-.2,0-.3-.1-.5-.3-.7-.5-.2-.2-.3-.3-.4-.5,0,0,0-.1-.1-.2,0,0,0,0,0,0,0,0,0-.1,0-.2s0-.1,0-.2c0,0,0-.1.1-.2.1-.1.2-.2.4-.4.2-.2.3-.3.5-.5.3-.3.5-.3.8,0,.2.1.3.3.5.4.1.1.3.3.4.4.1.2.2.3.2.4Z"/>
      <path class="st1" d="M56.4,94h0c0,.1,0,.3-.1.4-.1.2-.3.3-.5.5,0,0,0,0,0,0,0,0-.2.1-.3.2-.3.2-.6.1-.8-.2-.2-.3-.3-.6-.4-1,0-.1,0-.3,0-.5,0-.2,0-.5,0-.8,0,0,0-.1,0-.2.1-.4.5-.5.9-.3,0,0,0,0,0,0,.1,0,.2.2.4.3.2.2.4.4.5.6,0,0,0,.1.1.2h0c0,.2.2.3.2.5,0,0,0,.1,0,.2Z"/>
      <path class="st1" d="M67.9,93.6c0,.5-.2.9-.5,1.3-.2.3-.6.3-.9,0,0,0-.2-.2-.3-.2-.1,0-.2-.2-.3-.3-.1,0-.2-.2-.3-.3,0,0,0-.2-.1-.2h0c0-.1,0-.2,0-.3,0-.2.2-.3.3-.5h0c.1-.2.2-.3.4-.4.2-.2.4-.3.6-.5,0,0,.1,0,.2-.1,0,0,.1,0,.2,0,.2,0,.3,0,.4.3,0,.3.1.5.2.8,0,.2,0,.3,0,.5Z"/>
    </g>
    <g>
      <path class="st1" d="M52.5,93.6c0,.6,0,1.2.2,1.9,0,0,0,.1,0,.2-.2-.7-.3-1.4-.2-2.1ZM52.6,92.6c0,0,0,.2,0,.3,0-.2,0-.3.1-.5,0,0,0,.1,0,.2ZM55.1,87.9s0,0,0,0h0s0,0,0,0Z"/>
      <path class="st1" d="M98.2,111.8c-.7-.4-1.7-.3-2.3.7-1.4,2.3-3.8,5.4-6.8,8-3.1,2.5-6.8,4.5-10.9,4.5s-3.8-.7-4.9-2.2c-2.3-3-2-8.4-1-12.3h.1c9.7,0,18.7-6,21.7-11.6,1.6-2.9,1.4-6.7-.4-9.3-1.5-2.2-4-3.2-6.9-2.8-6.1.8-12.4,8.3-17,19.9-1.7-.2-3.8-.7-6-1.5-.8-.3-1.7-.6-2.7-1h-.2c-.6-.3-1-.5-1.1-.6,0,0,0,0,0,0-3.2-1.5-5.6-4-6.6-6.8,0,0,0,0,0,0,0,0,0,0,0-.1,0,0,0,0,0,0,0-.1,0-.3-.2-.5,0,0,0-.1,0-.2,0,0,0-.1,0-.2-.2-.6-.2-1.3-.2-1.9,0,0,0-.2,0-.2,0,0,0-.2,0-.3,0,0,0-.2,0-.3,0,0,0-.2,0-.3.1-.6.3-1.2.6-1.8,0-.2.2-.3.2-.5,0-.1.1-.2.2-.3.6-1,1.2-1.7,1.4-2,0,0,0,0,0,0,0,0,0,0,0,0,0,0,0,0,0,0h0c1-.9,2.4-1.7,4.5-2,.3,0,8.4-.8,9.5,5.5.2.9,1,1.6,1.9,1.6s.2,0,.3,0c1.1-.2,1.8-1.2,1.6-2.3-1.4-7.9-9.6-9.1-13.8-8.6-3.8.5-6.4,2.3-7.9,4.4,0,0,0,0,0,0-.6.7-1,1.5-1.3,2.2,0,.1-.1.3-.2.4-.2.4-.3.9-.5,1.5,0,.4-.2.7-.2,1.1-.2,1.2-.2,2.7,0,4.3h0c0,.3.2,1,.4,1.6,0,0,0,0,0,.1.1.3.2.6.4.9,0,0,0,0,0,0,1.4,3.2,4,5.9,7.5,7.7,2.7,1.5,5.7,2.5,7.9,3h.2c1,.3,2,.5,3,.7-1.2,4.7-1.1,10.8,1.8,14.7,1.8,2.4,4.4,3.7,7.8,3.7,9.1,0,16.9-7.7,20.7-14.2.6-1,.1-2-.6-2.5ZM87.2,90.3c1.7-.1,3,.5,3.8,1.7.9,1.4.8,3.3-.2,5.1-2.4,4.5-9.4,9.2-17.2,9.7,4.1-10,9.1-16.1,13.6-16.4Z"/>
      <path class="st1" d="M49.8,89.1c-.2.4-.3.9-.5,1.5,0-.4.2-.9.5-1.5Z"/>
    </g>
    <path class="st1" d="M49.8,89.1c-.2.4-.3.9-.5,1.5,0-.4.2-.9.5-1.5Z"/>
  </g>
</svg>