<?xml version="1.0" encoding="UTF-8"?>
<svg id="Layer_1" xmlns="http://www.w3.org/2000/svg" version="1.1" viewBox="0 0 250 250">
  <!-- Generator: Adobe Illustrator 30.3.0, SVG Export Plug-In . SVG Version: 2.1.3 Build 182)  -->
  <defs>
    <style>
      .st0 {
        fill: #fff;
      }

      .st1 {
        fill: #eaaa00;
      }

      .st2 {
        fill: #b7b7b7;
      }
    </style>
  </defs>
  <path class="st2" d="M7.3,142.8c.3-.2.7-.3,1.1-.3.6,0,1.2.3,1.6.8,18.5,24,43.7,40.4,73.3,47.6-15.8-15-24.8-35.7-24.8-57.8s.3-8.1.9-12.1c.2-1.3.4-2.6.7-3.9,0,0,0,0,0,0,.2-1.2.5-2.5.8-3.6,8.9-35.5,40.8-60.3,77.5-60.3s31.5,4.7,44.7,13.7c1.5,1,3,2.1,4.4,3.2.7.6,1.4,1.1,2.1,1.7l10.1-6.7c.3-.2.7-.3,1.1-.3s1,.2,1.4.5c.3.3.5.6.6.9.3-.1.6-.2.9-.2s.3,0,.5,0c1,.2,1.6,1.1,1.6,2.1l-1.4,19.6c9.2,13.3,14.1,29,14.1,45.3s-.8,13.2-2.4,19.5c19.8-25.8,19.6-57.9-.9-90.1l-1.5,5.6c-.2.8-1,1.4-1.8,1.5,0,0,0,0-.1,0-.8,0-1.6-.5-1.9-1.3l-3.4-8.7s-9.4.5-9.4.5c-.8,0-1.6-.5-1.9-1.3-.3-.8,0-1.7.6-2.3l7.3-5.9-3.4-8.7c-.3-.8,0-1.7.6-2.3.4-.3.8-.4,1.3-.4s.8.1,1.1.3l7.8,5.1,7.3-5.9c.4-.3.8-.4,1.3-.4s.8.1,1.1.3c.7.5,1.1,1.4.8,2.2l-2.4,9,7.8,5.1c.7.5,1.1,1.4.9,2.2-.2.8-1,1.4-1.8,1.5l-6.5.3c20.5,22.9,29,47.5,24.6,71.5-5,27.3-26.2,51.8-58.1,67.3-13.2,6.4-27.4,10.8-42.1,13-5,.8-10.1,1.3-15.1,1.5-2.3.1-4.7.2-7,.2-5.5,0-10.9-.3-16.3-.9-41.6-4.9-76.4-28.3-98-66-.5-.9-.2-2.1.6-2.7ZM124,95.2c-.3-.1-.6-.3-.9-.4-2.5-1.1-5.1-1.7-7.9-1.7-7.1,0-13.6,3.9-16.9,10.2-.6,1.2-1.2,2.5-1.5,3.8-.5,1.7-.7,3.4-.7,5.1,0,10.6,8.6,19.1,19.1,19.1s19.1-8.6,19.1-19.1-4-13.7-10.4-17ZM147.7,136c-9.6,6.9-20.9,10.5-32.6,10.5h0c-8,0-15.7-1.7-22.9-5-8.1-3.7-16.1-9-24-15.7l31.7,68.1c5.9.7,11.9,1.1,17.8,1.1h0c10.2,0,20.4-1.1,30.3-3.1l47.9-110,2.9-7.2-2.8,5.1c-8.4,14.1-25.8,40.2-48.3,56.2Z"/>
  <path class="st0" d="M6.4,142.2c.3-.2.7-.3,1.1-.3.6,0,1.2.3,1.6.8,18.5,24,43.7,40.4,73.3,47.6-15.8-15-24.8-35.7-24.8-57.8s.3-8.1.9-12.1c.2-1.3.4-2.6.7-3.9,0,0,0,0,0,0,.2-1.2.5-2.5.8-3.6,8.9-35.5,40.8-60.3,77.5-60.3s31.5,4.7,44.7,13.7c1.5,1,3,2.1,4.4,3.2.7.6,1.4,1.1,2.1,1.7l10.1-6.7c.3-.2.7-.3,1.1-.3s1,.2,1.4.5c.3.3.5.6.6.9.3-.1.6-.2.9-.2s.3,0,.5,0c1,.2,1.6,1.1,1.6,2.1l-1.4,19.6c9.2,13.3,14.1,29,14.1,45.3s-.8,13.2-2.4,19.5c19.8-25.8,19.6-57.9-.9-90.1l-1.5,5.6c-.2.8-1,1.4-1.8,1.5,0,0,0,0-.1,0-.8,0-1.6-.5-1.9-1.3l-3.4-8.7s-9.4.5-9.4.5c-.8,0-1.6-.5-1.9-1.3-.3-.8,0-1.7.6-2.3l7.3-5.9-3.4-8.7c-.3-.8,0-1.7.6-2.3.4-.3.8-.4,1.3-.4s.8.1,1.1.3l7.8,5.1,7.3-5.9c.4-.3.8-.4,1.3-.4s.8.1,1.1.3c.7.5,1.1,1.4.8,2.2l-2.4,9,7.8,5.1c.7.5,1.1,1.4.9,2.2-.2.8-1,1.4-1.8,1.5l-6.5.3c20.5,22.9,29,47.5,24.6,71.5-5,27.3-26.2,51.8-58.1,67.3-13.2,6.4-27.4,10.8-42.1,13-5,.8-10.1,1.3-15.1,1.5-2.3.1-4.7.2-7,.2-5.5,0-10.9-.3-16.3-.9-41.6-4.9-76.4-28.3-98-66-.5-.9-.2-2.1.6-2.7ZM123.1,94.7c-.3-.1-.6-.3-.9-.4-2.5-1.1-5.1-1.7-7.9-1.7-7.1,0-13.6,3.9-16.9,10.2-.6,1.2-1.2,2.5-1.5,3.8-.5,1.7-.7,3.4-.7,5.1,0,10.6,8.6,19.1,19.1,19.1s19.1-8.6,19.1-19.1-4-13.7-10.4-17ZM146.8,135.4c-9.6,6.9-20.9,10.5-32.6,10.5h0c-8,0-15.7-1.7-22.9-5-8.1-3.7-16.1-9-24-15.7l31.7,68.1c5.9.7,11.9,1.1,17.8,1.1h0c10.2,0,20.4-1.1,30.3-3.1l47.9-110,2.9-7.2-2.8,5.1c-8.4,14.1-25.8,40.2-48.3,56.2Z"/>
  <path class="st1" d="M7.5,143.9c23.5,41.1,59.6,60.7,96.5,65,7.7.9,15.4,1.1,23,.8,5-.2,10-.7,14.9-1.5,14.7-2.2,28.8-6.7,41.6-12.8,53.6-25.9,83.3-82.6,30-138.8l10.8-.6-9.1-5.9,2.8-10.4-8.4,6.8-9.1-5.9,3.9,10.1-8.4,6.8,10.1-.5h.7s3.9,10,3.9,10l2.6-9.9c28.4,41.4,21.4,78.2-3.2,103.6-15.2,15.7-37.1,27-61.6,32.3-16.3,3.5-33.6,4.4-50.9,2.2-2.7-.3-5.3-.8-8-1.3-30.5-5.7-60.2-21.5-82.2-50Z"/>
  <path d="M62,113.3c8.5-33.8,39.1-58.8,75.5-58.8s31.2,4.9,43.6,13.3c1.5,1,2.9,2.1,4.3,3.2h0c1.1.9,2.2,1.7,3.2,2.6l11.3-7.5-6.6,12c-8.8,14.9-25.9,40-47.8,55.6-15.6,11.2-36.1,13.3-53.5,5.3-8.5-3.9-18.1-10-28.4-19.8-.8-.8-1.6-1.6-2.5-2.4h0c.2-1.2.5-2.4.8-3.6ZM114.4,132.8c11.7,0,21.1-9.5,21.1-21.1s-4.7-15.3-11.5-18.8c-.3-.2-.6-.3-1-.5-2.7-1.2-5.6-1.9-8.7-1.9-8.1,0-15.1,4.6-18.7,11.3-.7,1.3-1.3,2.7-1.7,4.2-.5,1.8-.8,3.7-.8,5.7,0,11.7,9.5,21.1,21.1,21.1Z"/>
  <path class="st1" d="M148.6,193c24.5-5.3,46.4-16.6,61.6-32.3,3.4-8.8,5.3-18.3,5.3-28.2,0-16.6-5.2-32.1-14.1-44.7l1.5-20.3-5.9,14.6-48.4,111Z"/>
  <path d="M59.7,132.4c0,25,11.8,47.2,30,61.5,2.6.5,5.3.9,8,1.3l-35.1-75.4-1.3-2.9c-.3,1.2-.5,2.5-.7,3.8-.6,3.8-.9,7.8-.9,11.8Z"/>
</svg>