<?xml version="1.0" encoding="UTF-8"?>
<svg id="Layer_1" xmlns="http://www.w3.org/2000/svg" version="1.1" viewBox="0 0 250 250">
  <!-- Generator: Adobe Illustrator 30.3.0, SVG Export Plug-In . SVG Version: 2.1.3 Build 182)  -->
  <defs>
    <style>
      .st0 {
        fill: #041e42;
      }
    </style>
  </defs>
  <g>
    <path class="st0" d="M150.4,219.1c-.2,0-.4,0-.6.2-.5.2-1.1.8-1.6,1.9v.3c2.3.4,3.9.3,5.2,0,.4.1.6,0,.5-.4-.8-1.3-1.9-1.9-3.4-1.9Z"/>
    <path class="st0" d="M209.2,182.1l-4.3-15.7c-15.8,28.2-45.9,47.3-80.5,47.3s-64.2-18.7-80.1-46.6l-4.7,17.2h-14.4c20.8,32.8,57.5,54.6,99.2,54.6s80-22.7,100.6-56.8h-15.7ZM167.1,207.1c.9-.4,1.7-.4,2.2,0,.1,0,.3.2.5.4,0,.1,0,.2,0,.4-.6,0-1.1,0-1.7.2-.7.3-1.2.7-1.5,1.3,0,0,0,.1,0,.2,0,0,.1.2.3.4.8.3,1.6.3,2.4,0,.3,0,.5-.2.8-.4.3-.4.7-.9,1.3-1.6,0,0,0,0,0,.1,0,.1,0,.3.1.6,0,.3,0,.4,0,.5,0,.2-.2.3-.3.4-.8,1-1.5,2-2.3,3-.9,1.2-1.5,2.2-2,3.2,0,0-.2,0-.2,0-.1-.3,0-.7.1-1.2.2-.4.3-.8.5-1.2l.5-.9c-.1,0-.2,0-.4,0-.1,0-.3,0-.3,0-.4,0-.8-.3-1-.6-.1-.3-.2-.6-.2-.9,0-.5,0-.8,0-.9,0-1.4.3-2.4,1-2.8ZM111.7,218.1c.6-.6,1.4-1.4,2.4-2.4h.1c.1.2.6.7,1.3,1.4.3.3.7.7,1.1,1.1.5-.6,1.3-1.3,2.2-2.1h.1c.6.9,1.4,1.7,2.4,2.5,0,0,0,0,0,.1l-2.3,2.3s0,0,0,0c0,0-.2,0-.3-.1-.6-.4-1.4-1.2-2.2-2.3h0s-2.1,2.1-2.1,2.1c0,0,0,0,0,0,0,0-.2,0-.3-.1-.6-.4-1.4-1.2-2.2-2.3h0ZM77.7,204.1c0,.3.3.9.6,1.8.2.5.4.9.5,1.4.7-.3,1.7-.6,2.8-1.1h0c.2,1.1.6,2.2,1.2,3.3,0,0,0,0,0,.1l-3.1,1.2s0,0,0,0c0,0-.1-.1-.2-.2-.4-.6-.8-1.6-1.1-3h0s-2.7,1-2.7,1c0,0,0,0,0,0,0,0-.1-.1-.2-.2-.4-.6-.8-1.6-1.1-3h0c.8-.4,1.8-.8,3.2-1.3h0ZM57.9,196.2c-.1,1.2,0,2.4.3,3.8,0,0,0,0,0,.1l-3.6.4s0,0,0,0c0,0,0-.1-.2-.3-.2-.8-.3-2-.3-3.5h.1c.9-.2,2.1-.3,3.7-.5h0ZM63.5,217l-3.3.3s0,0,0,0c0,0,0-.1-.2-.3-.2-.7-.3-1.8-.2-3.2h0s-2.9.3-2.9.3c0,0,0,0,0,0,0,0,0-.1-.2-.3-.2-.7-.3-1.8-.2-3.2h.1c.8-.2,1.9-.3,3.4-.4h0c0,.3,0,1,.1,2,0,.5,0,1,.2,1.5.8,0,1.8-.2,3-.3h0c0,1.1,0,2.3.3,3.5,0,0,0,0,0,.1ZM154.9,224.5c-.3.4-.6.7-1.2.8-.5.1-1,.2-1.5.2-.5,0-1.3,0-2.2-.2-1-.2-1.7-.1-2.2,0-.2.2-.4.5-.4.9-.1.6-.2,1-.3,1.2-.4,1.2-1.2,2.2-2.4,2.9,0,0,0,0,0,0-.3.2-1.6,1-3,1.2-.3,0-.5,0-.8,0h0s0,0,0,0c0,0,0,0-.1,0,0,0,0,0-.1,0,0,0,0,0,0,0,0,0,0,0,0,0-.6,0-1.1-.3-1.6-.7-.6-.5-1.1-1-1.3-1.7,0,0-.1-.1-.2-.3,0-.2,0-.2-.2,0,0,.8-.2,1.5-.5,2.1-.3.6-.6,1-1.2,1.2-.8.3-1.6.3-2.4,0-.8-.3-1.3-1.1-1.6-2.3-.2,0-.4,0-.4,0,0,.4-.1.8-.2,1.3,0,.5-.3.9-.6,1.3-.3.4-.7.6-1.1.6-1.3.3-2.3.1-2.8-.5-.5-.6-.9-1.6-1.1-3,0,.3-.2.6-.2.8,0,.2-.1.3-.2.4-.6,1.4-1.4,2.4-2.5,3.1,0,0,0,0,0,0,0,0,0,0,0,0,0,0,0,0,0,0-.2,0-.7.3-1.4.4-1.1.2-2.8.3-5-.1-2.8-.3-4.6-1.9-5.4-5-.4,1.3-.7,2.1-.9,2.3-.8,1.2-2.3,1.9-4.4,2t0,0s0,0,0,0c0,0,0,0,0,0-.2,0-.7,0-1.3,0-.7,0-1.7-.1-2.4-.2h0c-.6,0-1.3-.2-2.2-.6-.9-.4-1.6-1.1-1.9-2-.3-.8-.4-1.5-.3-2.1,0,0,0,0-.1,0h0c-.1,0-.2,0-.2,0-.2,0-.6,0-1.3.1,0,0,0,0,0,0h0c-2.4.2-4,.3-4.8.3-.5,0-1.1,0-1.6,0,0,0-.1,0-.4,0,0,0,0,0-.1,0,0,0-.1,0-.2,0,0,0,0,0,0,0,0,0,0,0,0,0,0,0,0,0,0,0,0,0,0,0,0,0-.1,0-.2,0-.3,0,0,0,0,0,0,0,0,0,0,0-.1,0,0,0,0,0-.1,0,0,0-.1,0-.2,0-.1,0-.3,0-.4-.1,0,0-.2,0-.2,0,0,0-.2,0-.3,0,0,0-.2,0-.3,0,0,0,0,0,0,0,0,0-.1,0-.2,0,0,0-.2,0-.2,0-2.4-.9-5.8-2.7-8-6.7,0,0-3.3-.3-6.4-1.6,0,0-.1,0-.2,0-.7-.3-1.4-.6-2-1,0,0,0,0,0,0-.3-.2-.6-.4-.9-.7,0,0,0,0-.2-.1,0,0,0,0,0,0-.5-.5-.9-1-1.3-1.4t0,0s0,0,0,0c-.5-.7-.9-1.3-1-1.7-.4-1.5,0-3.1.9-4.7.8-1.1,1.9-2.2,3.2-3.3,0-.1,0-.1,0,0-.6.4-1.3.6-2.1.7-.9,0-1.7-.2-2.4-.8-.8-.6-1.4-1.1-1.8-1.5h-.2c-1.1,1.1-2,1.8-2.6,2.1-1.1.7-2.1,1.1-3.2,1.3-2.6.7-5.4.2-8.4-1.3-.9-.6-1.6-1.2-2.1-1.8-1.8-2.3-2.5-4.8-2.1-7.5.3-2.2,1.4-4.2,3.3-5.9,2.3-2,4.7-2.7,7.4-2.2.1,0,.2,0,.3.1,0,.2-.4.4-1,.5-.6,0-1,.2-1.2.3-1.1.1-2.2.6-3.3,1.4-.8.7-1.4,1.6-1.7,2.5-.8,1.5-.6,3.7.6,6.5.3.5.6.9,1,1.3,2,2.2,4.4,3.5,7.2,4,1.6,0,2.7-.3,3.4-.9.2-.1.3-.3.4-.4.5-.8,1-2.2,1.5-4.1.6-.8,1.2-1.3,1.7-1.6.5-.3,1-.5,1.4-.6-.3,1.5,0,2.9,1.3,4.3.3.3.7.7,1.1,1.1,1,.8,2.1,1.1,3.1.7,1.5-1.9,2.9-2.8,4.1-2.8-.1.5-.5,1.1-1.2,1.8-.6.6-1.1,1.1-1.7,1.6-.6.6-1.4,1.6-2.2,2.9-.9,1.3-1.2,2.5-1.1,3.6,0,.1,0,.3,0,.4,0,0,0,0,0,0,0,0,.3.9,1.2,1.9,0,0,0,0,0,.1,0,0,0,0,.1.1,0,0,.1.1.2.2,1.7,1.6,3.7,2.3,5.1,2.5.4.1.9.2,1.3.1,0,0,0,0,0,0,.3-.7.6-1.5,1.1-2.3.6-1,1.4-2,2.4-3,.6-.5,1.3-.7,2.1-.8.8,0,1.5,0,2.2.5,1.7,1,2.5,2.4,2.4,4.3-.1.6-.4,1.2-.8,1.9-.2.3-.4.6-.7,1-.6.5-1.5,1.3-2.7,2.4,0,0,0,0,0,0,0,0,0,0,0,0,.2.5.6.9,1.2,1.4,0,0,0,0,0,0,.6.6,1.6,1.2,2.8,1.8,0,0,.2,0,.2,0,0,0,0,0,0,0,0,0,0,0,.1,0,0,0,0,0,0,0,.8.3,1.7.5,2.7.6,2.4.4,4.5.2,6.4-.4,0-.2,0-.4-.3-.5-.3-.2-.4-.3-.5-.4-2-1.4-3.2-2.2-3.5-2.3-.5-.2-1.1-.3-1.6-.2-.6,0-1.2.4-1.8.9,0,.1-.2.2-.3.2-.3-.3-.2-.7.3-1.2.3-.4.9-1.1,1.7-1.9.9-.6,1.7-.8,2.5-.5,1.3.4,3,1.4,5,2.8,2.1,1.6,3.8,2.6,5,3,.3.1.6.2,1,.3-.4,1.1-1.1,2.2-1.9,3.2-.3,0-.9,0-1.7,0-.3,0-.5,0-.8,0,0,0,0,0,0,0-.1,0-.3,0-.4,0h0s0,0,0,0c0,0,0,0,0,0h-.3s0,0-.1,0c.6.5,1.4.8,2.5,1,0,0,0,0,.1,0,.1,0,.4,0,.7.1.5,0,1.1.2,1.7.2.9.1,1.8.2,2.3,0,1.5,0,2.6-.5,3.4-1.3,0-.2,0-.6,0-1,0-.4,0-.7,0-.9,0-.9,0-1.7,0-2.4,0-.7.3-1.7.9-3.1,0-.2.1-.2.3-.2,0,0,.1,0,.1.3.4,2.8.7,4.3.7,4.4.6,2.8,2.5,4.5,5.9,4.9,0,0,0,0,0,0,0,0,.4,0,.9.2.8.1,1.9.2,2.8,0,.3,0,.5-.2.7-.3,0,0,.1,0,.1,0,1.4-.7,2.5-2,3.3-3.7.4-.5.5-.1.4,1.1.5,1.1,1.2,1.7,2.3,1.8.2,0,.3,0,.5,0,1-.1,1.7-.8,2.3-2.1,0-.4.1-1,.3-1.7.5-.2.7,0,.7.5,0,.5,0,.7.1.8.5,1.1,1.1,1.7,1.9,1.7,1-.1,1.7-.4,2-.8.3-.4.4-.9.5-1.5,0-.6,0-1.1,0-1.6.2-.5.5-.5.8-.2,0,.3,0,.5,0,.8.1.7.5,1.4,1.1,2.1.4.3.8.4,1.3.5t0,0c.2,0,1.8,0,3.2-.6.5-.2.9-.5,1.3-.9,1-.7,1.8-1.6,2.3-3,.2-.4.3-1.2.4-2.3.3-1.1.5-2.1.8-3.2.4-1.2,1-2,1.9-2.4.2,0,.4-.1.6-.2.9,0,1.5.2,2,.6.9.6,1.6,1.5,2.1,2.7.7,1.9.9,3.8.6,5.9ZM191.5,212.9l-.2.4c-1.2,1.2-2.8,3-4.9,5.4-4.6,2.8-8.4,4.9-11.4,6.3-.7.3-1.7.7-2.9,1.2-.4.1-.7.3-1,.4,0,0-.6.2-1.6.5-1.6.5-2.8.5-3.6-.2-.7-3-.2-5.5,1.4-7.4.4-.6,1.5-1.7,3.3-3.2.9-.7,1.4-1,1.5-1.1,0,0,0,0,0,0l1.5-1.1s0,0,0,0c2.4-1.6,3.7-3.1,3.7-4.4-.3-.3-.8-.8-1.6-1.3-.8-.5-1.3-1-1.5-1.4-.2-.2-.3-.5-.5-1-.2-.5-.4-1.1-.6-1.8h.1c0,0,1.6,1,1.6,1,.9.6,1.6,1.4,2.3,2.3.5.7.9,1.6,1.3,2.6.7,2.3,0,4.4-2.3,6.4,0,0,0,0,0,0-.1.5-2.9,2-2.9,2-.8.5-2.6,1.6-5.3,3.3,0,.1-.2.3-.4.6-.3.3-.3.5-.2.7.8,0,2.3-.3,4.5-.9,5.7-2.5,9.5-4.5,11.4-5.7,3.5-1.9,6.3-3.3,8.3-4.1,0,.1,0,.3,0,.5ZM195,213.5c-.1,0-.3,0-.6-.4-3.1-3.6-5.4-6.1-6.9-7.4-1.2-1.2-2.3-2.2-3.2-2.8-.4-.3-.6-.5-.9-.8-.4-.5-.8-1.2-1.2-2l-.9-2.1c0-.1,0-.2.1-.2,0,0,.2,0,.4.2.3.3.5.4.6.5.1,0,.7.4,1.8,1.2.7.5,1.4.8,2,1,.1.1.2.2.3.4.2.2.4.7.6,1.2.2.6.4,1,.4,1.2l.2.4,6.1,6.9c.5.7.9,1.3,1.1,2,0,.5,0,.8,0,.9ZM199.8,200.3c.6.6,1,1.3,1.3,2.2.3.9.4,1.7.3,2.3-.2,1-.7,2.2-1.6,3.7-.7,1.1-1.5,2.1-2.4,3.1l-.3-.2c.5-1.7.9-3.4,1.3-5.1.4-2,.5-3.8.2-5.4-.7-.8-2.1-1.4-4.1-1.8-1.4-.9-2.2-1.9-2.6-3,1.5.6,3.2.2,5.1-1.4,1.5-1.6,2.2-3.3,2.1-5.1-.3-.2-.7-.5-1.4-.7-.7-.3-1.2-.5-1.6-.6-.7-.3-1.2-1.1-1.7-2.5,0,0,.1,0,.2,0,.2,0,.5.2.9.3,1.5.4,2.9,1.5,4.3,3.1,1.6,1.9,2.2,3.8,1.6,5.5-.3,1.1-.9,2-1.7,2.9-.6.6-1.1,1.1-1.7,1.3.5.2,1.2.7,1.9,1.5ZM206.8,198.5s-.1.1-.3.2c-.7.3-1.7.5-3.1.6h-.1c-.2-.9-.4-2-.7-3.4h0c1.1,0,2.2-.3,3.3-.7,0,0,0,0,.1,0l.7,3.2s0,0,0,0Z"/>
    <path class="st0" d="M84,219.6c.2,0,.3,0,.4-.2,0,0,0-.2,0-.3,0-1.8-.8-3.1-2.1-3.9-.8-.5-1.5-.6-2.3-.5-.2.4-.2.9,0,1.6.2.9.3,1.4.3,1.5,0,.5.2.9.6,1.1.2.2.7.3,1.3.3.6,0,1,.2,1.3.3h.6Z"/>
  </g>
  <g>
    <path class="st0" d="M173.2,96.6c0-.1,0-.3,0-.4h.2c.2-.2.3-.3.5-.3,0,.2,0,.5,0,.7,0,.5-.7.6-.7,0Z"/>
    <path class="st0" d="M173.9,21.4c-.3.2-.4.5-.6.8,0,.1-.3.3,0,.4,0,0,0,0,.1,0,.3-.3.6-.4.9-.6.3-.2,0-.7-.3-.5Z"/>
    <path class="st0" d="M173.3,20.3c-.4.2-.6.5-.8.8,0,0,0,0,0,0h0c0,0,0,.2,0,.2,0,0,.2,0,.3,0,.3-.2.5-.2.8-.4.3-.2,0-.7-.3-.5Z"/>
    <path class="st0" d="M190.2,19.7c.2.1.4.3.6.3.3,0,.4-.3.2-.5-.2-.2-.5-.2-.8-.2,0,0-.2,0-.2.2s0,.2.2.2Z"/>
    <path class="st0" d="M190.9,18.7c.1,0,.2.1.3.2.2,0,.4,0,.4-.2,0-.2,0-.4-.3-.4-.2,0-.5,0-.6.2,0,0,0,.2.1.2Z"/>
    <path class="st0" d="M177.2,94.8c0,0-.2,0-.2.1,0,.2,0,.3-.1.5.1,0,.2,0,.4,0,0-.1,0-.3,0-.4,0,0,0-.2-.1-.2ZM211.6,21.3c-.2-1-.9-2.5-2.2-2.2-.4.1-.8.4-1.1.7-.3.3-.7.6-1,.9-1,1-2,1.8-3.2,2.7-1.7,1.3-3.5,2.5-5.4,3.6-1,.6-2.1,1.2-3.2,1.7-.5-.1-.9-.5-1.3-.6-.1-.2-.4-.4-.6-.5,0,0-.2,0-.2-.1,0-.4-.3-.7-.5-1,0,0,0,0,0,0,0-.1,0-.4,0-.5,0-.3,0-.6,0-.9.1-1.2.3-2.3.7-3.4,1.1-3.1,3.3-5.8,6.3-7.2.6-.3,1.1-.5,1.8-.7.4-.1.8-.2,1.2-.3.2,0,.5-.1.7-.2.7-.7-.9-1.2-1.4-1.4-.9-.3-1.9-.5-2.9-.5-2.9,0-5.8,1.1-8.1,2.8-2,1.5-3.3,3.7-4,6.1-.2.9-.4,1.8-.6,2.7-.1.6-.2,1.2-.3,1.8,0,.1,0,.3,0,.4-.6.3-1.1.7-1.6,1-.3.1-.6.2-.9.3-.2,0-.4,0-.6.1-.2-.1-.4-.2-.6-.3-.6-.2-1.2-.4-1.8-.5-.1,0-.2,0-.3,0,0-.3-.3-.7-.4-.9-.1-.3-.3-.6-.4-.9-.3-.6-.5-1.1-.8-1.6,0,0,0,0,0-.1,0-.2-.2-.4-.4-.5-.2-.3-.4-.6-.6-.9-2-3.4-5.2-5.6-8.9-6.9-1.8-.6-3.8-.8-5.7-.6-1.4,0-2.8.4-4.1,1-.4.2-.8.4-1.2.7-.1,0-.3.2-.4.3-.2.4.1.6.5.6.5,0,1,0,1.6,0,.7,0,1.3.2,2,.4,1.5.6,2.9,1.2,4.2,2.1.6.4,1.2.9,1.7,1.4,1.2,1,2.3,2.1,3.2,3.5.6.9,1.1,1.8,1.5,2.7.2.6.5,1.1.7,1.7,0,.2.1.3.2.5-.4.1-.7.4-1,.6-.3.2-.7.4-1,.6-.2,0-.4,0-.5,0,0,0,0,0,0,0,0,0-.2-.2-.3-.2-1.3-1.1-2.3-2.4-3.3-3.6-.9-1-1.9-1.9-3-2.7-.7-.6-1.4-1.2-2.2-1.7-.4-.3-.7-.5-1.1-.8-.3-.2-.6-.3-.9-.3-1.2,0-2.2,1.3-2.7,2.3-1.5,3.4-.2,7.7,2.2,10.5,1.3,1.5,2.9,2.6,4.6,3.6.8.5,1.6.8,2.3,1.3,0,0,0,.2,0,.2,0,.5,0,1,0,1.5,0,1.8-.1,4.1-1.7,5.2-.7.4-1.5.5-2.3.5-.3,0-.6,0-.9,0-.1,0-.3,0-.3.2-.2.3,0,.7.3,1-1.5.2-3,.6-4.4,1.1-.3.1-1,.3-1,.7,0,.4.7.4,1,.5.1,0,.3,0,.4,0-.8.3-1.6.7-2.4,1-.8.4-1.6.7-2.4,1.1-.9,0-1.8-.2-2.7-.5-.6-.1-1.1-.3-1.7-.4-.3,0-.6-.2-.9,0-.4.2-.3.7,0,.9.4.4.9.7,1.5,1-1.6-.1-3.2,0-4.7.4-.7.1-1.4.2-2,.6-.2.1-.4.2-.6.3-.2.1-.3.4-.2.6,0,0,0,0,0,0-.4,0-.8,0-1.2.2-.3,0-.6,0-.9.1-.1,0-.3,0-.4,0-.7,0-1.3.3-1.9.5-1.9.6-3.9,1.2-5.9,1.2-.7,0-1.4,0-2.1,0,0,.5.2,1,.2,1.5.5,0,1,0,1.6,0,1,0,2.1-.2,3.1-.4,1.9-.4,3.8-1.2,5.5-2,0,0,.2,0,.3,0,.9,0,1.9-.2,2.8-.4,1-.2,2-.2,3.1-.3.4.1.4-.6,0-.5-.6,0-1.2,0-1.8,0,.6-.1,1.1-.3,1.7-.4,1.2-.3,2.4-.5,3.6-.5.6,0,1.1,0,1.7,0,.2,0,.3-.4.1-.5-.2-.1-.5-.2-.7-.3-.2-.1-.4-.2-.7-.4,1.8.6,3.7.6,5.6.2.8-.2,1.6-.5,2.4-.8,0,0,.2-.1.1-.2,0-.1-.2,0-.3,0-.7,0-1.3.1-2,.2.9-.4,1.8-.7,2.7-1.1.8-.3,1.6-.6,2.4-.9.4-.1.8-.2,1.2-.4.2-.1.2-.4,0-.5-.3-.2-.8,0-1.1,0-.2,0-.4,0-.6,0,0,0-.1,0-.2,0-.4,0-.7,0-1.1,0,1.1-.2,2.3-.3,3.4-.4.2,0,.6,0,.8-.2.2-.1.3-.4.3-.6-.1-.6-.8-.7-1.2-1,1.1.2,2.4.6,3.5,0,2.1-.9,2.4-3.6,2.1-5.7,0,0,0,0,0,0,.2.5.4,1,.6,1.4.1.3.6,0,.4-.2-.2-.5-.4-.9-.6-1.4-.2-.6-.4-1.3-.5-2-.1-1.3-1.1-1.8-2.1-2.4-1.1-.7-2-1.2-3-2-2.1-1.6-3.7-3.9-4.2-6.5-.3-1.4-.4-2.9,0-4.3.2-.7.8-1.9,1.6-2,.4,0,.9.7,1.2,1,.6.7,1.3,1.4,2,2,1,.9,2.2,1.7,3.2,2.8,1,1,1.9,2.2,3.2,3,.7.5,1.5.9,2.3,1.1.2.1.4-.2.2-.3,0,0,0,0-.1,0,.5,0,1.1-.3,1.5-.6.4-.3.8-.6,1.2-1,0,0,0,0,0,0,.4,0,.7,0,1.1-.1,0,0,0,.1.1.2-.4.8.1,1.5.4,2.2.3.6.6,1.2.9,1.8,0,0,.1,0,.2,0,0,0,0-.1,0-.2,0-.1-.1-.3-.2-.4-.4-.7-.7-1.5-1-2.3,0-.2-.2-.5,0-.7,0,0,.1,0,.2-.1.4-.2.4-.7,0-.9,0,0,0,0-.1,0,0,0-.1-.1-.2-.2-.1,0-.2-.1-.3,0h-.1c0,0,.1,0,.2,0,.4-.1.7-.2,1.1-.3.3,0,.6,0,.8-.2.2-.2.2-.4,0-.6.5,0,1,.1,1.4.3.4.1.7-.3.5-.7,0-.1-.2-.2-.3-.3,1,.7,2.2,1.2,3.4,1.5.5.2,1.1.4,1.6.5.4.1.2-.3.1-.5.4,0,.7,0,1.1-.3.3-.2.8-.5,1.1-.8.7-.5,1.5-.7,2.2-1.2,0,.2-.3.3-.3.5,0,.1.1.3.2.3.1,0,.2,0,.3,0,.4,0,.8-.1,1.2-.3,0,0,0,0,0,0,0,0-.2.2-.3.3,0,0-.1.1-.1.2,0,0,0,0,0,0,0,0,.1,0,.2-.1.4-.2.7,0,1.1,0,0,0-.2.1-.2.2,0,0,0,0,0,0,0,.1,0,.3.2.2.2,0,.4,0,.6,0,.2,0,.4,0,.6-.2.4.4.1,1.1.6,1.5,0,0,.2.1.3,0,0,0,.2,0,.3,0,0,.3,0,.5.2.8,0,.2.2.5.4.6,0,0,.1,0,.2.1,0,.1.1.2.2.3.3.4.6.8.8,1.2.2.3.7,0,.5-.3-.2-.3-.4-.7-.6-1,.3,0,.5,0,.8,0,.2,0,.3-.1.4-.3.4,0,.7-.2,1.1-.3,2.2-.9,4.3-2.2,6.2-3.7,1.5-1.3,2.8-2.7,4.3-3.9.2-.1.4-.3.6-.4,0,0,0,0,.1-.1-.3.3-.5.7-.8,1-.8.9-1.6,1.9-2.4,2.7-1.1,1.1-2.2,2.1-3.3,3.1-.6.6-1.3,1.1-1.8,1.8-.6.7-1.3,1.3-1.6,2.1-.2.6-.1,1.3-.2,2,0,.5,0,.9,0,1.4,0,.4.2.7.2,1,0,0,0,.1,0,.2-.2.2-.4.5-.3.8.1.2.4.4.5.6,0,.2,0,.5,0,.7,0,.2-.2.4-.2.6-.2,0-.4,0-.6,0-.3,0-.7,0-1,.1-.2,0-.4.1-.6.2.2-.3.4-.5.6-.7.6-.5.8,0,1-.2.1-.3-.6-.4-.8-.4-.7.1-1.2.7-1.5,1.3,0,.1-.1.2-.2.4,0,0,0,0,0,0,0,0,0,.2-.1.3-.3.7-.6,1.3-.8,2,0,.4-.2.8-.3,1.2,0,.1,0,.2.1.3.1,0,.2,0,.3-.2.1-.4.2-.8.4-1.2,0,0,0-.1,0-.2.2.5.5,1.1.8,1.3.2.2.4,0,.2-.2-.2-.3-.4-.5-.4-.9,0,0,0-.2,0-.4.2.4.4.7.8.9.3.2.7.3,1.1.3,0,0,0,.1-.1.2-.2.4,0,.6.2.9.1.2.2.4.2.7,0,.9-.7,1.6-.8,2.5,0,.3-.1.6-.2.9,0,.3-.2.6-.3.9,0,0,0,.1,0,.2-.1.3-.2.6-.3,1,0,.5,0,1.1.1,1.6,0,.5,0,1,0,1.6-.1,1.2-.5,2.4-.9,3.5-.1.3-.2.6-.3.9,0-.4-.1-.7-.3-1.1-.2-.6-.5-1.2-.6-1.8,0,0-.1,0-.1,0,0,.7,0,1.3,0,2,0,.5,0,1,0,1.5,0,.9-.2,1.7-.5,2.6-.1.3-.2.8-.6.9-.4.3-.9.5-1.4.6-.4,0-.8,0-1.2.2,0,0,0,0,0-.1,0-.6-.3-1.1-.3-1.7,0-.2-.3-.2-.3,0,0,.4,0,.8-.1,1.1,0,.2,0,.3,0,.5,0,0,0,.1,0,.2-.8,0-1.6-.2-2.3-.3-1-.2-2-.7-2.8-1.4-.8-.7-1.3-1.7-2.4-1.9-.2,0-.3,0-.5,0h0c0-.2.1-.4,0-.5-.2,0-.2.2-.3.3,0,.2-.2.4,0,.5,0,.2,0,.4.2.5.3.1.7.2.9.5.6.8,1.3,1.5,2.1,2.1.7.9,1.5,1.8,2.6,2.3,0,0,0,0,0,0,0,0,0,0,0,0,.7.3,1.4.7,2.2.8.8,0,2.4-.7,3-1.3,0,0,0,0,.1-.1,0,.5.3,1,.2,1.5,0,.4-.3.8-.6,1.1-.2.2-.5.4-.6.7-.3.5-.2,1-.3,1.5-.2.9-.6,1.7-1,2.4.2-.6.3-1.2.4-1.7.2-.5-.6-.9-.9-.5-.2.3-.3.8-.5,1.1-.2.4-.5.8-.7,1.2,0-.7-.4-1.2-.9-1.7-.4-.4-.7-.8-1-1.3,0-.1-.2-.1-.3,0-.1,0-.1.2,0,.3.1.2.3.5.4.7.2.4.4.7.6,1.1,0,0-.2-.1-.3-.2-.5-.5-1-1-1.4-1.6-.3-.3-.5-.6-.7-.9-.1-.2-.3-.4-.4-.7-.2-.3-.7,0-.5.3,0,0,0,0,0,0-.1,0-.2.1-.3.2-.7-.6-1.5-1.3-2.2-1.8-1-.7-2-1.5-2.8-2.5,0,0,0-.3-.2-.2-.2,0,0,.5,0,.6.2.4.4.9.7,1.3.7,1,1.8,1.9,2.9,2.6.4.2.8.4,1.2.6-.4.5-.8,1-1.1,1.5-.6,1-.9,2-1.2,3.1-.5,1.9,0,3.9.7,5.7-.2-.1-.2-.4-.4-.6-.3-.4-.6-1.1-1.1-1.1-.2,0-.3,0-.4.3-.1.2,0,.5,0,.7.8,1.6,1.4,3.2,2.1,4.8.1.3.3.6.4.9,0,0-.1-.1-.2-.2-.3-.4-.6-.7-1-1.1-.2-.3-.5-.5-.9-.3-.5.3-.1.9,0,1.4.7,2.5.8,5.1.7,7.7,0,.1,0,.3,0,.4-.1-1.1-.4-2.2-1-3.4-.1-.3-.3-.6-.4-.9,0-.1-.1-.3-.3-.4,0,0-.2,0-.2.1,0,0,0,.1,0,.2.2.4.3.9.4,1.4.6,2.9.3,5.1-.4,7.5.4.2.8.4,1.2.6.4-1.1.6-2.2.7-3.2.1,0,.2,0,.3-.2.2-.9.2-1.9.4-2.8.4-2.3.4-4.5-.2-6.7.4.3.8.7,1.2.9,0,0,0,.1,0,.2.1.4.7.2.6-.2,0-.3-.2-.6-.2-.9,0-.3-.1-.7-.2-1-.2-1.3-.6-2.6-1.2-3.7.5,0,0-.8,0-1.1-.3-1.4-.4-2.8,0-4.2.3-.9.7-1.7,1.1-2.6.3-.7.6-1.4,1-2.1,0,0,0,0,0-.1.3.2.6.4.9.5.1.2.2.3.3.5.6.7,1.2,1.5,2.2,1.6,0,0,.1,0,.2,0,0,.2.1.3.2.5,0,.2.2.4.3.6.3.2.5-.2.7-.4.3-.3.5-.5.8-.8,0,.3,0,.5,0,.8,0,.2,0,.4.1.5.3,0,.6-.3.8-.5.9-1.1,1.3-2.5,1.9-3.8.1-.2.3-.4.4-.6,0-.2.1-.3.2-.5.2-.6.5-1.2.6-1.8,0-.3,0-.6,0-.9,0-.4,0-.8,0-1.3.6-.3,1.1-.7,1.4-1.2.3-.6.4-1.4.5-2,.1-.5.2-1.1.2-1.7,0,0,0,0,0,0,.1-.2.2-.5.4-.7.5-1.1,1-2.2,1.3-3.4.2-.7.2-1.4.2-2,0-.5.1-1.1.2-1.6,0-.3,0-.7,0-1,0,0,0,0,0-.1.1-.4.2-.8.4-1.2.7-1.5.7-2.8.4-4.3,0-.1,0-.2.1-.3.1-.3.2-.6.2-.8,0,0,0,0,0,0,.2-.2.3-.4.4-.6.2-.6.3-1.4,0-2.1.2-.1.3-.4.4-.6,0,0,.2-.2.2-.3,0,0,0-.1,0-.2,0,0-.1,0-.2,0-.1,0-.2.2-.3.2.1-.5,0-1.2,0-1.5,0-.2,0-.4,0-.6,0-.1,0-.2,0-.3,0,0,0,0,0,0,.1,0,.3-.2.4-.2.8-.3,1.7-.4,2.5-.7.8-.2,1.5-.6,2.1-1.1,3.2-2.1,5.8-5.6,6.7-9.4.3-1.2.5-2.5.3-3.7ZM173.2,24.5c-.7-1.6-1.7-3-3-4.2-1.3-1.3-2.7-2.6-4.3-3.5-1.9-1-4-2.1-6.2-2,2.1-.6,4.3-.7,6.5-.4,1.6.2,3.1.8,4.6,1.5,2.8,1.4,4.7,3.1,6.3,5.8,0,0,0,0,0,0,0,0-.1,0-.2,0-1.5.3-2.5,1.2-3.4,2.4,0,.1-.2.2-.2.3ZM173.4,24.9c0,0,0-.1,0-.2.7-.9,1.5-1.9,2.7-2.1.5-.1,1,0,1.5,0h0c.1.2.3.4.4.6-.3,0-.5.1-.8.2-1.2.4-1.7,1.1-2.4,2.1-.2.4-.5.7-.7,1.1-.1-.5-.3-1.1-.5-1.6ZM179,25c-.3-.1-.5-.3-.8-.3-.1,0-.2.1-.2.3.2.3.3.6.4.9-.4,0-.8,0-1.3,0-.4,0-.7.1-.6.6-.5.2-1,.5-1.6.7-.1,0-.2.2-.1.3,0,0,0,0,0,0-.3,0-.5.1-.7.2,0,0,0,0-.1,0,0,0,0,0,0,0,0-.3,0-.6,0-.8,0,0,.1-.2.2-.3.4-.5.8-1.1,1.3-1.6.1-.2.3-.3.5-.4.6-.4,1.4-.4,2.1-.5.1,0,.2,0,.4,0,.2.3.4.6.6.9,0,0,0,0,0,0ZM191.8,25.5c0-.2-.1-.5-.4-.5-.4,0-.7,0-1,.2,0,0,0-.1,0-.2,0-.3-.3-.3-.5-.3-.3,0-.6,0-.9,0,.1-.5-.5-.5-1-.4,0-.2.1-.4.2-.6,0,0,0,0,0,0,.6,0,1.2-.2,1.8-.2.5,0,1,.2,1.4.4.2.1.5.3.7.4,0,.3,0,.7,0,1,0,0-.2,0-.3,0ZM192,24c-.2-.2-.5-.4-.8-.6-.4-.3-.8-.5-1.3-.6-.5-.1-1.1-.1-1.6,0,0-.1,0-.3,0-.4,0-.3,0-.5.2-.8.5-.2,1-.5,1.6-.3.5,0,.9.3,1.3.6.3.2.6.3.9.5-.1.6-.2,1.1-.2,1.7ZM192.5,21.1c0,0,0,.1,0,.2-.1-.1-.2-.2-.4-.3-.6-.3-1.2-.5-1.8-.5-.6,0-1.1.3-1.6.6,0,0,0,0,0,0,.5-2.2,1.5-4.3,3.3-5.8,1.5-1.3,3.2-2.1,5-2.7,1.5-.4,3.1-.6,4.7-.2-4.3.8-7.8,4.4-9.1,8.6ZM184,68.1s0,0,0-.1c0,0,.1.2.2.3,0,0-.1-.1-.2-.2ZM198,41.5c-.4.6-1.4,0-1.8-.6,0,0,0,0,0-.2,0,.2.2.3.4.4.2,0,.3,0,.5,0,.4,0,.7,0,1.1,0,0,.1-.1.3-.2.4ZM198.3,40.2c-.2,0-.3,0-.4.1-.2,0-.3.1-.5.2.2-.1.4-.2.5-.4,0-.1-.1-.2-.2-.3-.2-.1-.5,0-.7,0h0c.4-.4.9-.5,1.4-.3h0s0,0,0,.1c0,.2,0,.4,0,.7,0,0,0,0,0,0ZM209.9,24.8c-.7,2.5-2.2,4.7-4,6.6-1.3,1.3-2.8,2.2-4.5,3.1-.6.3-1.4.6-2,1.1,0,0-.2.1-.2.2,0-.2,0-.5,0-.7-.1-.5-.4-1.1-.2-1.6.1-.4.3-.8.6-1.1.4-.4.7-.8,1.1-1.2,1-1.2,2.2-2.2,3.3-3.3,0,.2,0,.3,0,.5,0,.5.6.6,1,.5-.1.2-.3.3-.5.4-.3.3-.1.8.3.8.2,0,.3-.1.5-.2.3-.2.6-.5.8-.8.5-.6.9-1.3,1.2-2,.1-.2.2-.6-.1-.6-.2,0-.3.2-.5.4-.4.3-.9.6-1.4.9.4-.8.6-1.5.9-2.3.3-.4.6-.9.9-1.3.6-.9,1.1-1.8,1.6-2.7.1-.2.2-.4.3-.6,0,0,0-.1,0-.1.2-.1.3-.2.5-.3.1,0,.2,0,.3.1.2.3.4.6.5,1,.2,1.1,0,2.3-.3,3.4Z"/>
    <path class="st0" d="M178.9,44.2c0-.1-.2-.2-.3-.3-.5-.6-.9-1.3-1.5-1.9-.1-.2-.2-.3-.3-.5-.4-.5-.8-.9-1.2-1.3-.2-.4-.5-.7-.7-.9-.8-.8-2-1.7-3.1-1.3-.5.2-.8.7-1,1.1,0,0,0,0,0,0,0,.1.1.3.2.1,0-.1.2-.2.3-.4.2-.2.3-.5.6-.6.7-.3,1.5.1,2,.7.2.3.4.6.6.9-.4-.2-.8-.3-1.2-.5-.8-.3-1.3-.1-2,.3-.2.2-.5.3-.7.6,0,0,0,.2,0,.3,0,0,.2,0,.2,0,0,0,.1,0,.2,0-.1.7,0,1.4.3,2,.4.6.9,1.1,1.6,1.3.6.1,1.3-.2,1.9-.5-.3.6-.7,1.2-1.5,1.2-.5,0-1-.2-1.4-.5,0,0,0,0-.1,0-.1.1.3.3.4.4.3.2.7.4,1.1.4.7,0,1.5-.3,2-.9.4-.4.6-1,.7-1.6,0,0,0-.2,0-.2,0,0,0-.1,0-.2,0-.1,0-.2,0-.3h0s0,0,0,0c.2.3.4.6.6.8.3.4.7.8.9,1.2,0,.1.2.1.4,0,0,0,0,0,0,0,.3.2.5.5.7.8.1.2.4,0,.3-.2ZM173.3,42.8c-.6,0-1.3,0-1.6-.6-.2-.3-.2-.7-.2-1.1,0-.3.2-.5.4-.8,1-.1,1.8-.2,2.5.7.2.2.4.5.6.7,0,0,.1.2.2.3-.4.6-1.2.7-1.9.8Z"/>
    <path class="st0" d="M172.5,42.2c.5,0,.9,0,1.4-.2.9-.4.2-1.3-.2-.7-.2,0-.4,0-.6,0,0,0,.2,0,.2-.1,0,0,.1,0,.1-.1s0-.1-.1-.1c-.4-.2-.9-.2-1.2,0-1,.5-.4,1.4.5,1.5Z"/>
    <path class="st0" d="M177.1,43.6c0,0-.2,0-.1,0,.3.4.6.8.8,1.2,0,0,.2,0,.2,0,0-.1-.1-.2-.2-.3-.2-.3-.4-.6-.7-.9Z"/>
    <path class="st0" d="M194.4,45.4c.1,0,.2,0,.3-.1,0-.2,0-.4.1-.6,0-.3.1-.6.2-.8,0-.1,0-.2-.1-.3-.1,0-.2,0-.2.2,0,.3-.2.5-.2.8,0,.2,0,.4-.1.7,0,.1,0,.2.1.3Z"/>
    <path class="st0" d="M189.1,58.8c-.2-.2-.4-.5-.6-.7-.5-.4-1.2-.4-1.7-.7-.3-.2-.3-.5-.5-.8,0,0-.1,0-.1,0,0,0,0,.2,0,.3.2,1.4,1.3,1.8,2.4,2.4.2.1.4.4.6.5.2.1.6,0,.5-.4,0-.2-.3-.4-.5-.6Z"/>
    <path class="st0" d="M193.3,56.1c-.3,0-.2.4-.2.5,0,.2-.1.4-.3.6-.2.1-.4.2-.5.3-.4.1-.7.3-1,.6-.4.4-.6.9-.6,1.5,0,0,0,0,0,0,0,0,.2,0,.2-.1,0-.1.2-.2.3-.3.5-.3,1.1-.7,1.5-1.1.1-.2.3-.3.4-.4.1-.2.2-.4.3-.6,0-.3.1-.6.1-.9,0-.1,0-.2-.2-.2Z"/>
    <path class="st0" d="M190.1,57.8c0,0-.1,0-.1.1,0,.1,0,.2,0,.4,0,.4,0,.9,0,1.3,0,.1.2.1.2,0,0-.6,0-1.1,0-1.7,0,0,0-.1-.1-.1Z"/>
    <path class="st0" d="M192.5,53.9c0,0,0,.1.1.2.2.4.3.8.5,1.2,0,.1.2,0,.2,0-.1-.5-.3-.9-.6-1.3,0,0,0,0-.1,0Z"/>
    <path class="st0" d="M192.5,53c0,0,0,.1,0,.2.2.3.3.6.4.9,0,0,.1,0,.2,0,0,0,0-.1,0-.2-.1-.3-.3-.7-.5-1,0,0-.2-.2-.2,0Z"/>
    <path class="st0" d="M186.5,54.5c-.1,0-.2,0-.2.2,0,.2-.7,1.4-.4,1.4,0,0,.1,0,.1,0,.1-.5.4-.9.6-1.4,0,0,0-.1,0-.2Z"/>
    <path class="st0" d="M186.5,54.1c.1-.1-.1-.3-.2-.2-.2.3-.4.6-.6.9,0,0,0,.1,0,.2,0,0,.1,0,.1,0,.2-.3.4-.6.6-.8Z"/>
    <polygon class="st0" points="187.1 64.5 187.1 64.5 187.1 64.5 187.1 64.5 187.1 64.5"/>
    <path class="st0" d="M187.8,66.2c.5.3.9.5,1.4.7.6.2,1.2,0,1.6-.4.2-.1.4-.2.6-.4.1,0,.2-.2,0-.4,0-.1-.2-.2-.4,0-.2.1-.4.2-.6.3-.3.1-.7,0-1.1,0-.3,0-.6,0-.9,0-.4,0-.7,0-1-.3,0,0-.1,0,0,0,0,.1.2.2.3.3Z"/>
    <path class="st0" d="M194.6,46.6c0-.2,0-.5.1-.7,0,0,0-.2,0-.2,0,0,0,0-.1,0,0,.2-.1.4-.2.6-.1.4-.2.9-.3,1.3,0,0,0,.1.1.1.2,0,.2-.2.2-.3,0-.3.1-.6.2-.9Z"/>
    <path class="st0" d="M195,46.9c0,0-.2,0-.2.1,0,.2-.1.5-.2.7,0,.2,0,.5-.1.7,0,0,0,.1,0,.1,0,.3-.1.6-.2.9,0,.1-.2.5,0,.5,0,0,.2,0,.2-.2,0-.2,0-.3.1-.5,0-.2,0-.4.1-.6,0-.1,0-.4,0-.4,0,0,0-.1,0-.1,0-.2,0-.4.1-.5,0-.2,0-.4.1-.6,0,0,0-.2,0-.2Z"/>
    <path class="st0" d="M178.5,45.6c.3.4.6.9.9,1.3.1.2.4,0,.3-.2-.3-.5-.6-1-1-1.4-.1-.2-.4,0-.2.2Z"/>
    <path class="st0" d="M172.8,31.4c0-.5,0-.9,0-1.4,0,0,0-.2,0-.2-.3,0,0,1.4,0,1.6,0,.1.2.1.2,0Z"/>
    <path class="st0" d="M172.4,31.9s0,0,0-.1c0-.1,0-.3-.1-.4,0-.1,0-.3,0-.4,0,0,0,0,0,0,0,0,0,0,0,0,0,.3.1.6.2.8,0,0,0,0,.1,0Z"/>
    <path class="st0" d="M171.9,33c0,.1.2.2.3.1.1,0,.2-.2.1-.3-.1-.4-.4-.9-.5-1.3,0,0,0-.1-.1-.1-.2,0,0,.2,0,.3,0,.4.2.9.3,1.3Z"/>
    <path class="st0" d="M171,35.9c0,.1.2.3.2.4.1.2.5,0,.4-.2,0-.1-.1-.3-.2-.4-.1-.3-.6-.1-.4.2Z"/>
    <path class="st0" d="M179.2,48c-.3-.7-.6-1.4-1-2,0,0-.1-.1-.2,0,.3.7.7,1.4,1,2.1,0,.1.3,0,.2,0Z"/>
    <path class="st0" d="M179.2,48.9c-.1-.3-.3-.6-.4-.8,0,0-.2-.4-.3-.3,0,0,0,0,0,.1.2.4.4.7.6,1.1,0,.1.2,0,.2,0Z"/>
    <path class="st0" d="M179.4,50.7c0,0,0,0,0-.1,0-.2-.2-.5-.2-.7,0-.2-.1-.4-.2-.5,0,0,0,0-.1,0-.1,0,0,.2,0,.3.1.4.2.7.4,1.1,0,0,0,0,.1,0Z"/>
    <path class="st0" d="M179.5,51.4c0-.2-.3,0-.2,0,0,.2.3,0,.2,0Z"/>
    <path class="st0" d="M178.9,35.4c-.2-.2-.3-.4-.5-.6-.5-.6-1-1.2-1.4-1.8,0,0-.2,0-.2,0,.6.9,1.2,1.7,1.9,2.5,0,0,.2,0,.2-.1Z"/>
    <path class="st0" d="M178.1,35.2c0,0,0,.1,0,.2.5.7,1,1.5,1.6,2.2,0,0,.1,0,.2,0,.1-.1,0-.2-.1-.4-.5-.7-1-1.4-1.5-2,0,0,0,0-.1,0Z"/>
    <path class="st0" d="M179.5,37.5s-.1,0-.2,0c0,0,0,.1,0,.1.2.2.4.4.6.7,0,0,0,0,.1,0,0,0,0,0,0-.1,0-.1-.2-.2-.3-.3,0-.1-.2-.2-.3-.3Z"/>
    <path class="st0" d="M179.7,38.6c-.1-.1-.3,0-.1.2.2.2.3.4.4.5,0,0,.1,0,.2,0,0,0,0-.1,0-.2-.2-.2-.3-.4-.5-.6Z"/>
    <path class="st0" d="M192.2,34.8c0,0,.1,0,.1,0,0-.3.1-.5.2-.8.1-.6.3-1.2.3-1.8,0-.4,0-.8,0-1.2,0-.7.1-1.4,0-2,0-.3,0-.7-.3-.9,0,0-.2,0-.2,0,0,.2,0,.5,0,.7,0,.6,0,1.1,0,1.7,0,.2,0,.5.1.6,0,0,0,0,0,.1,0,.6,0,1.1-.1,1.7,0,.4-.1.7-.2,1.1,0,.2,0,.4-.1.5,0,0,0,.1,0,.1Z"/>
    <path class="st0" d="M192,37.3c0,0,.1,0,.1,0,0-.2.1-.4.2-.6.1-.4.2-.9.3-1.3,0-.3.2-.7.2-1,0-.1.2-.4,0-.4,0,0-.1,0,0,.1-.1.6-.3,1.3-.5,1.9-.1.5-.2.9-.3,1.4,0,0,0,.1,0,.1Z"/>
    <path class="st0" d="M191.9,38.7c0,0,.1,0,.2,0,0-.2,0-.3.1-.5,0-.3.1-.5.2-.8,0-.3.1-.5.2-.8,0,0,0-.1-.1-.2,0,0-.1,0-.1.1-.1.4-.2.8-.3,1.3,0,.3-.1.5-.2.8,0,0,0,.1,0,.2Z"/>
    <path class="st0" d="M191.8,40.2c0,0,.2,0,.2-.1,0-.2.1-.4.2-.6,0-.2.1-.3.2-.5,0-.1,0-.2-.1-.3-.1,0-.2,0-.3.1,0,.2-.1.4-.2.6,0,.2-.1.4-.2.6,0,0,0,.2.1.2Z"/>
    <path class="st0" d="M181.2,43.7c0,0,.1,0,.1-.1,0,0,0-.1,0-.2-.1-.2-.3-.5-.5-.7,0,0,0,0-.1,0,0,0,0,0,0,0,.1.3.4.6.5.9,0,0,0,0,0,0Z"/>
    <path class="st0" d="M181,44c-.2,0-.4.2-.2.3,0,0,.2.2.2.2.1.1.4,0,.3-.2,0-.1-.1-.2-.3-.3Z"/>
    <path class="st0" d="M180.9,45.4c.1.1.4,0,.2-.2,0,0-.1-.1-.2-.2-.2-.2-.5,0-.3.3,0,0,.1.1.2.2Z"/>
    <path class="st0" d="M180.9,46.2c0,.2.2.4.4.6,0,.1.3,0,.2-.1-.1-.2-.3-.4-.4-.5,0,0-.1,0-.1,0Z"/>
    <path class="st0" d="M180.9,47.4c-.2.1.3.5.4.6.1,0,.3,0,.2-.2-.1-.1-.3-.3-.5-.4,0,0,0,0-.1,0Z"/>
    <path class="st0" d="M180.9,48.4c0,0,0,.1,0,.1.1.1.3.3.4.4,0,0,.2,0,.2,0s0-.2,0-.2c-.1-.1-.2-.3-.4-.4,0-.2-.4-.2-.4,0Z"/>
    <path class="st0" d="M181.7,50.3c.1-.1,0-.2,0-.3-.1-.1-.2-.3-.4-.4-.2,0-.2.2,0,.3.1.1.3.3.4.4,0,0,.1,0,.2,0Z"/>
    <path class="st0" d="M182.5,52c0,0,0-.2,0-.2-.3-.3-.6-.5-.8-.9-.1-.3-.5,0-.3.2.2.3.5.6.8.9,0,0,.2,0,.2,0Z"/>
    <path class="st0" d="M192.3,46.4c-.1,0-.2,0-.2.2,0,.3,0,.6,0,.9,0,0,0,.2.2.2.2,0,.2-.3.2-.4,0-.1,0-.2,0-.3,0,0,0,0,.1-.1,0-.4,0-.7.1-1.1,0-.4.1-.7.1-1.1,0-.1,0-.3-.2-.2,0,0,0,0-.1,0,0-.5.1-1,.1-1.5,0-.2.1-.6,0-.7-.1,0-.3,0-.2.2,0,.3,0,.5,0,.8,0,.5,0,.9-.1,1.4,0,0,0,.2.1.2.1,0,.1,0,.2-.1,0,0,0,0,0,0,0,.4,0,.7-.1,1.1,0,.2,0,.4,0,.7Z"/>
    <path class="st0" d="M185.1,30.1c0,0,.1,0,.2,0,.1,0,0-.2,0-.3-.3-.5-.7-1-1.2-1.4,0,0-.1-.1-.2-.1-.1,0-.3.1-.1.2.2.2.4.5.6.7.2.3.5.6.8.9Z"/>
    <path class="st0" d="M185.8,31.7c-.3-.3-.5-.7-.8-1,0,0-1.1-1.3-1-.8h0c.5.7,1.1,1.3,1.6,2,.1.1.3,0,.2-.2Z"/>
    <path class="st0" d="M185.1,32c-.1-.2-.3,0-.2.2.2.3.4.5.6.8,0,.1.3,0,.2-.1-.2-.3-.4-.5-.5-.8Z"/>
    <path class="st0" d="M185.2,33.1c0,0-.2,0-.1.1.1.1.2.3.3.4,0,0,0,0,.1,0,0,0,0,0,0-.1-.1-.2-.2-.3-.4-.4Z"/>
    <path class="st0" d="M187.6,44.8c0,0,0,0,0-.1,0-.2-.1-.3-.2-.5-.3-.8-.8-1.7-1.1-2.5,0-.1-.2,0-.2,0,.3,1,.8,2,1.2,3,0,0,0,0,.1,0Z"/>
    <path class="st0" d="M187.1,45c0,0,0,.1,0,.2.2.3.3.6.5.9,0,.1.2,0,.2-.1-.2-.3-.3-.6-.5-.9,0,0,0-.1-.1,0Z"/>
    <path class="st0" d="M192.4,50.1c0,.2.3.2.3,0,0-.3,0-.5-.1-.8,0-.1-.3-.1-.3,0,0,0,0,.1,0,.1,0,.2,0,.4.1.6Z"/>
    <path class="st0" d="M192.6,50.9c0,.2,0,.3,0,.5,0,0,0,.2.2.2.3,0,.1-.4.2-.6,0-.3-.3-.3-.4,0Z"/>
    <path class="st0" d="M196,30.7s0,0,0,.1c0,.2,0,.3,0,.5,0,0,0,.1.1.2.2.1.4,0,.3-.3,0-.1-.3-.7-.5-.5Z"/>
    <path class="st0" d="M197.2,33.1c0-.5,0-1-.2-1.5-.1-.2-.4,0-.3.1,0,.5,0,.9,0,1.4,0,.1,0,.2.2.2s.2,0,.2-.2Z"/>
    <path class="st0" d="M197.4,33.1c0,0-.1,0,0,.1,0,.3-.1.6-.2.8,0,.2-.1.5-.2.7,0,0,0,.2.1.2,0,0,.2,0,.2-.1,0-.3.1-.6.2-.8,0-.3,0-.5,0-.8,0,0,0-.1-.1-.1Z"/>
    <path class="st0" d="M171.4,34.8c0,.2.1.3.1.4,0,0,0,0,.1,0,0,0,0,0,0-.1,0,0,0,0,0-.1,0,0,0,0,.1,0,.3-.2,0-.5,0-.7-.2-.4-.4-.8-.6-1.2,0-.2-.3-.1-.3,0,0,.3,0,.6.1.8,0,.3.2.6.4.9Z"/>
    <path class="st0" d="M194.8,50c-.1.3-.2.6-.3,1,0,.2-.1.4-.1.6,0,0,0,.1,0,.1,0,0,.1,0,.1,0,0-.2,0-.4.1-.6,0-.3.2-.7.3-1,0,0,0-.1,0-.1,0,0-.1,0-.1.1Z"/>
    <path class="st0" d="M182,52.3c0-.2-.3,0-.2.1.2.4.5.7.8,1,.1.1.3,0,.2-.2-.3-.3-.5-.6-.7-.9Z"/>
    <path class="st0" d="M179.7,53.7c0,0,0-.1-.2-.1-.2,0,0,.3,0,.4,0,.2.2.3.3.5,0,0,.1,0,.2,0,0,0,0-.1,0-.2-.1-.2-.2-.4-.4-.6Z"/>
    <path class="st0" d="M179.7,55.1s0,0,0,0c-.1,0,0,.3,0,.4,0,0,0,0,.1,0,.1,0,0-.2,0-.2,0,0,0,0,0-.1Z"/>
    <path class="st0" d="M181.1,61.6c.1-.4-.5-.4-.4,0,0,.7,0,1.5.2,2.2,0,.3.5.2.4,0-.1-.6-.1-1.3-.2-1.9,0,0,0-.1,0-.2Z"/>
    <path class="st0" d="M181.8,64.3c0,0,0,0,.1,0,0,0,.1,0,0-.1,0-.1,0-.3-.1-.4,0-.4-.2-.8-.2-1.3,0-.2-.2-.2-.2,0,0,.3,0,.5.1.8,0,.3.2.7.3,1Z"/>
    <path class="st0" d="M182.6,64.7c.1,0,0-.2,0-.3,0-.1-.2,0-.2,0,0,0,0,.1,0,.1,0,0,0,.1.1,0Z"/>
    <path class="st0" d="M168.1,53.3c0,0,.2,0,.2-.1,0-.2,0-.3.1-.5.2-.7.5-1.5.8-2.2.3-.8.6-1.5.7-2.4,0-.8,0-1.6-.2-2.5,0-.6-.2-1.2-.3-1.8,0-.3-.4-.1-.3.1.2.6.1,1.3,0,2,0,1.2-.2,2.3-.4,3.5-.2.9-.4,1.8-.6,2.7,0,.3-.1.7-.2,1.1,0,0,0,.2.1.2Z"/>
    <path class="st0" d="M168.9,56.6c0,.6.3,1.1.5,1.6.2.4.7.1.6-.2-.2-.5-.2-1-.2-1.5-.2-2.2-.5-3.4.3-5.6,0-.2.2-.5.3-.7,0,0,0-.1,0-.1,0,0-.1,0-.1.1-.4,1.1-.9,2.2-1.1,3.3-.2,1-.2,2,0,3.1Z"/>
    <path class="st0" d="M171.2,59.8c0-.5,0-1-.1-1.4-.1-1.2-.3-2.4-.2-3.6,0-.1,0-.2,0-.3,0,0,0-.1-.1-.2,0,0-.1,0-.1.1-.2,1.8-.1,3.7.1,5.5,0,.3.5.2.5,0Z"/>
    <path class="st0" d="M175.4,63.7c-.1-.3-.2-.6-.3-.8-.3-.7-.6-1.4-.8-2.2-.4-1.3-.8-2.6-.9-4,0-.3,0-.5,0-.8,0-.3-.3-.4-.3,0-.2,1-.1,2,0,2.9.1,1.1.3,2.2.7,3.3.1.4.2.7.4,1,.2.4.3,1,.8,1.2.3.1.7-.2.5-.5Z"/>
    <path class="st0" d="M175.5,61.2c0,0,0-.1-.2-.1-.2,0,0,.4,0,.5.2.7.3,1.5.7,2.2.1.2.5,0,.4-.2-.2-.6-.5-1.2-.7-1.9,0-.2-.1-.4-.2-.6Z"/>
    <path class="st0" d="M176.9,61.7c0-.1,0-.3-.2-.3-.1,0-.2.1-.2.2,0,1.2.2,2.5.9,3.6.3.4.6.8.9,1.2.3.3.7,0,.5-.4-.3-.3-.4-.7-.6-1.1-.5-1-1-2-1.3-3.1Z"/>
    <path class="st0" d="M174.2,86.4c-.2,1.4-.3,2.7-.3,4.1,0,.9,0,1.7,0,2.6,0,.9,0,1.8,0,2.7,0,.2,0,.5,0,.7,0,.5-.7.6-.7,0,0-.1,0-.3,0-.4,0-1.3-.2-2.6-.2-3.9,0-2.2.5-4.4,1.2-6.4,0,0,0-.1.1,0,0,.2,0,.4,0,.6Z"/>
    <path class="st0" d="M172.7,96.4l-.9.4c-.2-1.4-.3-2.9-.5-4.3,0-.2.2-.3.3,0,.4,1.3.7,2.6,1.1,3.9Z"/>
    <path class="st0" d="M170.6,97.4c-.2,0-.4.2-.5.2,0-.7-.2-1.3-.3-1.9,0-.4-.1-.8-.2-1.2,0-.3-.1-.6-.2-1,0-.1,0-.2.1-.2.3,0,.2.3.3.4.1.6.3,1.2.4,1.8.1.6.3,1.2.4,1.8Z"/>
    <path class="st0" d="M167.4,98.8c-.2,0-.4.2-.6.3,0-.3,0-.7,0-1,.1-.3.6-.1.5.2,0,.2,0,.4,0,.6Z"/>
    <path class="st0" d="M162.3,50.6c.2-.2.4-.4.6-.5.3-.3.6-.6.9-.9.8-.8,1.5-1.7,2.1-2.7,0-.2.3-.5,0-.5,0,0-.1,0-.2.2-.3.6-.7,1.1-1.2,1.6-.5.6-1.1,1.2-1.7,1.8-.3.2-.5.5-.8.8,0,0-.1.2,0,.3,0,0,.2.1.3,0Z"/>
    <path class="st0" d="M164.1,50.4c.1,0,.1-.2,0-.3,0,0-.2,0-.3,0,0,0,0,0,0,0-.3.2-.5.4-.8.6-.7.6-1.4,1.2-2,1.9-.2.2-.1.4,0,.6.2.2.4.1.6,0,.8-.8,1.6-1.7,2.3-2.6,0-.1.2-.2.3-.3Z"/>
    <path class="st0" d="M161.3,54.6c-.7,1-1.3,2-1.8,3.1-.6,1.1-1.2,2.1-1.7,3.2-.2.4-.4.7-.6,1.1,0,0,0,.2,0,.2.1,0,.2,0,.3-.1.4-.7.7-1.4,1.1-2.1,1-1.7,1.9-3.5,3-5.1.2-.3-.2-.5-.3-.2Z"/>
    <path class="st0" d="M160.3,58.7c-1.1,1.7-2.2,3.2-3,5.1-.1.5-.9,1.2-.3,1.6.7.3.8-1,1.1-1.4.6-1,1.1-2.1,1.6-3.2.3-.7.9-1.4,1.1-2.2,0-.3-.6-.2-.5,0Z"/>
    <path class="st0" d="M159.4,63.2c-.3.8-.7,1.5-1,2.3-.4,1.1-.8,2.1-1.1,3.2,0,0,0,.2.1.2,0,0,.2,0,.2-.1.2-.5.3-.9.5-1.4.5-1.4,1-2.8,1.6-4.2,0-.2-.3-.3-.3,0Z"/>
    <path class="st0" d="M158.8,67.1c-.2.7-.4,1.4-.6,2.1,0,0,0,0,0,0,0,.2-.2.5.1.6.4.1.5-1.1.7-1.4.1-.4.2-.7.4-1,.1-.4-.4-.5-.5-.2Z"/>
    <path class="st0" d="M178.7,67.5c0,1,.2,2,.3,3.1,0,.1.1.2.3.2.4,0,0-1.4,0-1.8,0-.6-.1-1.2-.1-1.8,0-.1,0-.3-.2-.3-.3,0-.2.4-.2.6Z"/>
    <path class="st0" d="M177.9,70.6c.2,1.1.4,2.2.5,3.3,0,.2.4.2.3,0-.2-1.1-.3-2.2-.5-3.3,0-.3-.4-.2-.3,0Z"/>
    <path class="st0" d="M176.9,75.1c0-.4-.2-.7-.3-1.1,0,0-.1-.1-.2,0-.1,0,0,.2,0,.3.1.5.3,1,.4,1.4.2.8.3,1.6.4,2.4.2,1.5.5,3,.6,4.5,0,.2.4.2.3,0,0-.6-.1-1.2-.2-1.8-.2-1.9-.5-3.8-.9-5.6Z"/>
    <path class="st0" d="M176.1,78.5c0,0,0-.2-.2-.2,0,0,0,.1,0,.2.3.9.4,1.8.5,2.6.2,1.2.3,2.4.4,3.6,0,.2.3.2.3,0,0-.9-.1-1.8-.2-2.8-.1-1.1-.3-2.3-.7-3.4Z"/>
    <path class="st0" d="M175.4,81.4c0-.2-.3-.2-.4,0,0,.1,0,.2,0,.3,0,.3.1.6.2.9,0,.6,0,1.2.1,1.7,0,.7.1,1.4.1,2.1,0,.5.7.4.7,0,0-1,0-2.1-.2-3.1-.1-.6-.3-1.3-.5-1.9Z"/>
    <path class="st0" d="M167.2,65.7c0,0,.2,0,.3-.1.3-1,.6-2,.9-3.1.2-.9.5-1.8.5-2.7,0-.5,0-1.1,0-1.6,0-.1-.2-.2-.3-.2-.1,0-.2.2-.2.3,0,.1,0,.2,0,.4,0,.5,0,.9,0,1.4,0,.6-.2,1.1-.3,1.6-.2.8-.4,1.6-.6,2.4-.1.5-.3.9-.4,1.4,0,.1,0,.3,0,.3Z"/>
    <path class="st0" d="M169.1,64c0-.2.2-.4.2-.6,0,0,0-.1,0-.2-.1-.2-.4-.1-.4,0-.4,1-.8,2-1.1,3-.1.4-.3.8-.4,1.2,0,.1,0,.2.2.3.1,0,.2,0,.3-.2.1-.3.2-.7.3-1,.3-.9.6-1.7.9-2.6Z"/>
    <path class="st0" d="M160.6,70.7c-.1,0-.2.1-.2.2-.1,1-.3,2-.3,2.9-.2,2.7-.2,5.3-.2,8,0,.1.1.2.2.2s.2,0,.2-.2c0-.4,0-.8,0-1.2,0-1.7,0-3.5.1-5.2,0-1.5,0-3,.3-4.5,0-.1,0-.2-.2-.2Z"/>
    <path class="st0" d="M161.6,81.9c0-1.9,0-3.8,0-5.6,0-.2-.3-.2-.2,0,0,1-.2,2.1-.1,3.1,0,1.3,0,2.6.1,3.9,0,.1.2.2.3,0,0,0,0-.2,0-.3,0-.4,0-.7,0-1.1Z"/>
    <path class="st0" d="M162.4,81.2c0,.8,0,1.6,0,2.4,0,.3.4.3.4,0,0-.6,0-1.2,0-1.9,0-.2,0-.3,0-.5,0,0,0-.2,0-.2-.1-.3-.5,0-.4.2Z"/>
    <path class="st0" d="M156.7,52.7s0,0,0,.1c0,.4-.3.7-.4,1-1,1.6-2.5,3-4.2,3.9-.3.1-.5.2-.8.3-.2,0-.4.1-.6.2-.2,0-.3.1-.3.3,0,.1.2.3.3.2.7-.1,1.5-.5,2.1-.8,1.7-.9,3.2-2.4,3.9-4.3,0-.2.4-1.1,0-.9Z"/>
    <path class="st0" d="M152.9,58.3c-.3.3-1.7.6-1.5,1,.3.5,1.1-.3,1.5-.4.3-.2,1.2-.6,1-1-.3-.3-.6.3-1,.4Z"/>
    <path class="st0" d="M149.1,63.9c.9-.2,1.7-.5,2.6-.9.2-.1,1-.5.6-.8-.2,0-.4,0-.6-.1-.6-.1-1.2-.2-1.8-.3.7-.1,1.4-.1,2.1-.3,0,0,.1,0,.2,0,.1,0,.2-.1.1-.2-.1-.2-.3,0-.4,0-.3,0-.6.1-1,.2-.4,0-.8,0-1.2,0-.2,0-.5,0-.7.2-.3.7,1.1.8,1.5.8.4,0,.8,0,1.3,0-.9.4-1.9.8-2.9,1-.1,0-.2.1-.1.2,0,.1.1.2.2.1Z"/>
    <path class="st0" d="M150.1,65.1c.4.1.5-.5.2-.6-.3,0-.6-.1-.9-.2-.5-.1-.9-.2-1.4-.3-.1,0-.3,0-.4.2-.1.5,2,.8,2.5,1Z"/>
    <path class="st0" d="M150.7,67.6c.4-.5-1.9-1.3-2.3-1.4-.4,0-.5.6,0,.7.7.3,1.3.5,1.9.9.1,0,.3,0,.4-.1Z"/>
    <path class="st0" d="M150,69.2c-.3-.1-.6-.2-.9-.4-.4-.4-1,.1-.5.5.4.2.8.4,1.2.5.4.2.7-.5.3-.6Z"/>
    <path class="st0" d="M152.7,70.7c0-.1,0-.3-.1-.3-.1,0-.2,0-.3.1-.8.8-1.4,1.7-2.1,2.7-.3.4-.7.9-1,1.3,0,.1,0,.3,0,.4.1,0,.3,0,.4,0,.4-.5.7-1,1.1-1.5.5-.6,1-1.3,1.5-1.9.2-.2.3-.4.4-.7Z"/>
    <path class="st0" d="M152.7,72.9c-.5.1-1,1.4-1.2,1.8,0,.4-1,1.7-.5,1.9.2,0,.3,0,.3-.3.3-.8.7-1.5,1-2.3,0-.3.8-1,.3-1.2Z"/>
    <path class="st0" d="M153.4,75.3c0,0-.1.2,0,.3,0,.5-.2,1-.2,1.5,0,.4-.5,1.6,0,1.7.5,0,.4-1.3.5-1.7,0-.4.5-2.1-.2-1.8Z"/>
    <path class="st0" d="M165.4,86.8c.3,1.7.8,3.4,1.1,5.1,0,.3.5.2.4-.1-.2-.7-.3-1.3-.5-2-.2-1-.5-2-.7-3,0-.3-.5-.3-.4,0Z"/>
    <path class="st0" d="M156.2,86.2c0,.7,0,1.5,0,2.2,0,.3.5.3.5,0,0-.9,0-1.7.1-2.6,0-.2,0-.4,0-.5-.6-.4-.5.6-.5.9Z"/>
    <path class="st0" d="M162.9,94.3c.2.6.3,1.2.3,1.9,0,.8,0,1.7,0,2.5,0,.6-.1,1.1-.2,1.7,0,.1,0,.2.2.2.1,0,.2,0,.2-.2,0-.4.1-.8.2-1.2.1-1.3.3-4.3-.4-5.3-.2-.1-.4.1-.2.3Z"/>
    <path class="st0" d="M154.8,77.5c0-.1-.3,0-.3,0,0,.4,0,.8-.1,1.2,0,.4,0,.8,0,1.2,0,.2,0,.5,0,.7,0,.2,0,.3.3.4.2,0,.4-.2.4-.4,0-.5.1-1,.1-1.6,0-.4,0-.8,0-1.2,0-.1,0-.3-.1-.4Z"/>
    <path class="st0" d="M155.7,80.6c0,0,0,.1,0,.2-.2.6-.3,1.3-.4,2,0,.1,0,.3.2.3.1,0,.3,0,.3-.2,0-.6.2-1.1.2-1.7,0-.2,0-.4,0-.6,0-.1-.2,0-.2,0Z"/>
    <path class="st0" d="M137.2,57.9c-.5.4-1,.8-1.5,1.2-1.9,1.7-3.8,3.4-5.4,5.5,0-.5-.1-1-.2-1.5,1.8-2,4.1-3.6,6.3-5.3.3-.2,1-.6.9.1Z"/>
    <path class="st0" d="M141.6,78.7c0,.1,0,.3,0,.3.4.2.6-.5.9-.7,1.3-1.4,2.7-2.9,4.1-4.2.1,0,.3-.1.3-.3-.3-.7-1.5.7-1.8,1-1.2,1.2-2.3,2.5-3.5,3.9Z"/>
    <path class="st0" d="M142.3,81.6c.3-.5.6-1,.9-1.4.7-1,1.4-1.9,2.3-2.7,0,0,.2,0,.2-.2,0-.2-.2-.4-.4-.2-.3.2-.6.5-.9.8-.6.6-1,1.2-1.5,1.9-.4.5-.7,1.1-1,1.6,0,.1,0,.2,0,.3.1,0,.2,0,.3,0Z"/>
    <path class="st0" d="M139.5,86.3c-.1.4-1.2,1.4-.8,1.8.5.2.9-1.2,1.2-1.5.1-.4,1.2-1.5.8-1.8-.5-.3-.9,1.2-1.2,1.5Z"/>
    <path class="st0" d="M142.2,57c.5-.2,4.1-.4,3.9-.9,0-.5-1.7,0-2.1,0-.6,0-1.3.2-1.9.3-.2.2-.1.5.1.6Z"/>
    <path class="st0" d="M141.5,59.6c.3,0,.8,0,.7-.4-.1-.4-.6,0-.9,0-.2,0-.7,0-.6.4.1.4.5,0,.8,0Z"/>
    <path class="st0" d="M136.4,64.6c.1,0,.2,0,.3-.1.3-.1.6-.3.9-.4,1.2-.5,2.4-1.1,3.7-1.6,0,0,.1-.1,0-.2,0,0-.1-.1-.2,0-.2,0-.4.2-.7.2-1,.4-2,.8-2.9,1.3-.1,0-1.7.9-1.3,1Z"/>
    <path class="st0" d="M143.1,64.4c.3,0,.2-.6-.1-.5-.9.3-1.8.6-2.7,1-.9.3-1.9.8-2.7,1.3-.2.2-.5.3-.7.5-.1,0-.1.3,0,.4,0,0,.3,0,.3,0,0,0,.1-.1.2-.2.8-.5,1.6-.9,2.5-1.3,1.1-.4,2.1-.8,3.2-1.2Z"/>
    <path class="st0" d="M146.4,81.5c-.9,1.7-1.9,3.3-2.7,5.1-.6,1.1-1,2.3-1.5,3.5-.2.5-.4.9-.5,1.4-.1.3-.2.7-.3,1,0,.1,0,.2.1.2.1,0,.2,0,.2-.1.1-.4.3-.8.4-1.2.9-2.4,2.1-4.8,3.2-7.1.4-.9,1-1.8,1.4-2.7,0-.3-.3-.3-.3,0Z"/>
    <path class="st0" d="M143.5,94.9c0,.1,0,.2.1.3.1,0,.2,0,.3-.1.4-1.4.8-2.7,1.2-4,.2-.6.3-1.1.5-1.7,0-.2.1-.4.1-.6,0-.1,0-.2-.2-.2,0,0-.1.1-.1.2-.4,1.3-.9,2.7-1.3,4-.2.7-.5,1.5-.7,2.2Z"/>
    <path class="st0" d="M168,33.8c0-.4,0-.9.2-1.3.5-1.2-.2-2-.7-3-.5-.8-1-1.7-1.7-2.4-1.2-1.3-2.6-2.4-3.7-3.8-.7-.7-1.4-1.5-2-2.3-.2-.3-.5,0-.3.2.3.6.7,1.2,1,1.7,0,0,0,.2,0,.3.4,1,.8,2.1,1.2,3.1-.6-.2-1.1-.5-1.6-.8-.2,0-.4-.3-.6-.2-.5.5,1.5,2.4,1.9,2.8.4.4.8.8,1.2,1.1.2.1.5.2.7.4.3.2.7,0,.6-.4,0-.1-.1-.2-.2-.3-.2-.1-.3-.3-.5-.5-1-.8-2.1-1.3-2.9-2.2.5.4,1.8,1.5,2.5,1.1.4-.3.4-.6.2-1,.7.8,1.4,1.5,2,2.3.8,1.2,1.5,2.4,2.2,3.7,0,.5,0,.9.1,1.4.1,1.2.3,2.3.5,3.5,0,.3.5.2.4,0-.1-.6-.2-1.1-.3-1.7,0-.5-.2-1.1-.2-1.7Z"/>
    <path class="st0" d="M164.3,30.7c.3.2.6-.3.2-.5-.4-.2-.7-.4-1.1-.5-.8-.3-1.6-.5-2.4-.8-.1,0-.2-.1-.3-.2,0,0,0,0-.1,0,0,0,0,0,0,.1.3.2.5.3.8.5.6.3,1.1.6,1.7.9.4.2.8.3,1.2.5Z"/>
    <path class="st0" d="M165.2,31.6c-.3-.1-.7-.3-1-.4-.6-.2-1.3-.2-1.9-.4,0,0-.1,0-.2,0-.1,0-.2.1-.1.2.3.3.8.6,1.2.8.2.1.5.3.7.3.3.1.7.2,1,.3.5.1.7-.6.3-.7Z"/>
    <path class="st0" d="M166.3,33.1c-.5,0-1.1,0-1.6,0-.1,0-.3,0-.5,0-.4.2-.2.9.3.8.6.1,1.1.1,1.7.2.6,0,.7-.9,0-.9Z"/>
    <path class="st0" d="M204.9,30.3c-.3,0-.6,0-.8.1-.6,0-1.2.2-1.8.3-.1,0-.2.1-.1.2,0,0,0,0,.1.1.2,0,.4.1.7.2.5,0,1,0,1.5,0,.2,0,.5,0,.7-.1.2,0,.3-.2.3-.4,0-.2-.2-.3-.4-.3Z"/>
    <path class="st0" d="M201.8,31.8c-.2,0-.4-.3-.6-.2-.6.4,1.2,1.4,1.5,1.5.4.1.7-.3.5-.6-.3-.4-1-.5-1.5-.6Z"/>
    <path class="st0" d="M172.1,52.3c0-.6,0-1.3.2-1.9,0,0,0-.2,0-.3-.1,0-.2,0-.2.2,0,.3-.1.6-.2.9-.1.9-.3,1.8,0,2.7,0,0,.1.1.2.1.2,0,0-.3.1-.5,0-.4,0-.8,0-1.2Z"/>
    <path class="st0" d="M173.3,52.5c0-.1-.2-.2-.3,0,0,.1,0,.2,0,.3-.1.7,0,1.4,0,2.1,0,.3.4.2.4,0,0-.4,0-.9,0-1.3,0-.3,0-.7,0-1Z"/>
    <path class="st0" d="M174.7,53.7c-.1,0-.2,0-.2.2,0,.2,0,.4,0,.5,0,.2,0,.4,0,.6,0,.1,0,.2.2.2,0,0,.2,0,.2-.2,0-.2,0-.4,0-.6,0-.2,0-.6-.1-.7Z"/>
    <path class="st0" d="M170.2,65.1c-.2.6-.3,1.2-.4,1.8,0,.5-.1.9-.1,1.4,0,.1,0,.2.2.2.1,0,.2,0,.2-.2,0-.2,0-.4,0-.6,0-.6.2-1.2.3-1.8,0-.2,0-.4.1-.6,0,0,0,0,0-.2,0-.2-.4-.3-.4,0Z"/>
    <path class="st0" d="M171.2,66.5c-.1,0-.2,0-.2.2-.2.8-.3,1.6-.4,2.5,0,.5,0,1-.1,1.4,0,.1,0,.3.2.3.4,0,.2-.5.3-.8,0-.5,0-.9.1-1.4,0-.6,0-1.1.2-1.7,0,0,0-.1,0-.2,0-.1,0-.3-.1-.3Z"/>
    <path class="st0" d="M163.8,72.3c-.1,0-.2.1-.1.2,0,.1,0,.3,0,.4-.2,2-.2,4-.2,6,0,.8,0,1.5,0,2.3,0,0,0,.1.1.2,0,0,.2,0,.2-.1,0-.7,0-1.5,0-2.2,0-2,.1-4,.3-6,0-.2,0-.3,0-.5,0-.1,0-.2-.2-.2Z"/>
    <path class="st0" d="M164.8,76.9c0,0,0,0,0,.1,0,1.9,0,3.8.3,5.8,0,.2.3.2.3,0,0-.5-.1-1.1-.1-1.6,0-1.3-.2-2.6-.2-3.9,0,0,0-.3-.1-.3Z"/>
    <path class="st0" d="M174,69.9c-.1-.2-.4,0-.3.2.1,1.1.3,2.2.4,3.2,0,.2.4.2.4,0,0-.8-.2-1.5-.3-2.3,0-.4,0-.8-.2-1.1Z"/>
  </g>
  <g>
    <path class="st0" d="M117,128.1c-1-.4-1.7-.8-2.6-1.1-5.8-1.8-11.8-3.2-17.8-4.4-2-.4-3.9-1.1-5.9-1.6-.3,0-.5-.2-.8-.3-1.4-.7-1.3-.9-1-2.1.6-2.4,1.1-4.8,1.7-7.2.1-.5.3-.7.8-.8,5.2-1.2,10.3-2.3,15.5-3.6,1.3-.3,2.5-.8,3.7-1.3,1.3-.6,1.4-1,.8-2.3-1.6-3.4-3.2-6.8-4.7-10.3-1-2.3-1.8-4.7-2.5-7-.3-.9-.6-1.5-1.5-1.7-.6-.1-.7-.5-.6-1.1.6-2.5,1.2-5.1,1.8-7.6,0-.2.2-.4.3-.6.2.1.4.2.6.4,3,3.1,5.9,6.1,8.9,9.2.2.3.4.6.5.9-.4.1-.7.4-1.1.4-.9,0-1.8-.1-2.9-.2.8,1.7,1.6,3.4,2.4,5,2,3.9,3.1,8.1,2.7,12.5-.3,3.1-1.2,6-3,8.6-.5.7-1.1,1.4-1.7,1.9-.6.6-1.3,1-2.1,1.6.9.3,1.7.5,2.6.7,2,.7,4.1,1.4,6,2.2,3.7,1.5,4.5,4.5,4.2,7.6-.5,5.9-3.4,10.5-7.9,14.1-8.2,6.7-17.2,12.2-27.2,15.8-4.6,1.6-9.3,2.7-14.2,2.6-5.4,0-10.5-1.1-15-4.1-5.2-3.5-8.1-8.5-9.5-14.5-1.3-5.5-.9-11,.4-16.5,1-4.3,2.5-8.4,4.7-12.2.3-.4.6-.9.9-1.2.1-.1.4-.2.6-.1.1,0,.2.4.2.5,0,.4-.2.8-.4,1.2-1.4,3.7-2.6,7.5-3.3,11.4-.7,4.4-.8,8.7.6,13,2,6.1,6.4,9.7,12.4,11.7,5.4,1.8,10.9,1.6,16.4.4,7.6-1.7,14.5-4.9,21.1-8.8,5-2.9,9.8-6.2,14.3-9.8.5-.4,1-.9,1.7-1.5Z"/>
    <path class="st0" d="M194.7,129.6c-.4-1-.9-1.9-1.4-2.8-1.7-3-3.9-5.5-6.9-7.4-.3-.2-.7-.4-1-.6-2.6-1.4-4.8-1.3-7.2.5-.2.2-.5.4-.7.6-4.3,3.8-6,8.8-5.5,14.4.3,3.6,2.4,5.9,5.6,6.7.4,0,.8.2,1.2.2,1.6.2,3.3,0,5,0h0c.4,0,.8,0,1.3,0,1.4,0,2.8-.1,4.2,0,.9.1,1.8.3,2.6.7,1.6.7,2.8,1.9,3.5,3.8.1.3,0,.9-.2,1.1-1.3,1.1-2.5,2.3-3.9,3,0,0,0,0-.1,0-2.3,1.1-4.8,2-7.2,3,0,0,0,0-.1,0-2.5,1-5.1,1.9-7.6,2.9-1.6.6-3.1,1.3-4.6,1.9-.9.4-1.8.8-2.6,1.3-5.1,2.7-9.5,6.4-13.5,10.7-5.7,6.1-11.6,12-18.2,17.1-2.1,1.7-4.5,2.9-7.1,3.6-5.7,1.4-10-1.4-11.1-7.1-.7-4-.3-7.9.8-11.8,1.1-3.7,2.6-7.3,4.3-10.8.4-.8.7-1.6,1-2.4h0c-.1-.4-.2-.8-.4-1.2-.2,0-.5.2-.6.4-.4.4-.7.9-1,1.4-2.3,3.7-3.9,7.7-5.3,11.8-1.7,5.2-2.1,10.5-1,15.8.8,4,2.6,7.5,6,9.9,4.2,2.9,8.6,3.6,13.2.9,1.5-.9,2.9-1.9,4.2-3,4.7-3.7,8.9-8,13-12.4,3.2-3.4,6.4-6.9,10.1-9.7,1.7-1.3,3.5-2.5,5.4-3.6,2.2-1.3,4.4-2.4,6.7-3.4,1.8-.8,3.6-1.5,5.4-2.2.7-.3,1.3-.5,2-.8,2.4-1,4.9-2,7.2-3.2,0,0,0,0,0,0,1.9-.9,3.4-2.3,4.4-4.2,1.7-2.9,2.5-6.1,2.8-9.4.4-5.6-.6-11-2.8-16.1ZM186.1,131.6c-1.6.1-3.2.3-4.8.3-.9,0-1.8-.1-2.6-.3-.3,0-.7-.2-1-.3-.9-.3-.9-.7-.5-1.6.4-.8,1-1.3,1.8-1.7,1-.5,2.3-.6,3.5-.3,1.5.4,2.7,1.3,3.7,2.3.5.4.9.9,1.3,1.4-.5,0-1,0-1.5.1Z"/>
    <path class="st0" d="M152.4,154.9c-1.6,4.5-5.1,6.6-9.5,7.4-6.5,1.1-11.7-2.6-14.4-8-.6-1.2-1.1-2.4-1.5-3.7h0c-.1-.4-.2-.8-.4-1.2-.5-1.9-.8-3.8-.9-5.7-.2-3.3-.4-6.6-.6-10-.2-3.1-.3-6.2-.5-9.4,0-.6,0-1.2-.1-1.8-.4-7-.9-14.1-1.5-21.1-.3-4-.7-8.1-1-12.1-.1-1.5-.3-2.9-.4-4.4,0-.4,0-.9-.1-1.3-.5-5.5-3.7-25.1-5.1-30.5-.1-.5,0-1.1.1-1.6.9-2.4,2-4.8,2.9-7.2.1-.3.3-.5.4-.8,0,0,.2,0,.3,0,0,.2.2.5.3.7.9,5,2,10.1,2.6,15.1.5,3.9,2.4,17.5,3.2,23.1.2,1.5.4,2.9.5,4.3.4,3.1.7,6,.9,8.3.6,7.3,1,14.6,1.4,21.9.1,2,.2,4.1.3,6.1h0c.2,3.1.3,6.2.5,9.3,0,1.1.1,2.1.2,3.2.2,3.4.8,6.8,2,10,2.1,5.5,6.6,7.3,11.7,6.9,2.1-.2,4.1-1.1,5.9-2.1,1.1-.7,1.3-.9.9-2.1-.6-2.3-1.3-4.5-2.1-6.8-.5-1.5-1.4-2.8-2.1-4.3-.2-.3-.2-.7-.2-1.1.4-2.7.9-5.4,1.4-8.1,0-.2.1-.5.2-.7.1,0,.2-.2.4-.3.2.3.3.6.5.9,2.9,4,4.5,8.5,5.2,13.3.6,4.6,0,9-1.5,13.3Z"/>
    <path class="st0" d="M164.3,135.4c2.4,1.3,4.7,2.6,7,3.9.7.4.8.7.4,1.4-1.4,2.4-2.8,4.9-4.2,7.4-.3.5-.5.6-1.1.4-2.5-1.2-4.9-2.3-7.4-3.5-.6-.3-.7-.6-.3-1.1,1.5-2.5,3-5,4.4-7.6.2-.3.3-.6.5-.9-.2-.2-.5-.3-.7-.4-2.2-1.2-4.3-2.4-6.5-3.6-.6-.3-.7-.6-.4-1.2,1.5-2.6,3.1-5.2,4.6-7.8.1-.2.6-.4.9-.3,2.6,1.2,5.1,2.4,7.6,3.6.6.3.5.6.2,1.1-1.6,2.6-3.1,5.2-4.6,7.8-.2.3-.3.5-.5.9Z"/>
    <path class="st0" d="M140.7,170c-.1.3-.2.4-.3.6-1.1,2.4-2.3,4.9-3.4,7.3-.3.6-.6.7-1.2.4-2.6-1.4-5.1-2.7-7.7-4-.6-.3-.7-.6-.4-1.2,1.1-2.4,2.3-4.8,3.3-7.2.3-.6.6-.8,1.2-.5,2.6,1.4,5.1,2.7,7.7,4,.3.1.5.4.7.6Z"/>
    <path class="st0" d="M103.1,162c2.7-1.2,5.6-2,8.2-3.8-1.4-.4-2.6-.5-3.8-.4-1.2,0-2.5.2-3.8.3,0-.2,0-.4.2-.6.6-1,1.2-2,1.8-3,.2-.3.4-.5.9-.6,2.3-.2,4.5-.2,6.7.4.5.1,1,.4,1.6.6-1.2,2.1-2,4.1-3.8,5.7-.6.5-1.2.9-2,1-1.8.2-3.6.5-5.4.7-.2,0-.4,0-.5,0,0,0,0-.1,0-.2Z"/>
    <path class="st0" d="M196.4,98.4c.5.4.9.7,1.4,1.1-.4.7-.8,1.4-1.2,2.2-.5-.3-1-.6-1.5-.9-.1,0-.2.1-.3.2-3.2,4.2-7.1,7.4-11.9,9.6-1.1.5-2.2,1.1-3.3,1.7-.3.2-.7.2-1,.3,0,0,0-.2-.1-.3.4-.3.8-.6,1.2-.9,2.8-1.9,5.6-3.8,8.4-5.8,1.7-1.3,3.3-2.8,4.9-4.2.5-.4.9-.9,1.3-1.5-.5-.4-1-.7-1.4-1-1.6-1.3-1.8-2.9-.4-4.5.7-.9,1.6-1.5,2.7-1.8,1.1-.3,1.9.2,2.1,1.4,0,.8,0,1.6-.1,2.4,0,.6-.3,1.1-.6,1.7ZM195.3,97.7c.4-1.1.2-2.1-.3-2.4-.5-.3-1.3,0-1.9.6.5.9,1.3,1.3,2.2,1.9Z"/>
    <path class="st0" d="M110.4,183.7c-.6-.7-1-1.2-1.5-1.7-1-.9-1.9-.9-2.5.2-1,1.8-1.7,3.7-2.5,5.6-.9,2.1-1.7,4.2-2.6,6.3-.3.7-.7,1.4-1.9,1.4-.2-4.1-.1-8.3-1.9-12.4-1.2.8-2,0-2.8-.6-.8-.7-1.4-1.5-1.4-2.6,0-.7,1.8-3.1,2.5-3.1.5,0,1.1.2,1.5.5,1.5.9,2.5,2.4,2.9,4,.6,2.1.9,4.2,1.2,6.3.1.6,0,1.3.1,2.4.4-.6.6-.9.7-1.2,1.1-2.7,2.2-5.3,3.4-8,.5-1,1.2-2,1.9-2.8,1-1,2.1-.9,3,.2.6.7.9,1.5,1.4,2.3.3.5.2,1-.2,1.5-.4.4-.7.9-1.2,1.6Z"/>
    <path class="st0" d="M81.2,129.4c-.6-.7-1-1.2-1.5-1.7-1-.9-1.9-.9-2.5.2-1,1.8-1.7,3.7-2.5,5.6-.9,2.1-1.7,4.2-2.6,6.3-.3.7-.7,1.4-1.9,1.4-.2-4.1-.1-8.3-1.9-12.4-1.2.8-2,0-2.8-.6-.8-.7-1.4-1.5-1.4-2.6,0-.7,1.8-3.1,2.5-3.1.5,0,1.1.2,1.5.5,1.5.9,2.5,2.4,2.9,4,.6,2.1.9,4.2,1.2,6.3.1.6,0,1.3.1,2.4.4-.6.6-.9.7-1.2,1.1-2.7,2.2-5.3,3.4-8,.5-1,1.2-2,1.9-2.8,1-1,2.1-.9,3,.2.6.7.9,1.5,1.4,2.3.3.5.2,1-.2,1.5-.4.4-.7.9-1.2,1.6Z"/>
    <path class="st0" d="M72.7,165c.8,1,.3,2.1.4,3.3.5,0,.9.1,1.4.2,1.5.3,2.5,1.2,2.7,2.7.3,1.7.1,3.5-.6,5.1-.4.8-1,1.5-1.7,2-2,1.4-4.4.4-5-1.9-.4-1.3-.3-2.5,0-3.8.1-.5.3-.9.5-1.4.8-2,2.1-3.9,2.3-6.2ZM71.7,171.7c-1.1,1.7-.2,3.4,1.6,3.6.6,0,1.2,0,1.7-.2,1.5-.5,1.7-1.6.4-2.7-1.1-.9-2.5-1.1-3.8-.8Z"/>
    <path class="st0" d="M91.5,158.1c0,.7-.1,1.4-.3,2-.4,1.8-1,3.5-1.4,5.3-.2.9,0,1.8,0,2.7,0,.7.5,1.3,1.3,1.3.8,0,1.3-.4,1.6-1.1.3-.6.4-1.2.7-2.1.1.5.2.7.2.9,0,1.3,0,2.5-.6,3.6-.2.4-.5.8-.8,1.1-1.1,1.1-2.2,1-3.2-.2-1.2-1.5-1.2-3.3-.8-5.1.2-1.1.6-2.1.9-3.2.6-1.7,1.2-3.4,1.8-5.1,0,0,.1-.2.2-.2,0,0,.2,0,.3,0Z"/>
    <path class="st0" d="M83.7,55.1c0,.6-.1,1.2-.3,1.7-.4,1.5-.9,3-1.2,4.5-.2.7,0,1.5,0,2.3,0,.6.4,1.1,1.1,1.1.7,0,1.1-.3,1.4-.9.2-.5.4-1.1.6-1.8.1.4.2.6.2.8,0,1.1,0,2.1-.5,3.1-.2.3-.4.7-.7.9-.9.9-1.9.8-2.7-.2-1-1.3-1-2.8-.7-4.3.2-.9.5-1.8.8-2.7.5-1.5,1-2.9,1.5-4.4,0,0,.1-.1.2-.2,0,0,.2,0,.2,0Z"/>
    <path class="st0" d="M200,108.6c0,.7-.1,1.4-.3,2-.4,1.8-1,3.5-1.4,5.3-.2.9,0,1.8,0,2.7,0,.7.5,1.3,1.3,1.3.8,0,1.3-.4,1.6-1.1.3-.6.4-1.2.7-2.1.1.5.2.7.2.9,0,1.3,0,2.5-.6,3.6-.2.4-.5.8-.8,1.1-1.1,1.1-2.2,1-3.2-.2-1.2-1.5-1.2-3.3-.8-5.1.2-1.1.6-2.1.9-3.2.6-1.7,1.2-3.4,1.8-5.1,0,0,.1-.2.2-.2,0,0,.2,0,.3,0Z"/>
    <path class="st0" d="M167.9,172.7c0,.7-.1,1.4-.3,2-.4,1.8-1,3.5-1.4,5.3-.2.9,0,1.8,0,2.7,0,.7.5,1.3,1.3,1.3.8,0,1.3-.4,1.6-1.1.3-.6.4-1.2.7-2.1.1.5.2.7.2.9,0,1.3,0,2.5-.6,3.6-.2.4-.5.8-.8,1.1-1.1,1.1-2.2,1-3.2-.2-1.2-1.5-1.2-3.3-.8-5.1.2-1.1.6-2.1.9-3.2.6-1.7,1.2-3.4,1.8-5.1,0,0,.1-.2.2-.2,0,0,.2,0,.3,0Z"/>
    <circle class="st0" cx="103.1" cy="55.6" r="8.9"/>
    <path class="st0" d="M176.4,102l-2.1,1.1h0c-.1,0-.3,0-.4.1-12.7,5.6-25.4,11.2-38.2,16.8-.2,0-.3.1-.5.2l-2.2,5.2c14-6.2,27.5-12.1,40.9-18l2.4-5.4Z"/>
    <g>
      <g>
        <path class="st0" d="M59.9,93.1c.7.9,1.3,1.8,1.9,2.8.6,1,1,2.1,1.4,3.2.4,1.1.6,2.3.7,3.4.1,1.1,0,2.3-.2,3.5,0,0,0,.1,0,.2,0,0,0,.2,0,.3,0,0,0,.2-.1.3,0,0-.1.1-.2.1s0,0-.1-.1c0,0,0-.2,0-.3,0,0,0-.2,0-.3,0-.1,0-.2,0-.2,0-.9-.2-1.8-.4-2.6-.2-.8-.4-1.7-.7-2.5-.3-.8-.7-1.6-1.1-2.3-.4-.8-.9-1.5-1.4-2.3,0-.1-.1-.2-.2-.3,0,0-.2-.2-.2-.4,0,0,0-.1,0-.3,0-.1,0-.3,0-.5,0-.2,0-.4.1-.6,0-.2,0-.4.1-.6,0-.2,0-.4.1-.5,0-.1,0-.2.1-.3,0,0,.1,0,.1,0s0,0,.1.1Z"/>
        <path class="st0" d="M63.3,107.1c0,0-.2,0-.3-.2,0,0,0-.2,0-.3,0-.1,0-.2,0-.3,0-.1,0-.2,0-.2,0-.9-.2-1.8-.4-2.6-.2-.8-.4-1.6-.7-2.4-.3-.8-.7-1.6-1.1-2.3-.4-.8-.9-1.5-1.4-2.3,0-.1-.1-.2-.2-.3,0-.1-.2-.3-.2-.4,0,0,0-.1,0-.4,0-.1,0-.3,0-.5,0-.2,0-.4.1-.6,0-.2,0-.4.1-.6,0-.2,0-.4.1-.5,0-.2.1-.3.2-.3h0s0,0,0,0c0,0,.2,0,.3,0,0,0,0,0,.1.1h0c.7.9,1.3,1.9,1.9,2.9.6,1,1,2.1,1.4,3.3.4,1.1.6,2.3.7,3.5.1,1.2,0,2.3-.2,3.5,0,0,0,.1,0,.2,0,.1,0,.2,0,.3,0,.1,0,.2-.2.3-.1.2-.2.2-.3.2ZM59.8,93.2s0,0,0,.1c0,.1,0,.3-.1.5,0,.2,0,.4-.1.6,0,.2,0,.4,0,.6,0,.2,0,.4,0,.5,0,.2,0,.2,0,.2,0,0,0,.2.2.3,0,.1.2.2.2.3.5.7,1,1.5,1.4,2.3.4.8.8,1.6,1.1,2.4.3.8.6,1.6.7,2.5.2.8.3,1.7.4,2.7,0,0,0,.1,0,.2,0,0,0,.2,0,.3,0,0,0,.1,0,.2,0,0,0,0,0,0,0,0,0-.1.1-.2,0,0,0-.2,0-.3,0,0,0-.2,0-.2.2-1.1.3-2.3.2-3.4-.1-1.1-.4-2.3-.7-3.4-.4-1.1-.8-2.2-1.4-3.2-.6-1-1.2-1.9-1.9-2.8,0,0,0,0,0,0Z"/>
      </g>
      <g>
        <path class="st0" d="M68.5,103.6c0,0,0,.2.2.3.1.1.3.2.5.3.2,0,.5.1.8.2.3,0,.6,0,.9,0,.2,0,.4,0,.6,0,.2,0,.4,0,.6-.1.2,0,.5-.1.7-.2.2,0,.5-.2.8-.3,0,0,.1,0,.1,0,0,0,0,.2,0,.2-.2.3-.5.7-.8,1.1s-.7.7-1.1,1c-.4.3-.9.5-1.4.7-.5.2-1.1.3-1.7.3s-.4,0-.6-.1c-.2,0-.4-.2-.5-.3-.1-.2-.3-.4-.3-.6,0-.2,0-.6,0-.9,0-.3.1-.7.3-1.1.2-.4.3-.8.5-1.2s.4-.7.5-1c.2-.3.2-.5.3-.6,0-.1,0-.2-.1-.3-.1-.1-.3-.2-.5-.3-.2-.1-.4-.2-.7-.3-.2-.1-.5-.2-.7-.4-.3-.2-.4-.5-.6-.8-.1-.3-.1-.7-.1-1.1,0-.4.1-.8.3-1.2.2-.4.3-.8.5-1.1.2-.4.4-.8.8-1.2.3-.4.8-.8,1.3-1.2,0,0,.1,0,.2-.1,0,0,.1,0,.2,0s0,0,.1.1c0,0,0,.1,0,.2,0,.2-.2.5-.2.8,0,.3-.2.7-.3,1-.2,0-.4.2-.5.3s-.4.2-.5.3c-.2.1-.3.2-.4.4,0,.1-.1.3-.1.5,0,.2,0,.4.3.5.2.1.4.2.7.3.3.1.6.2.9.3.3.1.5.3.7.5.2.2.3.4.3.7,0,.3,0,.6,0,.8,0,.2-.1.4-.2.7-.1.2-.2.5-.3.8-.1.3-.3.5-.4.8-.1.3-.3.5-.4.7-.1.2-.2.4-.3.5,0,.1-.1.2,0,.3Z"/>
        <path class="st0" d="M68.7,107.1c-.2,0-.4,0-.7-.1-.2,0-.4-.2-.6-.4-.2-.2-.3-.4-.4-.7,0-.3-.1-.6,0-1,0-.3.1-.7.3-1.1.2-.4.3-.8.5-1.2.2-.4.4-.7.5-1,.2-.4.2-.5.2-.5,0,0,0-.1,0-.1-.1,0-.3-.2-.5-.3-.2-.1-.4-.2-.7-.3-.3-.1-.5-.3-.7-.4-.3-.3-.5-.5-.6-.8-.1-.3-.2-.7-.1-1.2,0-.4.1-.9.3-1.3.2-.4.3-.8.5-1.2.2-.4.5-.8.8-1.2.3-.4.8-.9,1.3-1.3,0,0,.2-.1.3-.1.1,0,.2,0,.3,0,0,0,.1.1.2.2,0,.1,0,.2,0,.3,0,.2-.2.5-.2.8,0,.3-.2.7-.3,1h0c0,0,0,.1,0,.1-.2,0-.4.2-.5.3-.2,0-.3.2-.5.3-.1.1-.2.2-.3.4,0,.1-.1.3-.1.4,0,.1,0,.2.2.3.2.1.4.2.7.3.3.1.6.2.9.3.3.1.6.3.8.6.2.2.3.5.3.8,0,.3,0,.6,0,.9,0,.2-.1.4-.2.7-.1.2-.2.5-.4.8-.1.3-.3.5-.4.8-.1.3-.3.5-.4.7s-.2.4-.3.5c0,.1,0,.2,0,.2h0s0,0,0,0c0,0,0,0,.1.2.1,0,.3.2.4.2.2,0,.4.1.7.2.3,0,.6,0,.9,0,.2,0,.4,0,.6,0,.2,0,.4,0,.6-.1.2,0,.5-.1.7-.2.2,0,.5-.2.8-.3,0,0,.2,0,.2,0,0,0,.1.1.1.2,0,.2,0,.3,0,.3-.2.3-.5.7-.8,1.1-.3.4-.7.7-1.1,1-.4.3-.9.6-1.5.8-.5.2-1.1.3-1.8.3ZM69.3,93.2s0,0,0,0c0,0,0,0,0,0-.5.4-.9.8-1.3,1.2-.3.4-.6.8-.8,1.1-.2.3-.3.7-.5,1.1-.2.4-.3.8-.3,1.2,0,.5,0,.8.1,1.1.1.3.3.5.5.7.2.1.4.2.6.4.2.1.5.2.7.4.2.1.4.2.5.3.3.2.2.4.2.5,0,0,0,.2-.3.6-.2.3-.3.6-.5,1-.2.4-.4.8-.5,1.2-.2.4-.2.7-.3,1,0,.3,0,.6,0,.9,0,.2.2.4.3.5.1.1.3.2.4.3.2,0,.4,0,.5,0,.6,0,1.1,0,1.7-.3.5-.2,1-.4,1.4-.7.4-.3.8-.6,1.1-1,.3-.3.5-.7.7-1-.2.1-.5.2-.7.3-.3,0-.5.2-.7.2-.2,0-.4.1-.7.2-.2,0-.4,0-.6,0-.3,0-.7,0-1,0-.3,0-.6,0-.8-.2-.2,0-.4-.2-.6-.3-.2-.1-.2-.3-.2-.4,0,0,0-.2.1-.4,0-.1.2-.3.3-.6.1-.2.2-.5.4-.7.1-.3.3-.5.4-.8.1-.3.2-.5.3-.8,0-.2.2-.4.2-.6,0-.3,0-.5,0-.8,0-.2-.1-.4-.3-.6-.2-.2-.4-.3-.6-.5-.3-.1-.6-.2-.8-.3-.3-.1-.5-.2-.7-.3-.3-.2-.4-.4-.4-.6,0-.2,0-.4.2-.6.1-.2.2-.3.4-.4.2-.1.3-.2.5-.3.2,0,.3-.2.5-.2.1-.3.2-.7.3-1,0-.3.2-.6.3-.8,0,0,0,0,0,0,0,0,0,0,0,0,0,0,0,0,0,0Z"/>
      </g>
      <g>
        <path class="st0" d="M77.5,103.6c0,0,0,.2.2.3.1.1.3.2.5.3.2,0,.5.1.8.2.3,0,.6,0,.9,0,.2,0,.4,0,.6,0,.2,0,.4,0,.6-.1.2,0,.5-.1.7-.2.2,0,.5-.2.8-.3,0,0,.1,0,.1,0,0,0,0,.2,0,.2-.2.3-.5.7-.8,1.1-.3.4-.7.7-1.1,1-.4.3-.9.5-1.4.7-.5.2-1.1.3-1.7.3s-.4,0-.6-.1c-.2,0-.4-.2-.5-.3-.1-.2-.3-.4-.3-.6,0-.2,0-.6,0-.9,0-.3.1-.7.3-1.1.2-.4.3-.8.5-1.2.2-.4.4-.7.5-1,.2-.3.2-.5.3-.6,0-.1,0-.2-.1-.3-.1-.1-.3-.2-.5-.3-.2-.1-.4-.2-.7-.3-.2-.1-.5-.2-.7-.4-.3-.2-.4-.5-.6-.8-.1-.3-.1-.7-.1-1.1,0-.4.1-.8.3-1.2.2-.4.3-.8.5-1.1.2-.4.4-.8.8-1.2.3-.4.8-.8,1.3-1.2,0,0,.1,0,.2-.1,0,0,.1,0,.2,0s0,0,.1.1c0,0,0,.1,0,.2,0,.2-.2.5-.2.8,0,.3-.2.7-.3,1-.2,0-.4.2-.5.3-.2,0-.4.2-.5.3-.2.1-.3.2-.4.4,0,.1-.1.3-.1.5,0,.2,0,.4.3.5.2.1.4.2.7.3.3.1.6.2.9.3.3.1.5.3.7.5.2.2.3.4.3.7,0,.3,0,.6,0,.8,0,.2-.1.4-.2.7-.1.2-.2.5-.3.8-.1.3-.3.5-.4.8-.1.3-.3.5-.4.7-.1.2-.2.4-.3.5,0,.1-.1.2,0,.3Z"/>
        <path class="st0" d="M77.7,107.1c-.2,0-.4,0-.7-.1-.2,0-.4-.2-.6-.4-.2-.2-.3-.4-.4-.7,0-.3-.1-.6,0-1,0-.3.1-.7.3-1.1.2-.4.4-.8.5-1.2.2-.4.4-.7.5-1,.2-.4.2-.5.2-.5,0,0,0-.1,0-.1-.1,0-.3-.2-.5-.3-.2-.1-.4-.2-.7-.3-.3-.1-.5-.3-.7-.4-.3-.3-.5-.5-.6-.8-.1-.3-.2-.7-.1-1.2,0-.4.1-.9.3-1.3.2-.4.3-.8.5-1.2.2-.4.5-.8.8-1.2.3-.4.8-.9,1.3-1.3,0,0,.2-.1.3-.1.1,0,.2,0,.3,0,0,0,.1.1.2.2,0,.1,0,.2,0,.3,0,.2-.2.5-.2.8,0,.3-.2.7-.3,1h0c0,0,0,.1,0,.1-.2,0-.4.2-.5.3-.2,0-.3.2-.5.3-.1.1-.2.2-.3.4,0,.1-.1.3-.1.4,0,.1,0,.2.2.3.2.1.4.2.7.3.3.1.6.2.9.3.3.1.6.3.8.6.2.2.3.5.3.8,0,.3,0,.6,0,.9,0,.2-.1.4-.2.7-.1.2-.2.5-.4.8-.1.3-.3.5-.4.8-.1.3-.3.5-.4.7-.1.2-.2.4-.3.5,0,.1,0,.2,0,.2h0s0,0,0,0c0,0,0,0,.1.2.1,0,.3.2.4.2.2,0,.4.1.7.2.3,0,.6,0,.9,0,.2,0,.4,0,.6,0,.2,0,.4,0,.6-.1.2,0,.5-.1.7-.2.2,0,.5-.2.8-.3,0,0,.2,0,.2,0,0,0,.1.1.1.2,0,.2,0,.3,0,.3-.2.3-.5.7-.8,1.1-.3.4-.7.7-1.1,1-.4.3-.9.6-1.5.8-.5.2-1.1.3-1.8.3ZM78.2,93.2s0,0,0,0c0,0,0,0,0,0-.5.4-.9.8-1.3,1.2-.3.4-.6.8-.8,1.1-.2.3-.3.7-.5,1.1-.2.4-.3.8-.3,1.2,0,.5,0,.8.1,1.1.1.2.3.5.5.7.2.1.4.2.6.4.2.1.5.2.7.4.2.1.4.2.5.3.3.2.2.4.2.5,0,0,0,.2-.3.6-.2.3-.3.6-.5,1-.2.4-.4.8-.5,1.2-.2.4-.2.7-.3,1,0,.3,0,.6,0,.9,0,.2.2.4.3.5.1.1.3.2.4.3.2,0,.4,0,.5,0,.6,0,1.1,0,1.7-.3.5-.2,1-.4,1.4-.7.4-.3.8-.6,1.1-1,.3-.3.5-.7.7-1-.2.1-.5.2-.7.3-.3,0-.5.2-.7.2-.2,0-.4.1-.7.2-.2,0-.4,0-.6,0-.3,0-.7,0-1,0-.3,0-.6,0-.8-.2-.2,0-.4-.2-.6-.3-.2-.1-.2-.3-.2-.4,0,0,0-.2.1-.4,0-.1.2-.3.3-.6.1-.2.2-.5.4-.7.1-.3.3-.5.4-.8.1-.3.2-.5.3-.8,0-.2.2-.4.2-.6,0-.3,0-.5,0-.8,0-.2-.1-.4-.3-.6-.2-.2-.4-.3-.6-.5-.3-.1-.6-.2-.8-.3-.3-.1-.5-.2-.7-.3-.3-.2-.4-.4-.4-.6,0-.2,0-.4.2-.6.1-.2.2-.3.4-.4.2-.1.3-.2.5-.3.2,0,.3-.2.5-.2.1-.3.2-.7.3-1,0-.3.2-.6.3-.8,0,0,0,0,0,0,0,0,0,0,0,0,0,0,0,0,0,0Z"/>
      </g>
      <g>
        <path class="st0" d="M87.9,93.4c.4,0,.7,0,1,0,.2,0,.4.2.5.4.1.2.2.4.2.7,0,.3,0,.5.1.8,0,.7.2,1.5.2,2.2,0,.8.2,1.5.3,2.2.1.7.3,1.4.5,2.1.2.7.5,1.3.8,2,0,.1,0,.2,0,.2,0,0,0,.1,0,.2s0,.1,0,.2,0,.1,0,.2c0,.3-.2.6-.3,1-.1.4-.2.7-.3.9,0,.2-.1.3-.2.3-.1,0-.2,0-.3-.3-.2-.4-.4-.8-.6-1.2-.2-.4-.3-.9-.4-1.3-.1-.5-.2-.9-.3-1.4,0-.5-.2-.9-.2-1.3-.1-.7-.2-1.4-.2-2.2,0-.8-.1-1.6-.2-2.5,0-.1,0-.2-.1-.3,0,0-.2,0-.3,0-.5,0-1.1.2-1.6.2-.5,0-1.1,0-1.7,0-.2,0-.4,0-.6-.1-.2,0-.4-.1-.6-.2-.2-.1-.3-.2-.5-.4-.1-.2-.2-.4-.3-.6,0-.4,0-.8,0-1.1,0-.4,0-.7,0-1,0,0,0-.1,0-.2,0,0,0,0,.1,0s0,0,.1,0c0,0,0,0,0,.1,0,0,0,0,.2.2.1,0,.3.1.5.2.2,0,.4.1.6.2s.5,0,.7,0c.5,0,.9,0,1.3,0,.4,0,.9-.1,1.3-.2Z"/>
        <path class="st0" d="M90.8,107.1c-.2,0-.3-.1-.4-.3-.2-.4-.4-.8-.6-1.2-.2-.4-.3-.9-.5-1.3-.1-.5-.2-.9-.3-1.4,0-.5-.2-.9-.2-1.3-.1-.7-.2-1.4-.2-2.2l-.2-2.5c0,0,0-.1,0-.1,0,0,0,0-.2,0-.5,0-1.1.2-1.6.2-.6,0-1.1,0-1.7,0-.2,0-.4,0-.7-.1-.2,0-.4-.2-.6-.3-.2-.1-.4-.3-.5-.5-.1-.2-.2-.4-.3-.7,0-.4,0-.8,0-1.2,0-.4,0-.7,0-1,0,0,0-.1,0-.2,0-.2.4-.2.6,0,0,0,0,.1.1.2,0,0,0,0,.1,0,.1,0,.3.1.5.2.2,0,.4.1.6.2.2,0,.4,0,.6,0,.4,0,.9,0,1.3,0,.4,0,.9-.1,1.3-.2h0c.5,0,.8,0,1.1,0,.3.1.5.3.6.5.1.2.2.5.2.8,0,.3,0,.5,0,.8,0,.7.2,1.5.2,2.2,0,.7.2,1.5.3,2.2.1.7.3,1.4.5,2.1.2.7.5,1.3.8,2,0,.1,0,.2,0,.3,0,0,0,.1,0,.2,0,0,0,.1,0,.2s0,.1,0,.2c0,.3-.2.6-.3,1-.1.3-.2.7-.3.9,0,.3-.2.4-.4.4,0,0,0,0,0,0ZM88.1,96.2c.1,0,.2,0,.3.1.1,0,.2.2.2.4l.2,2.5c0,.7.1,1.5.2,2.2,0,.4.1.9.2,1.3,0,.5.2.9.3,1.4.1.4.3.9.4,1.3.2.4.4.8.6,1.2,0,.1.1.2.1.2h0s0,0,0-.1c0-.3.2-.6.3-1,.1-.3.2-.7.3-1,0,0,0-.1,0-.2s0,0,0-.1c0,0,0,0,0-.1,0,0,0-.1,0-.3-.3-.7-.6-1.4-.8-2-.2-.7-.4-1.4-.5-2.1-.1-.7-.2-1.4-.3-2.2,0-.8-.1-1.5-.2-2.2,0-.3,0-.5-.1-.8,0-.2,0-.5-.2-.6,0-.2-.2-.3-.4-.4-.2,0-.5,0-.9,0-.4,0-.9.1-1.3.2-.4,0-.9,0-1.4,0s-.5,0-.7,0c-.2,0-.5-.1-.7-.2-.2,0-.4-.1-.5-.2-.2,0-.3-.2-.3-.3,0,0,0,0,0,0,0,0,0,0,0,0,0,.3,0,.6,0,.9,0,.3,0,.7,0,1.1,0,.2.1.4.2.5.1.2.3.3.4.4.2,0,.3.2.5.2.2,0,.4,0,.6.1.5,0,1.1,0,1.6,0,.5,0,1.1-.1,1.6-.2,0,0,0,0,.1,0Z"/>
      </g>
      <path class="st0" d="M49.3,104.4s0,0,0,0c0,0,0,0,0,0,.2,0,.5,0,.7,0,.2,0,.5,0,.7,0,.2,0,.5,0,.7,0,.2,0,.5,0,.8-.2-.1-.1-.2-.3-.3-.5,0-.2,0-.4,0-.6,0-.2,0-.5.1-.7,0-.2.1-.5.2-.7,0-.2.2-.4.3-.6.1-.2.2-.4.3-.5,0,0-.1,0-.1-.1,0,0,0,0-.1-.1,0,0,0,0,0,0s0,0,0,0c0-.1,0-.3,0-.4,0-.1,0-.2,0-.3,0,0,0-.2,0-.3,0,0,0-.2,0-.3,0-.1,0-.2.2-.2s.2,0,.3,0c.2.1.5.3.8.4.3.2.6.4,1,.6.3.2.7.4,1,.7.3.2.6.5.9.7.3.3.5.5.7.8.2.3.3.6.3.9,0,.2,0,.4,0,.6,0,.2,0,.4,0,.6,0,.2-.1.4-.3.5-.1.2-.3.3-.4.4-.1,0-.3.1-.4.2-.1,0-.2,0-.4,0-.2,0-.4,0-.6-.1-.2,0-.5,0-.7-.1-.3,0-.5-.1-.8-.2-.3,0-.5-.1-.7-.2-.1.1-.3.3-.5.4-.2.1-.4.2-.6.3-.2.1-.5.2-.7.2-.3,0-.5,0-.8,0s-.4,0-.5-.1c-.2,0-.4-.2-.5-.3-.2-.1-.3-.3-.4-.4-.1-.1-.2-.2-.2-.3ZM53.8,103.2c0,0,.2,0,.3-.1.1,0,.2-.1.3-.2.1,0,.2-.2.3-.2,0,0,.1-.1.1-.2,0-.1,0-.3-.1-.4,0-.2-.2-.3-.3-.4-.1-.1-.2-.2-.4-.3-.1,0-.3-.1-.4-.1-.1,0-.2,0-.3.2-.1,0-.2.2-.3.3-.1.1-.2.3-.3.4,0,.2-.1.3-.1.5,0,0,0,.2.1.3,0,0,.2.2.3.2.1,0,.3.1.4.1.1,0,.2,0,.3,0ZM57.4,103.6c0-.1,0-.2-.1-.4,0-.1-.2-.3-.3-.4-.1-.1-.3-.3-.4-.4-.1-.1-.3-.3-.4-.4-.1-.1-.3-.2-.4-.3s-.3-.2-.3-.2c0,0,0,0,0,0,0,0,0,0,0,0,0,.3,0,.6,0,1,0,.3-.1.6-.2.9,0,0,0,0,0,0,.1,0,.3,0,.5.1.2,0,.4,0,.6.1.2,0,.4,0,.6,0,.2,0,.3,0,.5,0,.1,0,.2,0,.2-.1Z"/>
    </g>
    <g>
      <path class="st0" d="M64.4,82.7c1.1-.9,1.9-1.7,2.5-2.3.6-.6,1.1-1.2,1.5-1.8.4-.6.6-1.3.6-1.9s-.2-1.2-.5-1.6c-.3-.4-.8-.6-1.5-.6s-1.2.2-1.5.6c-.4.4-.5,1-.6,1.7h-1.8c0-1.3.4-2.2,1.1-2.9.7-.7,1.6-1,2.7-1s2.1.3,2.8,1c.7.7,1,1.5,1,2.6s-.2,1.6-.6,2.3c-.4.7-.9,1.4-1.4,2-.6.6-1.3,1.2-2.1,2l-.7.7h5.2v1.6h-8v-1.4l1.2-1Z"/>
      <path class="st0" d="M73.2,74.6c.6-1.1,1.8-1.6,3.3-1.6s2.7.5,3.3,1.6c.6,1.1,1,2.6,1,4.5s-.3,3.4-1,4.5c-.6,1.1-1.8,1.6-3.3,1.6s-2.7-.5-3.3-1.6c-.6-1.1-1-2.6-1-4.5s.3-3.4,1-4.5ZM78.8,76.8c-.1-.6-.3-1.1-.7-1.5-.4-.4-.9-.6-1.6-.6s-1.2.2-1.6.6c-.4.4-.6.9-.7,1.5-.1.6-.2,1.4-.2,2.3s0,1.7.2,2.3c.1.6.3,1.1.7,1.5.4.4.9.6,1.6.6s1.2-.2,1.6-.6c.4-.4.6-.9.7-1.5.1-.6.2-1.4.2-2.3s0-1.6-.2-2.3Z"/>
      <path class="st0" d="M83.4,82.7c1.1-.9,1.9-1.7,2.5-2.3.6-.6,1.1-1.2,1.5-1.8.4-.6.6-1.3.6-1.9s-.2-1.2-.5-1.6c-.3-.4-.8-.6-1.5-.6s-1.2.2-1.5.6c-.4.4-.5,1-.6,1.7h-1.8c0-1.3.4-2.2,1.1-2.9.7-.7,1.6-1,2.7-1s2.1.3,2.8,1c.7.7,1,1.5,1,2.6s-.2,1.6-.6,2.3c-.4.7-.9,1.4-1.4,2-.6.6-1.3,1.2-2.1,2l-.7.7h5.2v1.6h-8v-1.4l1.2-1Z"/>
      <path class="st0" d="M99.2,74.9h-5.5v3.3c.2-.3.6-.6,1-.8.5-.2.9-.3,1.5-.3.9,0,1.7.2,2.3.6.6.4,1,.9,1.2,1.5.2.6.4,1.2.4,1.9s-.2,1.5-.5,2.2c-.3.6-.8,1.1-1.4,1.5-.6.4-1.4.5-2.3.5s-2.2-.3-2.9-.9c-.7-.6-1.2-1.4-1.3-2.4h1.8c.1.5.4.9.8,1.2.4.3.9.5,1.6.5s1.4-.2,1.8-.7c.4-.5.6-1.1.6-1.9s-.2-1.4-.6-1.8c-.4-.4-1-.6-1.7-.6s-1,.1-1.4.4c-.4.3-.6.6-.8,1.1h-1.8v-6.9h7.3v1.6Z"/>
      <path class="st0" d="M57.9,81.8c0-.2.2-.4.3-.6.4-.5.7-.9,1.1-1.4.4-.5.9-.8,1.4-1,.5-.1.8,0,1.1.3,0,.1,0,.3,0,.5,0,.2-.2.3-.3.3-.1,0-.3,0-.5-.1-.2-.1-.4-.1-.5-.1-.4.1-.7.5-.8,1,0,.3.2.6.7.8.2,0,.3,0,.5,0,.3,0,.6-.1,1-.4.5-.4.9-.6,1-.6.1,0,.2,0,.3,0,0,0,0,.1,0,.3,0,.1-.5.5-1.2,1.1-.2.1-.5.4-1,.8-.5.4-1.1,1.1-2,1.9-.3.4-.6.6-.8.8-.2,0-.3,0-.3-.2,0-.3.2-.6.4-.9.2-.3.4-.5.6-.8l.3-.4c-.2-.1-.4-.2-.5-.3-.2-.1-.3-.2-.4-.4-.2-.1-.2-.4-.2-.9Z"/>
    </g>
    <rect class="st0" x="55.1" y="89" width="46.3" height=".3"/>
  </g>
</svg>