<?xml version="1.0" encoding="UTF-8"?>
<svg id="Layer_1" xmlns="http://www.w3.org/2000/svg" version="1.1" viewBox="0 0 250 250">
  <!-- Generator: Adobe Illustrator 30.3.0, SVG Export Plug-In . SVG Version: 2.1.3 Build 182)  -->
  <defs>
    <style>
      .st0 {
        fill: #009a44;
      }
    </style>
  </defs>
  <g>
    <g>
      <path class="st0" d="M39.2,90c-1.6-.7-2.8-1.7-3.7-3-.9-1.3-1.4-2.8-1.4-4.5h5.2c.1,1.3.6,2.3,1.5,3.2.9.8,2.1,1.2,3.8,1.2s3-.4,3.9-1.2c.9-.8,1.4-1.9,1.4-3.1s-.3-1.8-.9-2.4c-.6-.6-1.3-1.1-2.2-1.4-.9-.3-2.1-.7-3.6-1.1-1.9-.5-3.5-1-4.7-1.6-1.2-.5-2.2-1.3-3.1-2.4-.8-1.1-1.3-2.6-1.3-4.4s.4-3.2,1.3-4.5c.9-1.3,2-2.3,3.6-2.9,1.5-.7,3.3-1,5.3-1,2.9,0,5.2.7,7,2.1,1.8,1.4,2.8,3.4,3,5.9h-5.4c0-1.1-.6-2-1.5-2.8-.9-.8-2.2-1.1-3.7-1.1s-2.5.4-3.4,1.1c-.9.7-1.3,1.7-1.3,3.1s.3,1.7.8,2.2c.6.6,1.3,1,2.1,1.4.9.3,2,.7,3.5,1.1,2,.5,3.6,1.1,4.8,1.6,1.2.5,2.3,1.4,3.1,2.5.9,1.1,1.3,2.6,1.3,4.5s-.4,2.9-1.2,4.3c-.8,1.3-2,2.4-3.5,3.2-1.5.8-3.4,1.2-5.5,1.2s-3.8-.3-5.4-1Z"/>
      <path class="st0" d="M78.8,80.8h-17.9c.1,1.9.8,3.4,2.1,4.5,1.2,1.1,2.8,1.7,4.6,1.7,2.6,0,4.5-1.1,5.5-3.3h5.2c-.7,2.2-2,3.9-3.9,5.3-1.9,1.4-4.2,2.1-6.9,2.1s-4.2-.5-6-1.5c-1.8-1-3.2-2.4-4.2-4.3-1-1.8-1.5-4-1.5-6.4s.5-4.5,1.5-6.4c1-1.8,2.4-3.2,4.1-4.2,1.8-1,3.8-1.5,6.1-1.5s4.2.5,5.9,1.4c1.7,1,3.1,2.3,4,4.1,1,1.7,1.4,3.8,1.4,6s0,1.7-.2,2.4ZM73.9,76.9c0-1.8-.7-3.2-1.9-4.3-1.2-1.1-2.8-1.6-4.6-1.6s-3.1.5-4.3,1.6c-1.2,1.1-1.9,2.5-2.1,4.3h13Z"/>
      <path class="st0" d="M103.1,80.8h-17.9c.1,1.9.8,3.4,2.1,4.5,1.2,1.1,2.8,1.7,4.6,1.7,2.6,0,4.5-1.1,5.5-3.3h5.2c-.7,2.2-2,3.9-3.9,5.3-1.9,1.4-4.2,2.1-6.9,2.1s-4.2-.5-6-1.5c-1.8-1-3.2-2.4-4.2-4.3-1-1.8-1.5-4-1.5-6.4s.5-4.5,1.5-6.4c1-1.8,2.4-3.2,4.1-4.2,1.8-1,3.8-1.5,6.1-1.5s4.2.5,5.9,1.4c1.7,1,3.1,2.3,4,4.1,1,1.7,1.4,3.8,1.4,6s0,1.7-.2,2.4ZM98.2,76.9c0-1.8-.7-3.2-1.9-4.3-1.2-1.1-2.8-1.6-4.6-1.6s-3.1.5-4.3,1.6c-1.2,1.1-1.9,2.5-2.1,4.3h13Z"/>
      <path class="st0" d="M105.9,72.7c1-1.8,2.3-3.2,4-4.2,1.7-1,3.6-1.5,5.6-1.5s3,.3,4.5,1c1.5.7,2.7,1.6,3.6,2.7v-11.3h4.9v31.5h-4.9v-3.5c-.8,1.1-1.9,2.1-3.3,2.8-1.4.7-3,1.1-4.8,1.1s-3.9-.5-5.6-1.6c-1.7-1-3-2.5-4-4.3-1-1.9-1.5-4-1.5-6.3s.5-4.4,1.5-6.3ZM122.6,74.8c-.7-1.2-1.5-2.1-2.6-2.7-1.1-.6-2.2-.9-3.5-.9s-2.4.3-3.5.9c-1.1.6-2,1.5-2.6,2.7-.7,1.2-1,2.6-1,4.2s.3,3,1,4.3c.7,1.2,1.5,2.1,2.6,2.8,1.1.6,2.2,1,3.5,1s2.4-.3,3.5-.9c1.1-.6,2-1.5,2.6-2.7.7-1.2,1-2.6,1-4.2s-.3-3-1-4.2Z"/>
      <path class="st0" d="M135.4,90.1c-1.5-.7-2.6-1.6-3.5-2.7-.9-1.1-1.3-2.4-1.4-3.9h5c0,1,.6,1.8,1.4,2.5.9.7,1.9,1,3.3,1s2.4-.3,3.2-.8c.8-.5,1.1-1.2,1.1-2s-.4-1.5-1.3-2c-.8-.4-2.2-.9-4-1.4-1.8-.5-3.2-.9-4.3-1.4-1.1-.5-2.1-1.1-2.9-2.1-.8-.9-1.2-2.2-1.2-3.7s.4-2.4,1.1-3.4c.7-1,1.8-1.9,3.2-2.4,1.4-.6,3-.9,4.7-.9,2.7,0,4.8.7,6.4,2,1.6,1.3,2.5,3.2,2.6,5.5h-4.9c0-1-.5-1.9-1.3-2.5-.8-.6-1.8-.9-3.1-.9s-2.3.2-2.9.7c-.7.5-1,1.1-1,1.9s.2,1.1.7,1.6c.5.4,1,.8,1.7,1,.7.2,1.6.5,2.9.9,1.7.5,3.1.9,4.2,1.4,1.1.5,2,1.2,2.8,2.1.8.9,1.2,2.1,1.2,3.6,0,1.3-.4,2.5-1.1,3.6-.7,1-1.8,1.9-3.1,2.5-1.3.6-2.9.9-4.7.9s-3.5-.3-5-1Z"/>
      <path class="st0" d="M164.7,89.6c-1.8-1-3.2-2.4-4.2-4.3-1-1.8-1.5-4-1.5-6.4s.5-4.5,1.6-6.3c1-1.8,2.5-3.3,4.3-4.3s3.8-1.5,6.1-1.5,4.3.5,6.1,1.5c1.8,1,3.2,2.4,4.3,4.3,1,1.8,1.6,4,1.6,6.3s-.5,4.5-1.6,6.3c-1.1,1.8-2.5,3.3-4.4,4.3-1.9,1-3.9,1.5-6.2,1.5s-4.2-.5-6-1.5ZM174.3,86c1.1-.6,2-1.5,2.7-2.7.7-1.2,1-2.6,1-4.3s-.3-3.1-1-4.3c-.7-1.2-1.5-2.1-2.6-2.7-1.1-.6-2.2-.9-3.5-.9s-2.4.3-3.5.9c-1.1.6-1.9,1.5-2.5,2.7-.6,1.2-.9,2.6-.9,4.3,0,2.5.6,4.5,1.9,5.9,1.3,1.4,2.9,2.1,4.9,2.1s2.4-.3,3.5-.9Z"/>
      <path class="st0" d="M195.1,71.3h-4.3v19.5h-4.9v-19.5h-2.8v-4h2.8v-1.7c0-2.7.7-4.7,2.1-5.9,1.4-1.2,3.7-1.9,6.7-1.9v4c-1.5,0-2.5.3-3.1.8-.6.6-.9,1.5-.9,2.9v1.7h4.3v4Z"/>
    </g>
    <path d="M12.3,109.2c2-3.4,4.7-6.1,8.1-8,3.4-1.9,7.2-2.9,11.3-2.9s8.8,1.1,12.5,3.4c3.6,2.3,6.3,5.5,7.9,9.7h-8.6c-1.1-2.3-2.7-4-4.7-5.2-2-1.1-4.4-1.7-7-1.7s-5.5.7-7.8,2c-2.3,1.3-4,3.2-5.3,5.6-1.3,2.4-1.9,5.3-1.9,8.5s.6,6.1,1.9,8.5c1.3,2.4,3.1,4.3,5.3,5.6,2.3,1.3,4.9,2,7.8,2s5-.6,7-1.7c2-1.1,3.6-2.9,4.7-5.2h8.6c-1.6,4.2-4.3,7.4-7.9,9.7-3.6,2.3-7.8,3.4-12.5,3.4s-7.9-1-11.3-2.9c-3.4-1.9-6.1-4.6-8.1-8-2-3.4-3-7.3-3-11.5s1-8.1,3-11.5"/>
    <path d="M81.7,109.1c2.1,1.1,3.7,2.8,4.9,5,1.2,2.2,1.8,4.9,1.8,8.1v20.5h-7.1v-19.4c0-3.1-.8-5.5-2.3-7.2-1.6-1.7-3.7-2.5-6.4-2.5s-4.8.8-6.4,2.5c-1.6,1.7-2.4,4-2.4,7.2v19.4h-7.2v-46.7h7.2v16c1.2-1.5,2.8-2.6,4.6-3.4,1.9-.8,3.9-1.2,6.1-1.2s5,.6,7.1,1.7"/>
    <path d="M93.6,115.9c1.5-2.7,3.4-4.8,5.9-6.3,2.5-1.5,5.3-2.2,8.3-2.2s5.1.5,7.2,1.6c2,1.1,3.7,2.4,4.9,4v-5h7.3v34.7h-7.3v-5.2c-1.2,1.6-2.9,3-5,4.1-2.1,1.1-4.5,1.6-7.2,1.6s-5.7-.8-8.2-2.3c-2.5-1.5-4.4-3.7-5.9-6.4-1.5-2.8-2.2-5.9-2.2-9.4s.7-6.6,2.2-9.3M118.3,119.1c-1-1.8-2.3-3.1-3.9-4-1.6-.9-3.3-1.4-5.2-1.4s-3.6.5-5.2,1.4c-1.6.9-2.9,2.2-3.9,4-1,1.7-1.5,3.8-1.5,6.2s.5,4.5,1.5,6.3c1,1.8,2.3,3.2,3.9,4.1,1.6.9,3.3,1.4,5.1,1.4s3.6-.5,5.2-1.4c1.6-.9,2.9-2.3,3.9-4.1,1-1.8,1.5-3.9,1.5-6.3s-.5-4.5-1.5-6.2"/>
    <path d="M157.6,109.1c2.2,1.1,3.9,2.8,5.1,5,1.2,2.2,1.8,4.9,1.8,8.1v20.5h-7.1v-19.4c0-3.1-.8-5.5-2.3-7.2-1.6-1.7-3.7-2.5-6.4-2.5s-4.8.8-6.4,2.5c-1.6,1.7-2.4,4-2.4,7.2v19.4h-7.2v-34.7h7.2v4c1.2-1.4,2.7-2.5,4.5-3.3,1.8-.8,3.8-1.2,5.8-1.2s5.2.6,7.3,1.7"/>
    <path d="M240.5,128h-26.6c.2,2.8,1.2,5,3.1,6.7,1.8,1.7,4.1,2.5,6.8,2.5,3.9,0,6.6-1.6,8.2-4.9h7.8c-1,3.2-3,5.8-5.7,7.9-2.8,2-6.2,3.1-10.2,3.1s-6.3-.7-8.9-2.2c-2.6-1.5-4.7-3.6-6.2-6.3-1.5-2.7-2.2-5.9-2.2-9.4s.7-6.7,2.2-9.4c1.5-2.7,3.5-4.8,6.1-6.3,2.6-1.5,5.6-2.2,9-2.2s6.2.7,8.8,2.1c2.6,1.4,4.6,3.4,6,6,1.4,2.6,2.1,5.6,2.1,8.9s0,2.5-.3,3.5M233.2,122.2c0-2.7-1-4.8-2.8-6.4-1.8-1.6-4.1-2.4-6.9-2.4s-4.6.8-6.4,2.4c-1.8,1.6-2.8,3.7-3.2,6.4h19.2Z"/>
    <path d="M203.2,108h-7.3v5c-1.2-1.6-2.8-2.9-4.9-4-2.1-1.1-4.5-1.6-7.2-1.6s-5.8.7-8.3,2.2c-2.5,1.5-4.5,3.6-5.9,6.3-1.5,2.7-2.2,5.8-2.2,9.3s.7,6.6,2.2,9.4c1.5,2.8,3.4,4.9,5.9,6.4,2.5,1.5,5.3,2.3,8.3,2.3s5-.6,7.1-1.7c2.1-1.1,3.7-2.5,4.9-4.1v11.5s-.3,0-.3,0c-18.1.5-24.6,14.9-24.6,28.2s0,5.8-.1,8.7v.4c0,2.1,0,4,0,5.1v.7h.7c.1,0,.7,0,.8,0,1.1,0,2.2,0,3.3-.2,8.4-.7,15.8-3.9,20.7-8.8,6.3-6.2,6.8-13.7,6.8-20.8,0-4.6,0-9.5,0-13.1v-.2c0-1.9,0-3.9,0-5.8h0v-35.2ZM195.9,165.5c0,13.4-8.7,18.7-16.9,19.3h-.3s0-9.9,0-9.9c0-13.4,8.7-18.7,16.9-19.3h.3s0,9.9,0,9.9ZM194.5,131.6c-1,1.8-2.3,3.1-3.9,4.1-1.6.9-3.3,1.4-5.2,1.4s-3.5-.5-5.1-1.4c-1.6-.9-2.9-2.3-3.9-4.1-1-1.8-1.5-3.9-1.5-6.3s.5-4.5,1.5-6.2c1-1.7,2.3-3.1,3.9-4,1.6-.9,3.3-1.4,5.2-1.4s3.6.5,5.2,1.4c1.6.9,2.9,2.3,3.9,4,1,1.8,1.5,3.8,1.5,6.2s-.5,4.5-1.5,6.3"/>
    <g>
      <path d="M228.8,93.9h-2.1v-.7h5v.7h-2.1v6h-.9v-6Z"/>
      <path d="M238,97c0-.9-.1-2.1-.1-2.9h0c-.2.8-.5,1.6-.9,2.6l-1.2,3.3h-.7l-1.1-3.2c-.3-.9-.6-1.8-.8-2.6h0c0,.8,0,2-.1,3l-.2,2.9h-.8l.5-6.7h1.1l1.2,3.3c.3.8.5,1.6.7,2.3h0c.2-.7.4-1.4.7-2.3l1.2-3.3h1.1l.4,6.7h-.9l-.2-3Z"/>
    </g>
  </g>
  <g>
    <path d="M53.9,174.6c-.4,0-.5-.1-.5-.4,0-.4.3-1,.8-1.6l-.6-.6c-1.1,1.1-1.6,2.2-1.6,3.4s.1.9.4,1.3c.3.4.7.6,1.2.6s.8-.2,1-.5c.3-.3.4-.7.4-1.1,0-.7-.4-1.1-1.1-1.1Z"/>
    <path d="M54.6,162.7c-.5.6-1,1.4-1.4,2.2.9,1.6,1.4,2.5,1.4,2.9s-.3.2-.9.3c-.7.1-1.4.2-2.1.2h-2.2c-1,0-2.3,0-3.7-.1-1.4,0-2.4-.1-3-.1-1.8,0-3.4,1-4.8,2.9-.8,1.2-1.3,2.2-1.3,3.1s.4,1.3,1.2,1.7c.8.4,1.9.6,3.3.6s2.2,0,3.9,0c1.9,0,3.2-.1,3.9-.1.9-.9,1.6-1.7,2.2-2.4h0c-.9-.1-2.2-.1-4,0-1.8,0-3.2,0-4.2,0s-2.5-.1-3.3-.4c-.7-.2-1.1-.5-1.1-.8s.3-.6,1-1c.8-.4,1.6-.7,2.6-.7s1.5,0,3,.1c1.5,0,2.8.1,3.9.1h2.5c1.2,0,2.2-.2,2.8-.5.5-.2,1-.7,1.4-1.4.4-.8.6-1.7.6-2.6s-.5-2.2-1.4-3.9h-.1Z"/>
    <path d="M81.5,156l.6-1.1h0c-2.7.7-5.2,1.6-7.3,2.6-.2.4-.4.8-.5,1.2h0c1.8-.9,4.2-1.8,7.2-2.7Z"/>
    <path d="M81.2,159.2c.4-.7.9-1.5,1.3-2.4h0c-2.5.7-4.9,1.5-6.9,2.4-1.2.5-1.9,1.3-1.9,2.3s.1,1.1.3,1.8c1.2.6,2.3,1.3,3.3,2.2.9.8,1.4,1.4,1.4,1.8s-.4.5-1.2.7c-.9.2-2,.3-3.3.3h-.5s0,0,0,0h0s-5.1,0-5.1,0l-1.3,2.3.2.3c2.2,0,3.6.4,4.1,1-1.6,1.1-3.4,1.7-5.3,1.7s-2.3-.4-3-1.1c-.8-.7-1.2-1.8-1.2-3.2s.3-1.9.9-3.3l-.8-.4c-1,2-1.6,3.8-1.6,5.4s.5,3,1.4,4c.9,1,2.2,1.4,3.8,1.4,2.4,0,4.6-.9,6.5-2.6.5-.9.7-1.6.7-2s0-.5,0-.7h.8s0,0,0,0h.2c2.6,0,4.4-.4,5.2-1.3.7-.9,1-1.9,1-3.1s-.9-2.6-2.7-3.9l.5-1c-1.1,0-2.1-.2-2.9-.4h0c2.2-1,4.3-1.7,6.2-2.3Z"/>
    <path d="M96.5,169.2c.4-.8.6-1.7.6-2.6s-.5-2.2-1.4-3.9h-.1c-.5.6-1,1.3-1.4,2.2.9,1.6,1.4,2.5,1.4,2.9s-.3.2-.9.3c-.7.1-1.4.2-2.1.2h-.5c-1.2,0-1.9-.8-2.2-2.3-.4-2.4-.8-4.3-1.2-5.6h-.2c-.5.5-.9,1.2-1.3,1.9.8,2.2,1.2,3.8,1.2,4.7s-.3.7-.9.9c-.7.3-1.4.5-2.1.5-1.1,0-1.7-.6-1.8-1.7h-.9c0,.4,0,.8,0,1.3,0,2.2.8,3.3,2.5,3.3s2.2-.3,3-1c.3-.2.6-.7.8-1.4h0c.5,1.6,1.5,2.4,3,2.4h.4c1.2,0,2.2-.2,2.8-.5.5-.2,1-.7,1.4-1.4Z"/>
    <path d="M96.2,160c-.6-.6-1.3-1.2-2-1.6l-1.3,1.8c.9.6,1.6,1.1,2,1.6.5-.5,1-1,1.3-1.7Z"/>
    <path d="M101.9,163.6c-.5.9-.9,1.7-1.3,2.4,1.3,1.9,1.9,3.1,1.9,3.5s-.5,1.3-1.5,2.4c-1.2,1.1-2.3,1.7-3.4,1.7s-1,0-1.4-.2l-.3.7c1.3.8,2.6,1.2,3.9,1.2s2.3-.8,3.2-2.4c.6-1,.9-2.3.9-3.7v-.5c0-.3,0-.5,0-.8,0-1-.6-2.5-1.7-4.4h-.3Z"/>
    <path d="M102.6,160.2c-.7-.7-1.4-1.2-2.1-1.7l-1.3,1.9c.8.5,1.5,1.1,2.1,1.6.5-.5,1-1,1.3-1.8Z"/>
    <path d="M119.5,160.5c-.6-.6-1.3-1.2-2-1.8l-1.5,1.8c.7.6,1.4,1.2,2,1.8.5-.6,1-1.2,1.4-1.8Z"/>
    <path d="M116.1,160.6c-.6-.6-1.3-1.2-2-1.8l-1.5,1.8c.7.6,1.4,1.2,2,1.8.5-.6,1-1.2,1.4-1.8Z"/>
    <path d="M138.1,164.8h0c0-.1-1-.1-1-.1-1.1,0-2.3-.2-3.5-.7-1.7-.6-3-1-3.9-1s-1.4.2-2,.6c-.6.4-1,1.1-1.1,1.9l.9,1.8h.3l.6-1.5c.3-.2.6-.3,1.2-.3.9,0,2.1.3,3.6.7h0c-1.9,1.3-4.3,1.9-7.1,1.9h-.4c-.6,0-1.1-.1-1.5-.4-.4-.3-.6-.6-.6-1.1s.1-.8.3-1.6h-.1c-.4.1-.7.4-1.1.6l-.7,1.8c-1.9.7-4,1.1-6.3,1.1s-3.7-.4-4.8-1.2c-1-.7-1.5-1.6-1.5-2.7s.1-1,.3-1.7l-.9-.3c-.6,1.2-.8,2.5-.8,3.7s.7,3,2,3.9c1.2.8,2.9,1.2,5,1.2s5-.6,7.6-1.8h0c.6.8,1.6,1.1,3,1.1h.4c1.9,0,3.5-.3,4.8-.9,1-.5,2.2-1.3,3.6-2.6.6-.6,1.4-.8,2.4-.8.4-.6.8-1.3,1.2-2Z"/>
    <path d="M132.5,159.8c-.6-.6-1.3-1.2-2-1.6l-1.3,1.8c.9.6,1.6,1.1,2,1.6.5-.5,1-1,1.3-1.7Z"/>
    <path d="M141.6,163.6c-.5.9-.9,1.7-1.3,2.4,1.3,1.9,1.9,3.1,1.9,3.5s-.5,1.3-1.5,2.4c-1.2,1.1-2.3,1.7-3.4,1.7s-1,0-1.4-.2l-.3.7c1.3.8,2.6,1.2,3.9,1.2s2.3-.8,3.2-2.4c.6-1,.9-2.3.9-3.7v-.5c0-.3,0-.5,0-.8,0-1-.6-2.5-1.7-4.4h-.3Z"/>
    <path d="M152.2,163.7c-.9-1.1-2.1-2.1-3.5-3h0c-.6,1-.9,1.8-.9,2.2s.3.5.8.8c2.1,1.2,3.3,2.5,3.7,4-1,.5-2,.8-3.1.8s-2-.6-2-1.8h-.9c0,.5,0,1,0,1.5,0,2,.9,3.1,2.8,3.1s2.8-.5,3.9-1.4c.5-.8.7-1.7.7-2.6s-.4-2.5-1.3-3.5Z"/>
  </g>
</svg>